#N canvas 516 148 581 398 12;
#N canvas 232 23 1448 1005 g 0;
#X obj 585 564 unpack f f f;
#X obj 399 753 / 127;
#X obj 559 699 / 127;
#X obj 733 708 / 127;
#X obj 399 807 + 5;
#X obj 559 753 + 5;
#X obj 733 762 + 5;
#X obj 733 732 * 45;
#X obj 399 777 * 20;
#X obj 559 723 * 20;
#N canvas 169 25 1028 909 formant-frequencies 0;
#X msg 61 638 270 2300 3000;
#X msg 71 606 400 2000 2550;
#X msg 87 578 530 1850 2500;
#X msg 103 549 660 1700 2400;
#X msg 121 519 730 1100 2450;
#X msg 143 488 570 850 2400;
#X msg 155 461 440 1000 2250;
#X msg 176 438 300 850 2250;
#X msg 193 405 640 1200 2400;
#X msg 211 379 490 1350 1700;
#X obj 58 687 outlet;
#X obj 62 37 / 127;
#X obj 62 13 inlet;
#X obj 62 85 i;
#X msg 231 355 300 2800 3300;
#X msg 250 325 430 2500 3100;
#X msg 262 302 600 2350 3000;
#X msg 277 277 860 2050 2850;
#X msg 296 252 850 1200 2800;
#X msg 310 230 590 900 2700;
#X msg 328 205 470 1150 2700;
#X msg 345 181 370 950 2650;
#X msg 361 156 760 1400 2800;
#X msg 378 135 500 1650 1950;
#X obj 62 111 route 1 2 3 4 5 6 7 8 9 10 11 12 13 14 15 16 17 18 19
20;
#X obj 62 62 * 20;
#X connect 0 0 10 0;
#X connect 1 0 10 0;
#X connect 2 0 10 0;
#X connect 3 0 10 0;
#X connect 4 0 10 0;
#X connect 5 0 10 0;
#X connect 6 0 10 0;
#X connect 7 0 10 0;
#X connect 8 0 10 0;
#X connect 9 0 10 0;
#X connect 11 0 25 0;
#X connect 12 0 11 0;
#X connect 13 0 24 0;
#X connect 14 0 10 0;
#X connect 15 0 10 0;
#X connect 16 0 10 0;
#X connect 17 0 10 0;
#X connect 18 0 10 0;
#X connect 19 0 10 0;
#X connect 20 0 10 0;
#X connect 21 0 10 0;
#X connect 22 0 10 0;
#X connect 23 0 10 0;
#X connect 24 0 0 0;
#X connect 24 1 1 0;
#X connect 24 2 2 0;
#X connect 24 3 3 0;
#X connect 24 4 4 0;
#X connect 24 5 5 0;
#X connect 24 6 6 0;
#X connect 24 7 7 0;
#X connect 24 8 8 0;
#X connect 24 9 9 0;
#X connect 24 10 14 0;
#X connect 24 11 15 0;
#X connect 24 12 16 0;
#X connect 24 13 17 0;
#X connect 24 14 18 0;
#X connect 24 15 19 0;
#X connect 24 16 20 0;
#X connect 24 17 21 0;
#X connect 24 18 22 0;
#X connect 24 19 23 0;
#X connect 25 0 13 0;
#X restore 585 539 pd formant-frequencies;
#X obj 399 730 t f f f;
#X obj 243 729 vcf~ 207 5;
#X obj 243 773 vcf~ 207 5;
#X obj 244 830 vcf~ 207 5;
#X obj 490 800 vcf~ 2300 20;
#X obj 490 842 vcf~ 2300 20;
#X obj 490 888 vcf~ 2300 20;
#X obj 664 808 vcf~ 3000 50;
#X obj 664 836 vcf~ 3000 50;
#X obj 656 880 vcf~ 3000 50;
#X obj 585 618 line~;
#X obj 667 612 line~;
#X obj 738 610 line~;
#X obj 399 832 t f f f;
#X obj 559 775 t f f f;
#X obj 733 784 t f f f;
#X obj 275 375 +;
#X obj 585 517 moses 127;
#X obj 495 518 lop~ 2000;
#X obj 495 582 lop~ 2000;
#X obj 453 1016 *~ 0.89;
#X obj 572 1005 *~ 0.5;
#X obj 648 1002 *~ 0.77;
#X obj 1249 1030 *~ 0.89;
#X obj 1068 1011 *~ 0.5;
#X obj 585 592 pack 0 100;
#X obj 668 590 pack 0 111;
#X obj 761 588 pack 0 122;
#X obj 386 242 random 127;
#X obj 388 156 bng 15 250 50 0 empty empty empty 17 7 0 10 -262144
-1 -1;
#X obj 467 221 s getpit;
#X obj 726 13 r pit;
#X obj 609 227 mtof;
#X floatatom 849 514 5 0 0 0 - - -, f 5;
#X obj 554 300 pack f f f;
#X obj 1303 577 unpack f f f;
#X obj 1117 766 / 127;
#X obj 1277 712 / 127;
#X obj 1451 721 / 127;
#X obj 1117 820 + 5;
#X obj 1277 766 + 5;
#X obj 1451 775 + 5;
#X obj 1451 745 * 45;
#X obj 1117 790 * 20;
#X obj 1277 736 * 20;
#N canvas 169 25 515 706 formant-frequencies 0;
#X msg 61 638 270 2300 3000;
#X msg 71 606 400 2000 2550;
#X msg 87 578 530 1850 2500;
#X msg 103 549 660 1700 2400;
#X msg 121 519 730 1100 2450;
#X msg 143 488 570 850 2400;
#X msg 155 461 440 1000 2250;
#X msg 176 438 300 850 2250;
#X msg 193 405 640 1200 2400;
#X msg 211 379 490 1350 1700;
#X obj 58 687 outlet;
#X obj 62 37 / 127;
#X obj 62 13 inlet;
#X obj 62 85 i;
#X msg 231 355 300 2800 3300;
#X msg 250 325 430 2500 3100;
#X msg 262 302 600 2350 3000;
#X msg 277 277 860 2050 2850;
#X msg 296 252 850 1200 2800;
#X msg 310 230 590 900 2700;
#X msg 328 205 470 1150 2700;
#X msg 345 181 370 950 2650;
#X msg 361 156 760 1400 2800;
#X msg 378 135 500 1650 1950;
#X obj 62 111 route 1 2 3 4 5 6 7 8 9 10 11 12 13 14 15 16 17 18 19
20;
#X obj 62 62 * 20;
#X connect 0 0 10 0;
#X connect 1 0 10 0;
#X connect 2 0 10 0;
#X connect 3 0 10 0;
#X connect 4 0 10 0;
#X connect 5 0 10 0;
#X connect 6 0 10 0;
#X connect 7 0 10 0;
#X connect 8 0 10 0;
#X connect 9 0 10 0;
#X connect 11 0 25 0;
#X connect 12 0 11 0;
#X connect 13 0 24 0;
#X connect 14 0 10 0;
#X connect 15 0 10 0;
#X connect 16 0 10 0;
#X connect 17 0 10 0;
#X connect 18 0 10 0;
#X connect 19 0 10 0;
#X connect 20 0 10 0;
#X connect 21 0 10 0;
#X connect 22 0 10 0;
#X connect 23 0 10 0;
#X connect 24 0 0 0;
#X connect 24 1 1 0;
#X connect 24 2 2 0;
#X connect 24 3 3 0;
#X connect 24 4 4 0;
#X connect 24 5 5 0;
#X connect 24 6 6 0;
#X connect 24 7 7 0;
#X connect 24 8 8 0;
#X connect 24 9 9 0;
#X connect 24 10 14 0;
#X connect 24 11 15 0;
#X connect 24 12 16 0;
#X connect 24 13 17 0;
#X connect 24 14 18 0;
#X connect 24 15 19 0;
#X connect 24 16 20 0;
#X connect 24 17 21 0;
#X connect 24 18 22 0;
#X connect 24 19 23 0;
#X connect 25 0 13 0;
#X restore 1303 552 pd formant-frequencies;
#X obj 1117 743 t f f f;
#X obj 927 757 vcf~ 207 5;
#X obj 927 801 vcf~ 207 5;
#X obj 928 858 vcf~ 207 5;
#X obj 1208 813 vcf~ 2300 20;
#X obj 1208 855 vcf~ 2300 20;
#X obj 1208 901 vcf~ 2300 20;
#X obj 1382 821 vcf~ 3000 50;
#X obj 1382 849 vcf~ 3000 50;
#X obj 1374 893 vcf~ 3000 50;
#X obj 1303 631 line~;
#X obj 1385 625 line~;
#X obj 1456 623 line~;
#X obj 1117 845 t f f f;
#X obj 1277 788 t f f f;
#X obj 1451 797 t f f f;
#X obj 950 465 +;
#X obj 1303 530 moses 127;
#X obj 1213 531 lop~ 2000;
#X obj 1213 595 lop~ 2000;
#X obj 1303 605 pack 0 100;
#X obj 1386 603 pack 0 111;
#X obj 1479 601 pack 0 122;
#X obj 1108 40 bng 15 250 50 0 empty empty empty 17 7 0 10 -262144
-1 -1;
#X obj 1126 228 s getpit;
#X obj 1383 284 mtof;
#X floatatom 898 512 5 0 0 0 - - -, f 5;
#X obj 1336 375 pack f f f;
#X obj 388 176 t b b b b;
#X obj 720 185 spigot;
#X msg 734 120 1;
#X msg 769 109 0;
#X obj 1449 156 r pit;
#X obj 1450 208 spigot;
#X msg 1533 162 1;
#X msg 1586 152 0;
#X obj 1106 189 t b b b b;
#X obj 588 -239 bng 15 250 50 0 empty empty empty 17 7 0 10 -262144
-1 -1;
#X obj 435 -179 metro 600;
#X obj 647 -155 t b b;
#X obj 495 542 lop~ 2000;
#X obj 1213 559 lop~ 2000;
#X obj 401 42 s duration;
#X obj 683 -36 sel 0 1 2 3 4;
#X obj 684 -111 random 5;
#X msg 1393 -51 random 2 - split;
#X msg 1389 15 random 1 + 2 — always unisons;
#X obj 684 -74 + 0;
#X msg 1395 -14 random 3-5 — more chance of unisons;
#X obj 896 23 unpack f f f f;
#X obj 551 191 random 5;
#X obj 552 346 route 0 1 2 3 4;
#X obj 554 233 + 0;
#X obj 1209 224 random 5;
#X obj 1260 262 + 0;
#X msg 1161 -103 2 0 2 0;
#X msg 1099 -74 2 0 4 0;
#X msg 1022 -68 2 0 1 2;
#X msg 1033 -140 4 0 2 0;
#X msg 1001 -120 1 2 2 0;
#X msg 1010 -94 4 0 4 0;
#X msg 949 -79 4 0 1 2;
#X msg 926 -106 1 2 4 0;
#X msg 861 -96 1 2 1 2;
#X obj 925 93 sel 2;
#X obj 1394 259 spigot 1;
#X msg 977 143 0;
#X msg 1030 150 1;
#X msg 909 160 1;
#X msg 945 167 0;
#X obj 989 212 tgl 15 0 empty empty empty 17 7 0 10 -262144 -1 -1 1
1;
#X obj 953 233 spigot 0;
#X obj 1447 234 tgl 15 0 empty empty empty 17 7 0 10 -262144 -1 -1
0 1;
#X obj 945 320 random 127;
#X obj 609 261 t b f;
#X obj 1126 -246 r mbreadth;
#X obj 901 -178 sel 0 1 2 3 4 5 6 7 8 9 10;
#X obj 885 -240 i;
#X obj 885 -216 change;
#X obj 397 268 r maggr;
#X obj 397 292 - 100;
#X obj 395 398 line;
#X msg 396 370 \$1 500;
#X obj 280 -205 r mroc;
#X obj 280 -181 unpack f f;
#X obj 280 -157 * 1000;
#X obj 347 -152 * 1000;
#X obj 280 -112 -;
#X obj 280 -88 abs;
#X floatatom 280 -64 5 0 0 0 - - -, f 5;
#X obj 103 7 +;
#X obj 467 -60 +;
#X obj 538 -177 random 1000;
#X obj 675 -187 until;
#X obj 676 -232 f;
#X obj 681 -261 r mchordsize;
#X obj 843 378 * 1;
#X obj 809 225 r mactiv;
#X obj 817 273 - 150;
#X obj 817 297 / -100;
#X floatatom 817 321 5 0 0 0 - - -, f 5;
#X obj 1050 -273 r mdensity;
#X obj 1046 -225 +;
#X obj 1127 -217 t b f;
#X obj 889 -269 / 20;
#X obj 549 -134 r mchordsize;
#X obj 555 -45 clip 1 4;
#X obj 500 19 * 1;
#X floatatom 554 -20 5 0 0 0 - - -, f 5;
#X obj 549 -110 + 1;
#X obj 549 -86 / 4;
#X obj 1746 431 + 0, f 5;
#X obj 1746 278 t f b;
#X obj 1778 305 random 1;
#X obj 1778 336 sel 0;
#X obj 1831 168 r mpauses;
#X msg 1810 407 0;
#X floatatom 1842 241 5 0 0 0 - - -, f 5;
#X obj 1778 384 + 4000;
#X obj 1777 360 random 15000;
#X obj 588 -219 t b b;
#X obj 1722 478 +;
#X floatatom 1807 473 5 0 0 0 - - -, f 5;
#X obj 396 317 * -0.6;
#X obj 396 341 + 67;
#X obj 1831 198 / 1;
#N canvas 0 25 450 300 sq 0;
#X obj 377 325 phasor~;
#X obj 366 406 *~;
#X obj 294 79 inlet;
#X obj 468 465 outlet~;
#X obj 590 251 vline~;
#X obj 193 294 phasor~;
#X obj 258 292 phasor~;
#X obj 307 263 + 0.5;
#X msg 303 223 0;
#X obj 193 348 -~;
#X obj 348 187 r sublb;
#X obj 526 86 r duration;
#X obj 502 138 f;
#X msg 503 176 2 10 \, 0.3 10 \$1 \, 0 \$1 4000;
#X connect 1 0 3 0;
#X connect 2 0 6 0;
#X connect 2 0 5 0;
#X connect 2 0 0 0;
#X connect 2 0 8 0;
#X connect 2 0 12 0;
#X connect 4 0 1 1;
#X connect 5 0 9 0;
#X connect 6 0 9 1;
#X connect 7 0 6 1;
#X connect 8 0 5 1;
#X connect 8 0 7 0;
#X connect 9 0 1 0;
#X connect 10 0 8 0;
#X connect 11 0 12 1;
#X connect 12 0 13 0;
#X connect 13 0 4 0;
#X restore 563 393 pd sq;
#N canvas 0 25 450 300 ph 0;
#X obj 377 325 phasor~;
#X obj 366 406 *~;
#X obj 294 79 inlet;
#X obj 468 465 outlet~;
#X obj 590 251 vline~;
#X obj 467 88 r duration;
#X obj 443 140 f;
#X msg 443 178 2 10 \, 0.3 10 \$1 \, 0 \$1 4000;
#X connect 0 0 1 0;
#X connect 1 0 3 0;
#X connect 2 0 0 0;
#X connect 2 0 6 0;
#X connect 4 0 1 1;
#X connect 5 0 6 1;
#X connect 6 0 7 0;
#X connect 7 0 4 0;
#X restore 617 393 pd ph;
#X obj 1310 424 route 0 1 2 3 4;
#N canvas 0 25 890 682 sq 0;
#X obj 377 325 phasor~;
#X obj 366 406 *~;
#X obj 294 79 inlet;
#X obj 468 465 outlet~;
#X obj 590 251 vline~;
#X obj 189 328 phasor~;
#X obj 254 326 phasor~;
#X obj 307 263 + 0.5;
#X msg 303 223 0;
#X obj 189 382 -~;
#X obj 348 187 r sublb;
#X obj 526 86 r duration;
#X obj 502 138 f;
#X msg 503 176 2 10 \, 0.3 10 \$1 \, 0 \$1 4000;
#X connect 1 0 3 0;
#X connect 2 0 6 0;
#X connect 2 0 5 0;
#X connect 2 0 0 0;
#X connect 2 0 8 0;
#X connect 2 0 12 0;
#X connect 4 0 1 1;
#X connect 5 0 9 0;
#X connect 6 0 9 1;
#X connect 7 0 6 1;
#X connect 8 0 5 1;
#X connect 8 0 7 0;
#X connect 9 0 1 0;
#X connect 10 0 8 0;
#X connect 11 0 12 1;
#X connect 12 0 13 0;
#X connect 13 0 4 0;
#X restore 1321 471 pd sq;
#N canvas 0 25 450 300 ph 0;
#X obj 377 325 phasor~;
#X obj 366 406 *~;
#X obj 294 79 inlet;
#X obj 468 465 outlet~;
#X obj 590 251 vline~;
#X obj 467 88 r duration;
#X obj 443 140 f;
#X msg 443 178 2 10 \, 0.3 10 \$1 \, 0 \$1 4000;
#X connect 0 0 1 0;
#X connect 1 0 3 0;
#X connect 2 0 0 0;
#X connect 2 0 6 0;
#X connect 4 0 1 1;
#X connect 5 0 6 1;
#X connect 6 0 7 0;
#X connect 7 0 4 0;
#X restore 1375 471 pd ph;
#N canvas 992 289 1439 922 rev2 0;
#X obj 161 497 +~;
#X obj 520 105 inlet;
#X obj 184 407 *~;
#X obj 486 412 *~;
#X obj 285 412 *~;
#X obj 387 412 *~;
#X obj 443 546 -~;
#X obj 364 545 -~;
#X obj 239 537 +~;
#X obj 161 534 +~;
#X obj 162 444 +~;
#X obj 262 440 +~;
#X obj 464 501 -~;
#X obj 387 499 +~;
#X obj 239 500 -~;
#X obj 452 105 inlet;
#X obj 609 429 line~;
#X obj 509 374 line~;
#X obj 16 121 delread~ \$0-del1 58.6435;
#X obj 94 143 delread~ \$0-del2 69.4325;
#X obj 176 165 delread~ \$0-del3 74.5234;
#X obj 258 189 delread~ \$0-del4 86.1244;
#X obj 530 500 *~;
#X obj 599 501 *~;
#X obj 161 641 delwrite~ \$0-del1 58.6435;
#X obj 240 617 delwrite~ \$0-del2 69.4325;
#X obj 365 595 delwrite~ \$0-del3 74.5234;
#X obj 444 573 delwrite~ \$0-del4 86.1244;
#X obj 609 357 dbtorms;
#X obj 609 403 pack 0 30;
#X obj 520 211 pack 0 50;
#X obj 9 390 inlet~;
#X obj 530 525 outlet~;
#X obj 599 525 outlet~;
#X obj 520 187 / 200;
#X obj 520 162 clip 0 100;
#X obj 52 236 lop~;
#X obj 367 106 r sublb;
#X obj 667 500 *~;
#X obj 735 501 *~;
#X obj 667 525 outlet~;
#X obj 735 525 outlet~;
#X obj 625 167 moses 1;
#X msg 631 193 3000;
#X obj 705 193 clip 0 100;
#N canvas 341 84 355 597 early-reflect 0;
#X obj 84 119 -~;
#X obj 49 119 +~;
#X obj 50 195 +~;
#X obj 85 196 -~;
#X obj 84 275 -~;
#X obj 49 274 +~;
#X obj 82 349 -~;
#X obj 48 350 +~;
#X obj 83 428 -~;
#X obj 49 428 +~;
#X obj 65 7 inlet~;
#X obj 49 508 outlet~;
#X obj 119 507 outlet~;
#X obj 110 66 delwrite~ \$0-ref1 43.5337;
#X obj 110 90 delread~ \$0-ref1 43.5337;
#X obj 107 145 delwrite~ \$0-ref2 25.796;
#X obj 107 169 delread~ \$0-ref2 25.796;
#X obj 106 223 delwrite~ \$0-ref3 19.392;
#X obj 106 247 delread~ \$0-ref3 19.392;
#X obj 102 300 delwrite~ \$0-ref4 16.364;
#X obj 102 324 delread~ \$0-ref4 16.364;
#X obj 119 452 delwrite~ \$0-ref6 4.2546;
#X obj 119 477 delread~ \$0-ref6 4.2546;
#X obj 106 376 delwrite~ \$0-ref5 7.645;
#X obj 106 400 delread~ \$0-ref5 7.645;
#X connect 0 0 15 0;
#X connect 1 0 3 0;
#X connect 1 0 2 0;
#X connect 2 0 5 0;
#X connect 2 0 4 0;
#X connect 3 0 17 0;
#X connect 4 0 19 0;
#X connect 5 0 7 0;
#X connect 5 0 6 0;
#X connect 6 0 23 0;
#X connect 7 0 9 0;
#X connect 7 0 8 0;
#X connect 8 0 21 0;
#X connect 9 0 11 0;
#X connect 10 0 1 0;
#X connect 10 0 0 0;
#X connect 10 0 13 0;
#X connect 14 0 1 1;
#X connect 14 0 0 1;
#X connect 16 0 2 1;
#X connect 16 0 3 1;
#X connect 18 0 5 1;
#X connect 18 0 4 1;
#X connect 20 0 7 1;
#X connect 20 0 6 1;
#X connect 22 0 12 0;
#X connect 24 0 9 1;
#X connect 24 0 8 1;
#X restore 9 416 pd early-reflect;
#X obj 618 216 f;
#X obj 618 105 inlet;
#X obj 696 109 inlet;
#X obj 705 216 f;
#X obj 705 239 * 0.01;
#X obj 705 263 pack 0 50;
#X obj 705 287 line~;
#X obj 29 269 -~;
#X obj 28 300 *~;
#X obj 16 331 +~;
#X obj 132 240 lop~;
#X obj 106 274 -~;
#X obj 105 309 *~;
#X obj 95 333 +~;
#X obj 214 245 lop~;
#X obj 188 273 -~;
#X obj 187 314 *~;
#X obj 176 339 +~;
#X obj 308 249 lop~;
#X obj 281 274 -~;
#X obj 281 318 *~;
#X obj 258 342 +~;
#X obj 609 379 * 0.125;
#X obj 452 137 95;
#X obj 520 138 85;
#X obj 625 143 3000;
#X obj 696 143 20, f 20;
#X connect 0 0 9 0;
#X connect 0 0 7 0;
#X connect 1 0 70 0;
#X connect 2 0 10 1;
#X connect 3 0 12 1;
#X connect 3 0 13 1;
#X connect 3 0 39 0;
#X connect 4 0 11 1;
#X connect 5 0 13 0;
#X connect 5 0 12 0;
#X connect 5 0 38 0;
#X connect 6 0 27 0;
#X connect 7 0 26 0;
#X connect 8 0 25 0;
#X connect 9 0 24 0;
#X connect 10 0 14 0;
#X connect 10 0 0 0;
#X connect 10 0 22 0;
#X connect 11 0 0 1;
#X connect 11 0 14 1;
#X connect 11 0 23 0;
#X connect 12 0 8 1;
#X connect 12 0 6 1;
#X connect 13 0 9 1;
#X connect 13 0 7 1;
#X connect 14 0 8 0;
#X connect 14 0 6 0;
#X connect 15 0 69 0;
#X connect 16 0 22 1;
#X connect 16 0 23 1;
#X connect 16 0 38 1;
#X connect 16 0 39 1;
#X connect 17 0 4 1;
#X connect 17 0 2 1;
#X connect 17 0 5 1;
#X connect 17 0 3 1;
#X connect 18 0 36 0;
#X connect 18 0 53 1;
#X connect 18 0 55 0;
#X connect 19 0 56 0;
#X connect 19 0 57 1;
#X connect 19 0 59 0;
#X connect 20 0 63 0;
#X connect 20 0 60 0;
#X connect 20 0 61 1;
#X connect 21 0 67 0;
#X connect 21 0 65 1;
#X connect 21 0 64 0;
#X connect 22 0 32 0;
#X connect 23 0 33 0;
#X connect 28 0 68 0;
#X connect 29 0 16 0;
#X connect 30 0 17 0;
#X connect 31 0 45 0;
#X connect 34 0 30 0;
#X connect 35 0 34 0;
#X connect 36 0 53 0;
#X connect 37 0 69 0;
#X connect 37 0 70 0;
#X connect 37 0 71 0;
#X connect 37 0 72 0;
#X connect 38 0 40 0;
#X connect 39 0 41 0;
#X connect 42 0 43 0;
#X connect 42 1 46 0;
#X connect 43 0 46 0;
#X connect 44 0 49 0;
#X connect 45 0 10 0;
#X connect 45 1 11 0;
#X connect 46 0 36 1;
#X connect 46 0 56 1;
#X connect 46 0 60 1;
#X connect 46 0 64 1;
#X connect 47 0 46 0;
#X connect 48 0 72 0;
#X connect 49 0 50 0;
#X connect 50 0 51 0;
#X connect 51 0 52 0;
#X connect 52 0 54 1;
#X connect 52 0 58 1;
#X connect 52 0 62 1;
#X connect 52 0 66 1;
#X connect 53 0 54 0;
#X connect 54 0 55 1;
#X connect 55 0 2 0;
#X connect 56 0 57 0;
#X connect 57 0 58 0;
#X connect 58 0 59 1;
#X connect 59 0 4 0;
#X connect 60 0 61 0;
#X connect 61 0 62 0;
#X connect 62 0 63 1;
#X connect 63 0 5 0;
#X connect 64 0 65 0;
#X connect 65 0 66 0;
#X connect 66 0 67 1;
#X connect 67 0 3 0;
#X connect 68 0 29 0;
#X connect 69 0 28 0;
#X connect 70 0 35 0;
#X connect 71 0 42 0;
#X connect 72 0 44 0;
#X restore 757 1082 pd rev2;
#X obj 163 187 tgl 15 0 empty empty empty 17 7 0 10 -262144 -1 -1 1
1;
#X obj 1243 1105 r volslide;
#X obj 1243 1129 \$1 20;
#X obj 1243 1153 line~;
#X obj 922 1294 *~;
#X obj 834 1296 *~;
#X obj 834 1320 s~ left;
#X obj 922 1318 s~ right;
#X obj 22 -258 r pge;
#X obj 21 -220 s pgo;
#X msg 10 -239 3;
#X obj 726 54 f;
#X obj 726 79 spigot 0;
#X obj 792 9 r openg;
#X obj 795 29 t b b;
#X msg 829 53 1;
#X obj 57 49 r mainclick;
#X msg 92 149 1;
#X obj 119 114 s openg;
#X obj 10 112 t b b b;
#X obj 11 164 s textgo;
#X obj 829 130 s getpit;
#X obj 225 231 s randstopper;
#X msg 209 193 0;
#X obj 58 74 t b b b b b b;
#X obj 260 126 s sublb;
#X floatatom 651 54 5 0 0 0 - - -, f 5;
#X connect 0 0 36 0;
#X connect 0 1 37 0;
#X connect 0 2 38 0;
#X connect 1 0 8 0;
#X connect 2 0 9 0;
#X connect 3 0 7 0;
#X connect 4 0 24 0;
#X connect 5 0 25 0;
#X connect 6 0 26 0;
#X connect 7 0 6 0;
#X connect 8 0 4 0;
#X connect 9 0 5 0;
#X connect 10 0 0 0;
#X connect 11 0 1 0;
#X connect 11 1 2 0;
#X connect 11 2 3 0;
#X connect 12 0 13 0;
#X connect 13 0 14 0;
#X connect 14 0 33 0;
#X connect 15 0 16 0;
#X connect 16 0 17 0;
#X connect 17 0 31 0;
#X connect 17 0 32 0;
#X connect 18 0 19 0;
#X connect 19 0 20 0;
#X connect 20 0 31 0;
#X connect 20 0 32 0;
#X connect 21 0 12 1;
#X connect 21 0 13 1;
#X connect 21 0 14 1;
#X connect 22 0 15 1;
#X connect 22 0 16 1;
#X connect 22 0 17 1;
#X connect 23 0 18 1;
#X connect 23 0 19 1;
#X connect 23 0 20 1;
#X connect 24 0 12 2;
#X connect 24 1 13 2;
#X connect 24 2 14 2;
#X connect 25 0 15 2;
#X connect 25 1 16 2;
#X connect 25 2 17 2;
#X connect 26 0 18 2;
#X connect 26 1 19 2;
#X connect 26 2 20 2;
#X connect 27 0 28 0;
#X connect 28 0 10 0;
#X connect 29 0 97 0;
#X connect 30 0 12 0;
#X connect 30 0 15 0;
#X connect 30 0 18 0;
#X connect 31 0 188 0;
#X connect 31 0 194 0;
#X connect 32 0 188 0;
#X connect 32 0 193 0;
#X connect 33 0 188 0;
#X connect 33 0 193 0;
#X connect 33 0 194 0;
#X connect 34 0 188 0;
#X connect 34 0 193 0;
#X connect 35 0 188 0;
#X connect 35 0 194 0;
#X connect 36 0 21 0;
#X connect 37 0 22 0;
#X connect 38 0 23 0;
#X connect 39 0 27 0;
#X connect 40 0 85 0;
#X connect 42 0 200 0;
#X connect 42 0 215 0;
#X connect 43 0 131 0;
#X connect 44 0 38 1;
#X connect 44 0 37 1;
#X connect 44 0 36 1;
#X connect 45 0 108 0;
#X connect 46 0 77 0;
#X connect 46 1 78 0;
#X connect 46 2 79 0;
#X connect 47 0 54 0;
#X connect 48 0 55 0;
#X connect 49 0 53 0;
#X connect 50 0 70 0;
#X connect 51 0 71 0;
#X connect 52 0 72 0;
#X connect 53 0 52 0;
#X connect 54 0 50 0;
#X connect 55 0 51 0;
#X connect 56 0 46 0;
#X connect 57 0 47 0;
#X connect 57 1 48 0;
#X connect 57 2 49 0;
#X connect 58 0 59 0;
#X connect 59 0 60 0;
#X connect 60 0 33 0;
#X connect 61 0 62 0;
#X connect 62 0 63 0;
#X connect 63 0 35 0;
#X connect 63 0 34 0;
#X connect 64 0 65 0;
#X connect 65 0 66 0;
#X connect 66 0 35 0;
#X connect 66 0 34 0;
#X connect 67 0 58 1;
#X connect 67 0 59 1;
#X connect 67 0 60 1;
#X connect 68 0 61 1;
#X connect 68 0 62 1;
#X connect 68 0 63 1;
#X connect 69 0 64 1;
#X connect 69 0 65 1;
#X connect 69 0 66 1;
#X connect 70 0 58 2;
#X connect 70 1 59 2;
#X connect 70 2 60 2;
#X connect 71 0 61 2;
#X connect 71 1 62 2;
#X connect 71 2 63 2;
#X connect 72 0 64 2;
#X connect 72 1 65 2;
#X connect 72 2 66 2;
#X connect 73 0 74 0;
#X connect 74 0 56 0;
#X connect 75 0 98 0;
#X connect 76 0 58 0;
#X connect 76 0 61 0;
#X connect 76 0 64 0;
#X connect 77 0 67 0;
#X connect 78 0 68 0;
#X connect 79 0 69 0;
#X connect 80 0 93 0;
#X connect 82 0 84 1;
#X connect 83 0 79 1;
#X connect 83 0 78 1;
#X connect 83 0 77 1;
#X connect 84 0 185 0;
#X connect 85 0 39 0;
#X connect 85 0 88 0;
#X connect 85 1 41 0;
#X connect 85 2 107 0;
#X connect 85 3 87 0;
#X connect 86 0 43 0;
#X connect 86 0 128 0;
#X connect 87 0 86 1;
#X connect 88 0 86 1;
#X connect 89 0 90 0;
#X connect 90 0 122 0;
#X connect 91 0 90 1;
#X connect 92 0 90 1;
#X connect 93 0 92 0;
#X connect 93 0 130 0;
#X connect 93 1 81 0;
#X connect 93 2 110 0;
#X connect 93 3 91 0;
#X connect 94 0 177 0;
#X connect 95 0 94 0;
#X connect 96 0 101 0;
#X connect 96 1 149 0;
#X connect 97 0 30 0;
#X connect 98 0 76 0;
#X connect 100 0 40 0;
#X connect 100 1 80 0;
#X connect 100 2 40 0;
#X connect 100 2 80 0;
#X connect 100 3 40 0;
#X connect 100 3 80 0;
#X connect 100 4 80 0;
#X connect 100 4 40 0;
#X connect 101 0 104 0;
#X connect 104 0 100 0;
#X connect 106 0 101 1;
#X connect 106 1 104 1;
#X connect 106 1 121 0;
#X connect 106 2 107 1;
#X connect 106 2 110 1;
#X connect 106 3 109 1;
#X connect 106 3 111 1;
#X connect 107 0 109 0;
#X connect 108 0 183 0;
#X connect 108 1 184 0;
#X connect 108 2 184 0;
#X connect 108 2 183 0;
#X connect 108 3 184 0;
#X connect 108 3 183 0;
#X connect 109 0 45 0;
#X connect 110 0 111 0;
#X connect 111 0 84 0;
#X connect 112 0 106 0;
#X connect 113 0 106 0;
#X connect 114 0 106 0;
#X connect 115 0 106 0;
#X connect 116 0 106 0;
#X connect 117 0 106 0;
#X connect 118 0 106 0;
#X connect 119 0 106 0;
#X connect 120 0 106 0;
#X connect 121 0 123 0;
#X connect 121 0 125 0;
#X connect 121 1 124 0;
#X connect 121 1 126 0;
#X connect 122 0 82 0;
#X connect 123 0 129 0;
#X connect 124 0 129 0;
#X connect 125 0 127 0;
#X connect 126 0 127 0;
#X connect 127 0 128 1;
#X connect 128 0 82 0;
#X connect 129 0 122 1;
#X connect 130 0 73 0;
#X connect 131 0 45 0;
#X connect 131 1 45 1;
#X connect 132 0 160 0;
#X connect 133 0 120 0;
#X connect 133 1 120 0;
#X connect 133 2 119 0;
#X connect 133 3 118 0;
#X connect 133 4 116 0;
#X connect 133 5 117 0;
#X connect 133 6 114 0;
#X connect 133 7 115 0;
#X connect 133 8 113 0;
#X connect 133 9 112 0;
#X connect 133 10 112 0;
#X connect 134 0 135 0;
#X connect 135 0 133 0;
#X connect 136 0 137 0;
#X connect 137 0 180 0;
#X connect 138 0 11 0;
#X connect 138 0 57 0;
#X connect 139 0 138 0;
#X connect 140 0 141 0;
#X connect 141 0 142 0;
#X connect 141 1 143 0;
#X connect 142 0 144 0;
#X connect 142 0 147 1;
#X connect 142 0 148 1;
#X connect 143 0 144 1;
#X connect 144 0 145 0;
#X connect 145 0 146 0;
#X connect 146 0 149 1;
#X connect 148 0 99 0;
#X connect 148 0 164 0;
#X connect 149 0 148 0;
#X connect 150 0 96 0;
#X connect 151 0 150 0;
#X connect 152 0 151 1;
#X connect 153 0 83 0;
#X connect 153 0 44 0;
#X connect 154 0 155 0;
#X connect 155 0 156 0;
#X connect 156 0 157 0;
#X connect 157 0 153 1;
#X connect 158 0 159 0;
#X connect 159 0 161 0;
#X connect 160 0 159 0;
#X connect 160 1 159 1;
#X connect 161 0 134 0;
#X connect 162 0 166 0;
#X connect 163 0 164 1;
#X connect 163 0 165 0;
#X connect 164 0 153 0;
#X connect 164 0 99 0;
#X connect 164 0 178 0;
#X connect 166 0 167 0;
#X connect 167 0 163 0;
#X connect 168 0 178 1;
#X connect 169 0 168 0;
#X connect 169 1 170 0;
#X connect 170 0 171 0;
#X connect 171 0 176 0;
#X connect 171 1 173 0;
#X connect 172 0 182 0;
#X connect 173 0 168 1;
#X connect 175 0 168 1;
#X connect 175 0 179 0;
#X connect 176 0 175 0;
#X connect 177 0 151 0;
#X connect 177 1 169 0;
#X connect 178 0 95 1;
#X connect 180 0 181 0;
#X connect 181 0 139 0;
#X connect 182 0 170 1;
#X connect 182 0 174 0;
#X connect 183 0 29 0;
#X connect 184 0 29 0;
#X connect 185 0 186 0;
#X connect 185 1 187 0;
#X connect 185 2 187 0;
#X connect 185 2 186 0;
#X connect 185 3 187 0;
#X connect 185 3 186 0;
#X connect 186 0 75 0;
#X connect 187 0 75 0;
#X connect 188 0 193 0;
#X connect 188 0 194 0;
#X connect 188 1 193 0;
#X connect 188 1 194 0;
#X connect 188 2 193 0;
#X connect 188 3 194 0;
#X connect 189 0 95 0;
#X connect 190 0 191 0;
#X connect 191 0 192 0;
#X connect 192 0 193 1;
#X connect 192 0 194 1;
#X connect 193 0 196 0;
#X connect 194 0 195 0;
#X connect 197 0 199 0;
#X connect 199 0 198 0;
#X connect 200 0 201 0;
#X connect 201 0 86 0;
#X connect 202 0 203 0;
#X connect 203 0 210 0;
#X connect 203 1 204 0;
#X connect 204 0 201 1;
#X connect 205 0 213 0;
#X connect 206 0 189 0;
#X connect 208 0 209 0;
#X connect 208 2 206 0;
#X connect 212 0 211 0;
#X connect 213 0 208 0;
#X connect 213 1 207 0;
#X connect 213 2 212 0;
#X connect 213 5 214 0;
#X restore 319 152 pd g;
#X obj 1 1 cnv 15 300 150 placeh22 title Forest (an intertwining)
22 12 0 18 -233017 -66577 0;
#X text 92 26 click to start;
#X obj 1 151 cnv 15 300 100 placeh35675543456758 line1 you are a :
12 12 0 14 -233017 -66577 0;
#X obj 1 176 cnv 15 300 100 placeh356756 line2 empty 12 12 0 14 -233017
-159808 0;
#X obj 26 247 hsl 250 20 0 2 0 1 volslide qweasfd volume -2 -8 0 10
-262144 -1 -1 11950 1;
#X obj 102 45 bng 99 250 50 0 mainclick lkjghxfzdxcbv empty 17 7 0
10 -262144 -1 -1;
#N canvas 648 25 786 758 c 1;
#N canvas 490 25 1695 1005 title 0;
#X obj 39 692 text define label1;
#X obj 547 313 text set label1;
#X obj 488 686 text get label1;
#X obj 507 353 list length;
#X obj 505 282 t l l;
#X floatatom 507 377 5 0 0 0 - - -, f 5;
#X obj 508 447 t b f;
#X obj 52 111 r 2ndlabel;
#X msg 118 222 100;
#X obj 226 521 t b f;
#X obj 52 287 list length;
#X msg 226 557 0;
#X obj 84 267 text set label2;
#X obj 39 673 text define label2;
#X obj 242 700 text get label2;
#X msg 654 151 \; line1 label \$1;
#X msg 813 156 \; title label \$1;
#X msg 531 942 \; line2 label \$1;
#X obj 531 898 makefilename;
#X obj 52 239 t l l;
#X obj 52 175 t l b b b;
#X obj 39 654 text define names;
#X msg 546 155 label \$1;
#X msg 546 116 symbol empty;
#X obj 546 185 send line2;
#X msg 1141 144 read creatures.txt;
#X obj 1141 172 text define -k creatures;
#A set fuschia crocus bluebell snowdrop daffodil forget-me-not poppy
\, hive of bees colony of termites army of fire ants
loveliness of ladybugs swarm of wasps cloud of fruit flies
chorus of cicadas \, school of minnows school of sardines
school of rainbowfish school of goldfish \, matsutake trooping funnel
destroying angel fly agaric puffball shiitake truffle chanterelle
\, sequoia elm beech birch oak willow gingko sycamore banyan larch
bristlecone pine aspen \, aardvark alpaca armadillo capybara caracal
echidna marmot platypus \, ooze of amoebas galaxy of sea stars
bloom of jellyfish;
#X obj 505 252 text get creatures;
#X obj 1141 93 r sublb;
#X obj 438 22 t b b b b b, f 22;
#X obj 411 49 s pge;
#X obj 396 72 r pgo;
#X obj 307 29 bng 15 250 50 0 empty empty empty 17 7 0 10 -262144 -1
-1;
#X obj 438 -2 r titler;
#X obj 53 324 t b b f;
#X obj 191 489 %;
#X obj 59 408 random 20;
#X obj 59 433 +;
#X msg 654 118 symbol you are a :;
#X obj 69 513 r textgo;
#X msg 538 811 set %s \$1;
#X floatatom 211 404 5 0 0 0 - - -, f 5;
#X floatatom 80 582 5 0 0 0 - - -, f 5;
#X msg 296 531 1;
#X obj 503 586 %;
#X obj 508 486 random 20;
#X obj 520 542 +;
#X obj 503 611 t b f;
#X msg 461 642 0;
#X obj 194 343 r creaturesel;
#X obj 646 500 r creaturesel;
#X obj 189 676 t f f;
#X obj 188 644 spigot 1;
#X symbolatom 174 830 0 0 0 0 - - -;
#X obj 174 795 makefilename %.1s;
#X obj 174 854 sel a e i o u;
#X msg 153 927 \; line1 label \$1;
#X msg 153 894 symbol you are an:;
#X msg 814 119 symbol Forest (an intertwining);
#X connect 2 0 40 0;
#X connect 3 0 5 0;
#X connect 4 0 3 0;
#X connect 4 1 1 0;
#X connect 5 0 6 0;
#X connect 6 0 45 0;
#X connect 6 1 44 1;
#X connect 7 0 20 0;
#X connect 8 0 12 1;
#X connect 9 1 14 1;
#X connect 10 0 34 0;
#X connect 11 0 52 0;
#X connect 14 0 18 0;
#X connect 14 0 54 0;
#X connect 18 0 17 0;
#X connect 19 0 10 0;
#X connect 19 1 12 0;
#X connect 20 0 19 0;
#X connect 20 1 8 0;
#X connect 22 0 24 0;
#X connect 23 0 22 0;
#X connect 25 0 26 0;
#X connect 27 0 4 0;
#X connect 28 0 25 0;
#X connect 29 0 30 0;
#X connect 29 1 23 0;
#X connect 29 2 38 0;
#X connect 29 3 58 0;
#X connect 31 0 27 0;
#X connect 32 0 29 0;
#X connect 33 0 29 0;
#X connect 34 0 36 0;
#X connect 34 2 35 1;
#X connect 34 2 41 0;
#X connect 35 0 9 0;
#X connect 35 0 42 0;
#X connect 36 0 37 0;
#X connect 37 0 35 0;
#X connect 38 0 15 0;
#X connect 39 0 11 0;
#X connect 40 0 18 0;
#X connect 43 0 14 1;
#X connect 44 0 47 0;
#X connect 45 0 46 0;
#X connect 46 0 44 0;
#X connect 47 0 48 0;
#X connect 47 1 2 1;
#X connect 48 0 2 0;
#X connect 49 0 37 1;
#X connect 50 0 46 1;
#X connect 51 0 52 1;
#X connect 51 1 14 0;
#X connect 52 0 51 0;
#X connect 53 0 55 0;
#X connect 54 0 53 0;
#X connect 55 0 57 0;
#X connect 55 1 57 0;
#X connect 55 2 57 0;
#X connect 55 3 57 0;
#X connect 55 4 57 0;
#X connect 57 0 56 0;
#X connect 58 0 16 0;
#X restore 5 99 pd title;
#N canvas 1192 284 450 300 counter 0;
#N canvas 1078 62 602 834 getter 0;
#X obj 237 162 moses, f 10;
#X obj 237 122 random 10, f 6;
#X obj 52 88 bng 15 250 50 0 empty empty empty 17 7 0 10 -262144 -1
-1;
#X obj 324 565 tabread pit1;
#X msg 465 525 set pit1;
#X msg 398 525 set pit2;
#X obj 163 94 t b b, f 11;
#X obj 282 608 sel 0;
#X floatatom 155 641 5 0 0 0 - - -, f 5;
#X obj 163 46 r getpit;
#X obj 314 637 s pit;
#X obj 304 128 r tensec;
#X obj 96 159 random 100;
#X obj 111 224 t f f;
#X obj 51 385 sel 0;
#X obj 137 389 sel 1;
#X obj 162 274 f;
#X msg 337 535 bang;
#X obj 111 286 % 3;
#X obj 381 198 r mode;
#X obj 381 222 sel a b c d e f;
#X msg 385 312 0;
#X msg 462 315 1;
#X msg 498 315 2;
#X msg 424 315 1;
#X obj 385 268 bng 15 250 50 0 empty empty empty 17 7 0 10 -262144
-1 -1;
#X obj 429 272 bng 15 250 50 0 empty empty empty 17 7 0 10 -262144
-1 -1;
#X obj 471 269 bng 15 250 50 0 empty empty empty 17 7 0 10 -262144
-1 -1;
#X connect 0 0 5 0;
#X connect 0 1 4 0;
#X connect 1 0 0 0;
#X connect 2 0 6 0;
#X connect 3 0 7 0;
#X connect 4 0 3 0;
#X connect 5 0 3 0;
#X connect 6 0 12 0;
#X connect 6 1 1 0;
#X connect 7 0 6 0;
#X connect 7 1 8 0;
#X connect 7 1 10 0;
#X connect 9 0 6 0;
#X connect 11 0 0 1;
#X connect 12 0 13 0;
#X connect 13 0 18 0;
#X connect 13 1 16 1;
#X connect 14 0 16 0;
#X connect 14 1 15 0;
#X connect 15 0 16 0;
#X connect 15 1 17 0;
#X connect 16 0 3 0;
#X connect 17 0 6 0;
#X connect 18 0 14 0;
#X connect 19 0 20 0;
#X connect 20 0 25 0;
#X connect 20 1 26 0;
#X connect 20 2 27 0;
#X connect 20 3 25 0;
#X connect 20 4 26 0;
#X connect 20 5 27 0;
#X connect 21 0 14 1;
#X connect 22 0 15 1;
#X connect 23 0 15 1;
#X connect 24 0 14 1;
#X connect 25 0 21 0;
#X connect 25 0 22 0;
#X connect 26 0 21 0;
#X connect 26 0 23 0;
#X connect 27 0 24 0;
#X connect 27 0 23 0;
#X restore 99 27 pd getter;
#N canvas 1035 407 1087 1005 shifter 0;
#X obj 194 253 metro 1000;
#X obj 195 300 f;
#X obj 228 301 + 1;
#X floatatom 26 353 5 0 0 0 - - -, f 5;
#X obj 194 223 tgl 15 0 empty empty empty 17 7 0 10 -262144 -1 -1 1
1;
#X floatatom 10 392 5 0 0 0 - - -, f 5;
#X floatatom 19 483 5 0 0 0 - - -, f 5;
#X obj 449 557 + 1;
#X obj 262 350 i, f 2;
#X obj 262 394 change;
#N canvas 0 22 450 278 (subpatch) 0;
#X array pit2 100 float 2;
#X coords 0 100 100 0 240 200 1 0 0;
#X restore 661 299 graph;
#N canvas 0 22 450 278 (subpatch) 0;
#X array pit1 100 float 2;
#X coords 0 100 100 0 240 200 1 0 0;
#X restore 661 79 graph;
#X obj 348 842 array set pit1;
#X obj 535 851 array set pit2;
#X obj 261 528 t f b;
#X msg 523 546 \; pit1 const 0 \; pit2 const 0;
#X obj 213 691 f, f 2;
#X obj 235 691 - 1;
#X obj 392 702 f, f 2;
#X obj 416 702 - 1;
#X obj 167 426 s tensec;
#X obj 262 758 route 0;
#X obj 449 755 route 0;
#X obj 5 767 print a;
#X obj 194 147 t b b, f 15;
#X msg 194 171 1;
#X msg 318 372 0;
#X obj 4 119 bng 15 250 50 0 empty empty empty 17 7 0 10 -262144 -1
-1;
#X obj 449 662 t f f;
#X obj 261 647 t f f;
#X obj 4 162 bng 15 250 50 0 empty empty empty 17 7 0 10 -262144 -1
-1;
#X floatatom 4 210 5 0 0 0 - - -, f 5;
#X obj 261 622 % 18, f 6;
#X obj 300 566 r mainlength;
#X obj 449 638 % 18, f 6;
#X obj 308 791 list split 1;
#X obj 495 794 list split 1;
#X obj 488 948 line;
#X msg 496 915 \$1 10000;
#X obj 448 988 s mainctrl;
#X obj 497 879 * 0.015;
#X obj 193 92 del 10;
#X obj 664 841 list length;
#X floatatom 649 892 5 0 0 0 - - -, f 5;
#X obj 669 867 s pit2length;
#X msg 52 245 10;
#X msg 98 240 20;
#X obj 195 376 % 6;
#X obj 262 327 / 6;
#X obj 441 18 r starttime;
#X floatatom 151 713 5 0 0 0 - - -, f 5;
#X obj 557 602 r textsetter;
#X obj 438 293 r cyclelength;
#X obj 767 712 text get inits;
#X obj 838 517 r sublb;
#X msg 910 592 read inits.txt;
#X obj 838 541 t b b;
#X obj 759 591 text size inits;
#X obj 759 615 until;
#X obj 759 639 f;
#X obj 792 638 + 1;
#X obj 931 807 print ini;
#X obj 300 591 text size;
#X obj 910 619 text define -k inits;
#A set cyclelength 10 \; compset threshold -16 \; compset ratio 3 \;
compset response 40 \; compset gain 0 \; compset rmspeak 0 \; compset
lookahead 0 \;;
#X obj 261 721 text get;
#X obj 450 729 text get;
#X obj 429 169 zexy;
#X obj 476 157 time, f 12;
#X obj 488 195 * 60;
#X obj 512 221 +;
#X floatatom 512 245 5 0 0 0 - - -, f 5;
#X obj 376 141 tgl 15 0 empty empty empty 17 7 0 10 -262144 -1 -1 1
1;
#X obj 441 86 sel 237;
#X obj 441 128 del 10;
#X obj 193 68 loadbang;
#X msg 792 805 \; \$1 \$2 \$3;
#X msg 385 321 \$1;
#X connect 0 0 1 0;
#X connect 1 0 2 0;
#X connect 1 0 3 0;
#X connect 1 0 47 0;
#X connect 1 0 48 0;
#X connect 2 0 1 1;
#X connect 4 0 0 0;
#X connect 7 0 34 0;
#X connect 8 0 9 0;
#X connect 9 0 14 0;
#X connect 9 0 6 0;
#X connect 14 0 7 0;
#X connect 14 0 32 0;
#X connect 14 1 15 0;
#X connect 16 0 17 0;
#X connect 17 0 16 1;
#X connect 17 0 50 0;
#X connect 17 0 64 0;
#X connect 18 0 19 0;
#X connect 19 0 18 1;
#X connect 19 0 65 0;
#X connect 21 0 16 0;
#X connect 21 1 35 0;
#X connect 22 0 18 0;
#X connect 22 1 36 0;
#X connect 24 0 25 0;
#X connect 24 1 26 0;
#X connect 25 0 4 0;
#X connect 26 0 14 0;
#X connect 27 0 24 0;
#X connect 28 0 65 0;
#X connect 28 1 18 1;
#X connect 29 0 64 0;
#X connect 29 1 16 1;
#X connect 32 0 29 0;
#X connect 33 0 62 0;
#X connect 34 0 28 0;
#X connect 35 1 12 0;
#X connect 36 0 40 0;
#X connect 36 1 13 0;
#X connect 36 1 42 0;
#X connect 37 0 39 0;
#X connect 38 0 37 0;
#X connect 40 0 38 0;
#X connect 41 0 24 0;
#X connect 42 0 43 0;
#X connect 42 0 44 0;
#X connect 45 0 1 0;
#X connect 46 0 1 0;
#X connect 47 0 20 0;
#X connect 47 0 5 0;
#X connect 48 0 8 0;
#X connect 49 0 1 1;
#X connect 49 0 72 0;
#X connect 51 0 62 1;
#X connect 51 0 64 3;
#X connect 51 0 65 3;
#X connect 52 0 76 0;
#X connect 53 0 75 0;
#X connect 53 0 61 0;
#X connect 54 0 56 0;
#X connect 55 0 63 0;
#X connect 56 0 57 0;
#X connect 56 1 55 0;
#X connect 57 0 58 0;
#X connect 58 0 59 0;
#X connect 59 0 60 0;
#X connect 59 0 53 0;
#X connect 60 0 59 1;
#X connect 62 0 32 1;
#X connect 62 0 34 1;
#X connect 64 0 21 0;
#X connect 64 0 23 0;
#X connect 65 0 22 0;
#X connect 65 0 23 0;
#X connect 67 1 68 0;
#X connect 67 2 69 1;
#X connect 68 0 69 0;
#X connect 69 0 70 0;
#X connect 70 0 1 1;
#X connect 72 0 71 0;
#X connect 72 0 73 0;
#X connect 73 0 67 0;
#X connect 74 0 41 0;
#X connect 76 0 48 1;
#X connect 76 0 47 1;
#X restore 99 46 pd shifter;
#N canvas 1441 123 793 1263 setter 0;
#X obj 383 46 r sublb;
#X obj 265 72 bng 15 250 50 0 empty empty empty 17 7 0 10 -262144 -1
-1;
#X obj 349 225 t b b b;
#X obj 101 742 s mainlength;
#X obj 290 593 sel 0 1 2 3 4;
#X obj 531 330 t b b;
#X obj 313 346 r isbass;
#X obj 313 370 sel 1;
#X msg 313 394 5;
#X msg 917 464 read one.txt;
#X msg 1046 474 read two.txt;
#X msg 1176 463 read three.txt;
#X msg 286 990 symbol one;
#X msg 373 990 symbol two;
#X msg 493 985 symbol three;
#X obj 916 517 text define -k one;
#A set 71 57 58 60 62 64 \, 71 58 60 62 \, 71 58 60 62 64 \, 84 60
62 64 65 \, 84 60 62 64 65 67 \, 84 62 64 65 67 69 \, 71 58 62 65 67
69 \, 61 55 58 62 65 69 \, 71 55 58 62 65 69 72 \, 84 55 58 62 65 69
72 76 \, 98 55 58 62 65 69 72 76 \, 84 55 58 62 65 69 72 \, 84 55 58
62 65 72 \, 84 55 58 62 65 72 75 \, 84 55 58 62 65 68 72 75 \, 84 65
68 72 75 77 79 80 \, 113 70 72 74 75 77 79 80 \, 39 70 72 74 75 77
79 80 \, 113 70 72 74 75 77 79 80 \, 39 70 72 74 75 77 79 80 \, 39
75 77 79 80 \, 61 77 80 \, 61 80 \, 71 78 80 \, 71 77 78 80 \, 84 75
77 78 80 \, 84 71 75 77 78 80 \, 98 70 71 75 77 78 80 \, 98 65 66 70
71 75 77 78 80 \, 84 59 61 65 66 70 71 75 77 78 80 \, 84 59 61 63 65
66 70 71 75 77 78 80 \, 71 59 61 63 65 66 70 71 75 \, 71 59 61 63 65
66 \, 71 59 61 63 \, 84 59 61 63 64 66 \, 98 59 61 63 64 66 68 71 \,
84 64 66 68 71 73 \, 71 68 71 73 \, 61 71 73 \, 61 71 73 \, 61 71 73
\, 61 69 71 \, 61 69 71 \, 39 67 69 71 72 \, 39 63 67 71 74 \, 39 65
67 71 72 \, 39 65 67 72 \, 39 62 65 67 \, 61 60 62 65 \, 61 58 60 62
\,;
#X obj 1046 517 text define -k two;
#A set 84 57 58 60 62 64 \, 84 57 58 60 62 64 \, 71 58 60 62 \, 71
57 58 60 62 \, 84 55 57 58 60 62 \, 84 53 55 57 58 60 \, 71 53 55 57
60 64 \, 61 53 57 60 64 67 \, 71 53 57 60 64 67 70 \, 84 53 57 60 64
67 70 74 \, 98 53 57 60 64 67 70 74 \, 84 53 57 60 67 70 74 \, 84 53
60 67 70 74 \, 84 53 60 63 67 70 74 \, 84 53 56 60 63 67 70 74 \, 83
48 50 51 53 56 60 63 \, 39 48 50 51 53 55 56 58 \, 113 48 50 51 53
55 56 58 \, 39 48 50 51 53 55 56 58 \, 113 48 50 51 53 55 56 58 \,
84 53 55 56 58 \, 61 56 58 \, 39 56 58 \, 39 56 58 \, 39 56 59 \, 39
59 61 \, 39 59 61 \, 39 59 61 63 \, 39 59 61 63 \, 39 59 61 63 \, 39
59 61 63 \, 39 59 61 63 \, 61 59 61 63 \, 71 59 61 63 \, 84 54 56 59
61 63 \, 98 51 52 54 56 59 61 63 \, 84 51 52 54 56 59 \, 71 51 52 54
\, 61 51 52 \, 61 51 52 \, 61 51 52 \, 61 51 55 \, 61 51 55 \, 39 50
51 55 57 \, 61 50 53 57 60 \, 71 51 53 57 60 \, 84 50 51 53 57 60 \,
98 50 53 55 57 60 \, 113 50 53 57 58 60 \, 98 53 57 58 60 62 \,;
#X obj 1176 517 text define -k three;
#A set 61 50 \, 61 45 \, 61 48 \, 61 43 \, 61 45 \, 71 38 \, 71 43
\, 71 41 \, 71 36 \, 71 38 \, 71 43 \, 71 36 \, 84 34 \, 84 41 \, 84
39 \, 84 36 \, 98 32 \, 98 34 \, 98 38 \, 84 39 \, 71 48 \, 20 41 \,
20 41 \, 20 41 \, 20 46 \, 20 46 \, 20 46 \, 20 37 \, 20 37 \, 20 37
\, 20 44 \, 20 44 \, 20 44 \, 20 33 \, 61 33 \, 71 33 \, 84 33 \, 98
33 \, 113 33 \, 98 33 \, 84 33 \, 71 33 \, 61 33 \, 39 29 \, 39 29
\, 39 29 \, 39 36 \, 39 36 \, 39 43 \, 39 43 \,;
#X obj 376 1090 s textsetter;
#X obj 289 533 t b f;
#X obj 289 463 % 4;
#X obj 205 334 t b f;
#X obj 205 359 random 20;
#X obj 205 384 +;
#X obj 205 309 r pitcsel;
#X obj 501 819 s bassgo;
#X connect 0 0 2 0;
#X connect 0 0 9 0;
#X connect 0 0 11 0;
#X connect 0 0 10 0;
#X connect 1 0 2 0;
#X connect 2 1 5 0;
#X connect 4 0 12 0;
#X connect 4 1 12 0;
#X connect 4 2 13 0;
#X connect 4 3 13 0;
#X connect 4 4 14 0;
#X connect 4 4 25 0;
#X connect 6 0 7 0;
#X connect 7 0 8 0;
#X connect 8 0 20 1;
#X connect 9 0 15 0;
#X connect 10 0 16 0;
#X connect 11 0 17 0;
#X connect 12 0 18 0;
#X connect 13 0 18 0;
#X connect 14 0 18 0;
#X connect 19 0 3 0;
#X connect 19 1 4 0;
#X connect 20 0 19 0;
#X connect 21 0 22 0;
#X connect 21 1 23 1;
#X connect 22 0 23 0;
#X connect 23 0 20 0;
#X connect 24 0 21 0;
#X restore 99 8 pd setter;
#X restore 5 119 pd counter;
#N canvas 0 25 1669 1005 mode 0;
#X obj 560 886 s mchordsize;
#X obj 486 886 s mdensity;
#X obj 433 886 s maggr;
#X obj 359 886 s mbreadth;
#X obj 295 883 s mroc;
#X obj 235 883 s mactiv;
#N canvas 132 25 642 779 a 0;
#X obj 80 681 outlet;
#X obj 79 414 random 100;
#X obj 79 467 + 0, f 5;
#X obj 80 491 pack f f;
#X obj 80 633 i;
#X obj 79 364 metro 1000, f 21;
#X obj 79 515 line;
#X obj 79 283 unpack f f f, f 21;
#X obj 133 317 -;
#X obj 146 342 * -1;
#X obj 79 320 t b f;
#X obj 79 241 r sactiv;
#X obj 106 551 r mainctrl;
#X obj 88 584 clip 0 100;
#X obj 88 568 * 1;
#X connect 1 0 2 0;
#X connect 2 0 3 0;
#X connect 3 0 6 0;
#X connect 4 0 0 0;
#X connect 5 0 1 0;
#X connect 6 0 14 0;
#X connect 7 0 10 0;
#X connect 7 0 8 0;
#X connect 7 1 8 1;
#X connect 7 2 5 1;
#X connect 7 2 3 1;
#X connect 8 0 9 0;
#X connect 9 0 1 1;
#X connect 10 0 5 0;
#X connect 10 1 2 1;
#X connect 11 0 7 0;
#X connect 12 0 14 1;
#X connect 13 0 4 0;
#X connect 14 0 13 0;
#X restore 234 729 pd a;
#N canvas 132 25 642 692 b 0;
#X obj 74 648 outlet;
#X obj 79 414 random 100;
#X obj 79 467 + 0, f 5;
#X obj 80 491 pack f f;
#X obj 79 364 metro 1000, f 21;
#X obj 79 515 line;
#X obj 79 283 unpack f f f, f 21;
#X obj 133 317 -;
#X obj 146 342 * -1;
#X obj 79 320 t b f;
#X obj 79 241 r sbreadth;
#X obj 106 551 r mainctrl;
#X obj 88 584 clip 0 100;
#X obj 88 568 * 1;
#X obj 102 617 i;
#X connect 1 0 2 0;
#X connect 2 0 3 0;
#X connect 3 0 5 0;
#X connect 4 0 1 0;
#X connect 5 0 13 0;
#X connect 6 0 9 0;
#X connect 6 0 7 0;
#X connect 6 1 7 1;
#X connect 6 2 4 1;
#X connect 6 2 3 1;
#X connect 7 0 8 0;
#X connect 8 0 1 1;
#X connect 9 0 4 0;
#X connect 9 1 2 1;
#X connect 10 0 6 0;
#X connect 11 0 13 1;
#X connect 12 0 14 0;
#X connect 13 0 12 0;
#X connect 14 0 0 0;
#X restore 363 732 pd b;
#N canvas 132 25 642 692 agg 0;
#X obj 79 644 outlet;
#X obj 79 414 random 100;
#X obj 79 467 + 0, f 5;
#X obj 80 491 pack f f;
#X obj 79 364 metro 1000, f 21;
#X obj 79 515 line;
#X obj 79 283 unpack f f f, f 21;
#X obj 133 317 -;
#X obj 146 342 * -1;
#X obj 79 320 t b f;
#X obj 79 241 r saggr;
#X obj 120 531 r mainctrl;
#X obj 89 584 clip 0 100;
#X obj 81 558 * 1;
#X obj 89 608 i;
#X floatatom 210 571 5 0 0 0 - - -, f 5;
#X floatatom 167 641 5 0 0 0 - - -, f 5;
#X floatatom 245 442 5 0 0 0 - - -, f 5;
#X floatatom 280 539 5 0 0 0 - - -, f 5;
#X connect 1 0 2 0;
#X connect 1 0 17 0;
#X connect 2 0 3 0;
#X connect 2 0 18 0;
#X connect 3 0 5 0;
#X connect 4 0 1 0;
#X connect 5 0 13 0;
#X connect 6 0 9 0;
#X connect 6 0 7 0;
#X connect 6 1 7 1;
#X connect 6 2 4 1;
#X connect 6 2 3 1;
#X connect 7 0 8 0;
#X connect 8 0 1 1;
#X connect 9 0 4 0;
#X connect 9 1 2 1;
#X connect 10 0 6 0;
#X connect 11 0 13 1;
#X connect 11 0 15 0;
#X connect 12 0 14 0;
#X connect 13 0 12 0;
#X connect 14 0 0 0;
#X connect 14 0 16 0;
#X restore 437 728 pd agg;
#N canvas 120 25 642 692 d 0;
#X obj 79 679 outlet;
#X obj 83 330 random 100;
#X obj 83 383 + 0, f 5;
#X obj 84 407 pack f f;
#X obj 82 641 i;
#X obj 83 280 metro 1000, f 21;
#X obj 83 431 line;
#X obj 83 199 unpack f f f, f 21;
#X obj 133 317 -;
#X obj 146 342 * -1;
#X obj 83 236 t b f;
#X obj 83 157 r sdensity;
#X obj 101 464 r cdensity;
#X obj 101 488 / 100;
#X obj 170 561 r mainctrl;
#X obj 152 594 clip 0 100;
#X obj 152 578 * 1;
#X obj 83 518 * 1;
#X connect 1 0 2 0;
#X connect 2 0 3 0;
#X connect 3 0 6 0;
#X connect 4 0 0 0;
#X connect 5 0 1 0;
#X connect 6 0 17 0;
#X connect 7 0 10 0;
#X connect 7 0 8 0;
#X connect 7 1 8 1;
#X connect 7 2 5 1;
#X connect 7 2 3 1;
#X connect 8 0 9 0;
#X connect 9 0 1 1;
#X connect 10 0 5 0;
#X connect 10 1 2 1;
#X connect 11 0 7 0;
#X connect 12 0 13 0;
#X connect 13 0 17 1;
#X connect 14 0 16 1;
#X connect 15 0 4 0;
#X connect 16 0 15 0;
#X connect 17 0 16 0;
#X restore 490 730 pd d;
#N canvas 132 25 642 692 c 0;
#X obj 81 678 outlet;
#X obj 79 414 random 100;
#X obj 79 467 + 0, f 5;
#X obj 80 491 pack f f;
#X obj 81 630 i;
#X obj 79 364 metro 1000, f 21;
#X obj 79 515 line;
#X obj 79 283 unpack f f f, f 21;
#X obj 133 317 -;
#X obj 146 342 * -1;
#X obj 79 320 t b f;
#X obj 79 241 r schordsize;
#X obj 106 551 r mainctrl;
#X obj 88 568 * 1;
#X obj 89 596 clip 1 100;
#X connect 1 0 2 0;
#X connect 2 0 3 0;
#X connect 3 0 6 0;
#X connect 4 0 0 0;
#X connect 5 0 1 0;
#X connect 6 0 13 0;
#X connect 7 0 10 0;
#X connect 7 0 8 0;
#X connect 7 1 8 1;
#X connect 7 2 5 1;
#X connect 7 2 3 1;
#X connect 8 0 9 0;
#X connect 9 0 1 1;
#X connect 10 0 5 0;
#X connect 10 1 2 1;
#X connect 11 0 7 0;
#X connect 12 0 13 1;
#X connect 13 0 14 0;
#X connect 14 0 4 0;
#X restore 564 735 pd c;
#X obj 296 731 r sroc;
#X obj 105 740 s getpit;
#X obj 108 789 r pit;
#X msg 239 913 /100 \, \, lo hi (s) \, \, /100 \, \, \, /100 /100 no.
;
#N canvas 120 25 642 692 p 0;
#X obj 79 679 outlet;
#X obj 83 330 random 100;
#X obj 83 383 + 0, f 5;
#X obj 84 407 pack f f;
#X obj 82 641 i;
#X obj 83 280 metro 1000, f 21;
#X obj 83 431 line;
#X obj 83 199 unpack f f f, f 21;
#X obj 133 317 -;
#X obj 146 342 * -1;
#X obj 83 236 t b f;
#X obj 101 464 r cdensity;
#X obj 101 488 / 100;
#X obj 170 561 r mainctrl;
#X obj 152 594 clip 0 100;
#X obj 152 578 * 1;
#X obj 83 518 * 1;
#X obj 83 157 r spauses;
#X connect 1 0 2 0;
#X connect 2 0 3 0;
#X connect 3 0 6 0;
#X connect 4 0 0 0;
#X connect 5 0 1 0;
#X connect 6 0 16 0;
#X connect 7 0 10 0;
#X connect 7 0 8 0;
#X connect 7 1 8 1;
#X connect 7 2 5 1;
#X connect 7 2 3 1;
#X connect 8 0 9 0;
#X connect 9 0 1 1;
#X connect 10 0 5 0;
#X connect 10 1 2 1;
#X connect 11 0 12 0;
#X connect 12 0 16 1;
#X connect 13 0 15 1;
#X connect 14 0 4 0;
#X connect 15 0 14 0;
#X connect 16 0 15 0;
#X connect 17 0 7 0;
#X restore 696 730 pd p;
#X obj 692 886 s mpauses;
#X obj 278 238 spigot 1;
#X msg 1241 431 read modes.txt;
#X obj 278 398 text get modes;
#X obj 936 333 text size modes;
#X obj 1244 485 text define -k modes;
#A set 40 60 1.5 4 80 100 80 100 0 20 1 2 50 80 \; 0 40 1 2 50 100
0 7 0 20 5 7 20 50 \; 80 99 0.1 1 60 70 77 99 88 99 1 1 5 15 \; 0 100
0.1 15 0 100 0 100 0 100 1 10 0 100 \; 70 100 2 4 0 25 40 60 90 100
2 3 20 80 \; 99 100 3 7 90 100 0 20 0 25 3 7 20 40 \;;
#X obj 1223 2 r starttime;
#X obj 1386 183 s pitcsel;
#X obj 277 190 + 0;
#X obj 620 161 r bassgo;
#X msg 626 210 0;
#X obj 282 295 % 8;
#X obj 236 351 t f f;
#X obj 131 402 text get moods;
#X msg 1471 384 read moods.txt;
#X obj 1474 438 text define -k moods;
#A set determined imperious domineering resolute adamant steadfast
\; languorous sedate luxurious dawdling leisurely unhurried relaxed
lazy gentle \; vibrant shocking effervescent energetic \; chaotic unpredictable
wild mercurial erratic \; thoughtful pensive reflective \; restless
fidgety anxious worried \;;
#X obj 123 473 s 2ndlabel;
#X msg 289 505 \; sactiv \$1 \$2 10000 \; sroc \$3 \$4 \; sbreadth
\$5 \$6 1000 \; saggr \$7 \$8 1000 \; sdensity \$9 \$10 10000 \; schordsize
\$11 \$12 10000 \; spauses \$13 \$14 10000 \;, f 48;
#X obj 272 131 random 20;
#X obj 823 132 t b f b;
#X obj 1392 136 s titler;
#X obj 1397 99 s moodnumb;
#X obj 1511 163 s creaturesel;
#X obj 1499 72 s sublb;
#X obj 1182 30 t f b f b b f b;
#X floatatom 138 366 5 0 0 0 - - -, f 5;
#X obj 743 130 t b b;
#X obj 294 79 s textgo;
#X obj 909 39 r mainclick;
#X obj 1001 104 f;
#X connect 6 0 5 0;
#X connect 7 0 3 0;
#X connect 8 0 2 0;
#X connect 9 0 1 0;
#X connect 10 0 0 0;
#X connect 11 0 4 0;
#X connect 15 0 16 0;
#X connect 17 0 27 0;
#X connect 18 0 21 0;
#X connect 19 0 33 0;
#X connect 20 0 27 1;
#X connect 22 0 40 0;
#X connect 24 0 17 0;
#X connect 25 0 26 0;
#X connect 26 0 17 1;
#X connect 26 0 28 0;
#X connect 27 0 28 0;
#X connect 28 0 29 0;
#X connect 28 0 41 0;
#X connect 28 1 19 0;
#X connect 29 0 32 0;
#X connect 30 0 31 0;
#X connect 34 0 24 0;
#X connect 35 0 42 0;
#X connect 35 1 24 1;
#X connect 35 2 20 0;
#X connect 35 2 18 0;
#X connect 35 2 30 0;
#X connect 40 0 45 1;
#X connect 40 2 23 0;
#X connect 40 3 36 0;
#X connect 40 4 37 0;
#X connect 40 5 38 0;
#X connect 40 6 39 0;
#X connect 42 0 43 0;
#X connect 42 1 34 0;
#X connect 44 0 45 0;
#X connect 45 0 35 0;
#X restore 5 138 pd mode;
#N canvas 880 429 1680 983 output 1;
#X obj 30 22 r~ left;
#X obj 793 878 dac~;
#X obj 249 825 lop~ 2700;
#X obj 249 703 clip~ -1 1;
#X obj 1225 860 lop~ 2700;
#X obj 1225 738 clip~ -1 1;
#X obj 1006 57 r~ right;
#X obj 214 627 *~ 1;
#X obj 1225 692 *~ 1;
#N canvas 929 346 1631 1066 leftcomp 0;
#X obj 252 640 outlet~;
#X obj 252 506 *~;
#X obj 252 614 *~;
#N canvas 0 22 450 300 delWrite 0;
#X obj 68 80 delwrite~ leftchan-comp 500;
#X obj 68 39 inlet~;
#X obj 68 156 outlet~;
#X connect 1 0 0 0;
#X restore 85 289 pd delWrite;
#X obj 481 393 dbtorms;
#X obj 533 364 /;
#X obj 533 333 swap 1;
#X obj 641 340 /;
#X obj 641 318 swap 1000;
#X obj 267 466 lop~;
#X obj 267 411 clip~ 0 1;
#X obj 481 415 s leftchan-thresh;
#X obj 588 386 s leftchan-ratio;
#X obj 267 589 line~;
#X obj 267 568 pack f 5;
#X obj 267 544 r leftchan-gain;
#X obj 671 283 s leftchan-gain;
#N canvas 0 25 872 621 rms 0;
#X obj 257 107 env~ 512;
#X obj 257 245 -~;
#X obj 257 293 *~;
#X obj 257 345 +~;
#X obj 257 385 /~;
#X obj 378 221 +~ 0;
#X obj 323 178 r leftchan-thresh;
#X obj 272 318 r leftchan-thresh;
#X obj 272 269 r leftchan-ratio;
#X obj 257 34 inlet~;
#X obj 257 407 outlet~;
#X obj 373 37 inlet;
#X obj 373 59 switch~;
#X obj 257 135 dbtorms~;
#X connect 0 0 13 0;
#X connect 1 0 2 0;
#X connect 2 0 3 0;
#X connect 3 0 4 0;
#X connect 4 0 10 0;
#X connect 5 0 4 1;
#X connect 6 0 1 1;
#X connect 7 0 3 1;
#X connect 8 0 2 1;
#X connect 9 0 0 0;
#X connect 11 0 12 0;
#X connect 13 0 1 0;
#X connect 13 0 5 0;
#X restore 267 288 pd rms;
#N canvas 0 25 859 606 peak 0;
#X obj 244 134 abs~;
#X obj 244 243 -~;
#X obj 244 291 *~;
#X obj 244 343 +~;
#X obj 244 383 /~;
#X obj 365 219 +~ 0;
#X obj 485 269 r leftchan-thresh;
#X obj 259 316 r leftchan-thresh;
#X obj 259 267 r leftchan-ratio;
#X obj 244 49 inlet~;
#X obj 244 405 outlet~;
#X obj 470 125 inlet;
#X obj 470 147 switch~;
#X connect 0 0 1 0;
#X connect 0 0 5 0;
#X connect 1 0 2 0;
#X connect 2 0 3 0;
#X connect 3 0 4 0;
#X connect 4 0 10 0;
#X connect 5 0 4 1;
#X connect 6 0 1 1;
#X connect 7 0 3 1;
#X connect 8 0 2 1;
#X connect 9 0 0 0;
#X connect 11 0 12 0;
#X restore 315 288 pd peak;
#X obj 300 230 == 0;
#X obj 300 185 t f f;
#X obj 85 32 inlet~;
#X obj 300 161 r leftchan-rmspeak;
#X obj 818 242 s leftchan-rmspeak;
#X obj 870 218 s leftchan-lookahead;
#X obj 142 341 r leftchan-lookahead;
#X obj 477 142 route threshold ratio response gain rmspeak lookahead
;
#X obj 481 358 + 100;
#X obj 671 237 + 100;
#X obj 671 259 dbtorms;
#X obj 288 444 r leftchan-response;
#X obj 641 362 s leftchan-response;
#N canvas 0 22 450 300 delRead 0;
#X obj 68 41 inlet~;
#X obj 133 155 outlet~;
#X obj 133 42 inlet lookAhead;
#X obj 133 116 delread~ leftchan-comp 0;
#X connect 2 0 3 0;
#X connect 3 0 1 0;
#X restore 85 365 pd delRead;
#X obj 462 89 r compset;
#X floatatom 497 280 5 0 0 0 - - -, f 5;
#X connect 1 0 2 0;
#X connect 2 0 0 0;
#X connect 3 0 32 0;
#X connect 4 0 11 0;
#X connect 5 0 12 0;
#X connect 6 0 5 0;
#X connect 6 1 5 1;
#X connect 7 0 31 0;
#X connect 8 0 7 0;
#X connect 8 1 7 1;
#X connect 9 0 1 1;
#X connect 10 0 9 0;
#X connect 13 0 2 1;
#X connect 14 0 13 0;
#X connect 15 0 14 0;
#X connect 17 0 10 0;
#X connect 18 0 10 0;
#X connect 19 0 17 1;
#X connect 20 0 19 0;
#X connect 20 1 18 1;
#X connect 21 0 3 0;
#X connect 21 0 17 0;
#X connect 21 0 18 0;
#X connect 22 0 20 0;
#X connect 25 0 32 1;
#X connect 26 0 27 0;
#X connect 26 0 34 0;
#X connect 26 1 6 0;
#X connect 26 2 8 0;
#X connect 26 3 28 0;
#X connect 26 4 23 0;
#X connect 26 5 24 0;
#X connect 27 0 4 0;
#X connect 28 0 29 0;
#X connect 29 0 16 0;
#X connect 30 0 9 1;
#X connect 32 0 1 0;
#X connect 33 0 26 0;
#X restore 280 403 pd leftcomp;
#N canvas 0 25 1027 790 rightcomp 0;
#X obj 252 640 outlet~;
#X obj 252 506 *~;
#X obj 252 614 *~;
#N canvas 0 25 450 300 delWrite 0;
#X obj 68 80 delwrite~ rightchan-comp 500;
#X obj 68 39 inlet~;
#X obj 68 156 outlet~;
#X connect 1 0 0 0;
#X restore 85 289 pd delWrite;
#X obj 481 393 dbtorms;
#X obj 533 364 /;
#X obj 533 333 swap 1;
#X obj 586 340 /;
#X obj 586 318 swap 1000;
#X obj 267 466 lop~;
#X obj 267 411 clip~ 0 1;
#X obj 481 415 s rightchan-thresh;
#X obj 533 386 s rightchan-ratio;
#X obj 267 589 line~;
#X obj 267 568 pack f 5;
#X obj 267 544 r rightchan-gain;
#X obj 638 297 s rightchan-gain;
#N canvas 0 25 872 621 rms 0;
#X obj 257 107 env~ 512;
#X obj 257 245 -~;
#X obj 257 293 *~;
#X obj 257 345 +~;
#X obj 257 385 /~;
#X obj 378 221 +~ 0;
#X obj 272 220 r rightchan-thresh;
#X obj 272 318 r rightchan-thresh;
#X obj 272 269 r rightchan-ratio;
#X obj 257 34 inlet~;
#X obj 257 407 outlet~;
#X obj 373 37 inlet;
#X obj 373 59 switch~;
#X obj 257 135 dbtorms~;
#X connect 0 0 13 0;
#X connect 1 0 2 0;
#X connect 2 0 3 0;
#X connect 3 0 4 0;
#X connect 4 0 10 0;
#X connect 5 0 4 1;
#X connect 6 0 1 1;
#X connect 7 0 3 1;
#X connect 8 0 2 1;
#X connect 9 0 0 0;
#X connect 11 0 12 0;
#X connect 13 0 1 0;
#X connect 13 0 5 0;
#X restore 267 288 pd rms;
#N canvas 0 25 859 606 peak 0;
#X obj 244 134 abs~;
#X obj 244 243 -~;
#X obj 244 291 *~;
#X obj 244 343 +~;
#X obj 244 383 /~;
#X obj 365 219 +~ 0;
#X obj 279 166 r rightchan-thresh;
#X obj 259 316 r rightchan-thresh;
#X obj 259 267 r rightchan-ratio;
#X obj 244 49 inlet~;
#X obj 244 405 outlet~;
#X obj 470 125 inlet;
#X obj 470 147 switch~;
#X connect 0 0 1 0;
#X connect 0 0 5 0;
#X connect 1 0 2 0;
#X connect 2 0 3 0;
#X connect 3 0 4 0;
#X connect 4 0 10 0;
#X connect 5 0 4 1;
#X connect 6 0 1 1;
#X connect 7 0 3 1;
#X connect 8 0 2 1;
#X connect 9 0 0 0;
#X connect 11 0 12 0;
#X restore 315 288 pd peak;
#X obj 300 230 == 0;
#X obj 300 185 t f f;
#X obj 85 32 inlet~;
#X obj 300 161 r rightchan-rmspeak;
#X obj 691 271 s rightchan-rmspeak;
#X obj 743 247 s rightchan-lookahead;
#X obj 142 341 r rightchan-lookahead;
#X obj 481 223 route threshold ratio response gain rmspeak lookahead
;
#X obj 482 129 t a a;
#X obj 481 358 + 100;
#X obj 638 251 + 100;
#X obj 638 273 dbtorms;
#X obj 288 444 r rightchan-response;
#X obj 586 362 s rightchan-response;
#N canvas 0 25 450 300 delRead 0;
#X obj 68 41 inlet~;
#X obj 133 155 outlet~;
#X obj 133 42 inlet lookAhead;
#X obj 133 116 delread~ rightchan-comp 0;
#X connect 2 0 3 0;
#X connect 3 0 1 0;
#X restore 85 365 pd delRead;
#X obj 485 75 r compset;
#X floatatom 493 254 5 0 0 0 - - -, f 5;
#X connect 1 0 2 0;
#X connect 2 0 0 0;
#X connect 3 0 33 0;
#X connect 4 0 11 0;
#X connect 5 0 12 0;
#X connect 6 0 5 0;
#X connect 6 1 5 1;
#X connect 7 0 32 0;
#X connect 8 0 7 0;
#X connect 8 1 7 1;
#X connect 9 0 1 1;
#X connect 10 0 9 0;
#X connect 13 0 2 1;
#X connect 14 0 13 0;
#X connect 15 0 14 0;
#X connect 17 0 10 0;
#X connect 18 0 10 0;
#X connect 19 0 17 1;
#X connect 20 0 19 0;
#X connect 20 1 18 1;
#X connect 21 0 3 0;
#X connect 21 0 17 0;
#X connect 21 0 18 0;
#X connect 22 0 20 0;
#X connect 25 0 33 1;
#X connect 26 0 28 0;
#X connect 26 0 35 0;
#X connect 26 1 6 0;
#X connect 26 2 8 0;
#X connect 26 3 29 0;
#X connect 26 4 23 0;
#X connect 26 5 24 0;
#X connect 27 0 26 0;
#X connect 28 0 4 0;
#X connect 29 0 30 0;
#X connect 30 0 16 0;
#X connect 31 0 9 1;
#X connect 33 0 1 0;
#X connect 34 0 27 0;
#X restore 905 518 pd rightcomp;
#X connect 0 0 9 0;
#X connect 2 0 1 0;
#X connect 3 0 2 0;
#X connect 4 0 1 1;
#X connect 5 0 4 0;
#X connect 6 0 10 0;
#X connect 7 0 3 0;
#X connect 8 0 5 0;
#X connect 9 0 7 0;
#X connect 10 0 8 0;
#X restore 5 157 pd output;
#X msg 197 294 \; starttime 237;
#X obj 109 53 sel 1 4 5 6;
#X msg 275 99 \; isbass 0;
#X msg 118 93 \; isbass 1;
#X obj 159 145 loadbang;
#X msg 435 306 100;
#X obj 435 331 osc~;
#X msg 512 308 0.1 \, 0 100;
#X obj 512 333 line~;
#X obj 435 366 *~;
#X obj 160 170 t b b b;
#X obj 433 398 dac~;
#X obj 109 9 r pgo;
#X obj 452 208 r mainclick;
#X obj 452 248 t b b;
#X connect 5 0 7 0;
#X connect 5 1 7 0;
#X connect 5 2 7 0;
#X connect 5 3 7 0;
#X connect 5 4 6 0;
#X connect 8 0 14 0;
#X connect 9 0 10 0;
#X connect 10 0 13 0;
#X connect 11 0 12 0;
#X connect 12 0 13 1;
#X connect 13 0 15 0;
#X connect 13 0 15 1;
#X connect 14 1 4 0;
#X connect 14 2 18 0;
#X connect 16 0 5 0;
#X connect 17 0 18 0;
#X connect 18 0 9 0;
#X connect 18 1 11 0;
#X restore 309 236 pd c;
