#N canvas 1322 78 301 291 12;
#X obj 0 1 cnv 15 300 150 placeh22 title Forest (an intertwining)
22 12 0 18 #e0e0e0 #404040 0;
#X text 100 26 click to start;
#X obj 0 148 cnv 15 300 100 placeh35675543456758 line1 you are a :
12 12 0 14 #e0e0e0 #404040 0;
#X obj 0 169 cnv 15 300 100 placeh356756 line2 empty 12 12 0 14 #e0e0e0
#9c00ff 0;
#X obj 101 45 bng 99 250 50 0 mainclick lkjghxfzdxcbv empty 17 7 0
10 #44daee #ffffff #ff8300;
#X obj 8 87 cnv 15 60 30 x time empty 20 12 0 14 #e0e0e0 #f7f7f7 0
;
#X obj 9 111 cnv 15 60 30 x chords empty 20 12 0 14 #e0e0e0 #f7f7f7
0;
#X obj 7 43 cnv 15 60 30 x debug empty 20 12 0 14 #e0e0e0 #f7f7f7 0
;
#N canvas 343 25 1400 1027 c 0;
#N canvas 383 47 1537 1005 title 0;
#X obj 39 692 text define label1;
#X obj 547 313 text set label1;
#X obj 488 686 text get label1;
#X obj 507 353 list length;
#X obj 505 282 t l l;
#X floatatom 507 377 5 0 0 0 - - - 0;
#X obj 508 447 t b f;
#X obj 51 171 r 2ndlabel;
#X obj 226 521 t b f;
#X obj 52 287 list length;
#X msg 226 557 0;
#X obj 83 262 text set label2;
#X obj 39 673 text define label2;
#X obj 242 700 text get label2;
#X msg 976 222 \; line1 label \$1;
#X msg 1014 89 \; title label \$1;
#X msg 531 942 \; line2 label \$1;
#X obj 531 898 makefilename;
#X obj 52 239 t l l;
#X obj 39 654 text define names;
#X msg 938 148 label \$1;
#X msg 938 126 symbol empty;
#X obj 938 171 send line2;
#X msg 1029 -80 read creatures.txt;
#X obj 1029 -52 text define -k creatures;
#A set fuschia crocus bluebell snowdrop daffodil forget-me-not poppy
chrysanthemum snapdragon marigold iris tulip amaryllis lilac \, hive of honeybees
hive of bumblebees colony of termites army of fire ants
nest of wasps nest of hornets cloud of fruit flies chorus of cicadas
\, school of barracuda school of sardines school of tuna
school of anchovies school of herring school of minnows
\, matsutake trooping funnel destroying angel fly agaric puffball
shiitake chanterelle morel cordyceps \, sequoia elm beech birch oak
willow gingko sycamore banyan larch bristlecone pine aspen \, aardvark
alpaca armadillo capybara caracal echidna marmot platypus porpoise
shrew wombat hare walrus manatee \, ooze of amoebas galaxy of sea stars
bloom of jellyfish coral reef sea sponge hydra sea anemone
\, toucan oystercatcher goldfinch flamingo seagull kingfisher hummingbird
woodpecker pelican bluejay starling \, scorpion tarantula lobster crawfish
crab orb-weaver spider house spider;
#X obj 505 252 text get creatures;
#X obj 901 38 t b b b b b, f 22;
#X obj 901 79 s pge;
#X obj 473 45 r pgo;
#X obj 901 14 r titler;
#X obj 53 324 t b b f;
#X obj 191 489 %;
#X obj 59 408 random 20;
#X obj 59 433 +;
#X msg 976 195 symbol you are a :;
#X obj 69 490 r textgo;
#X msg 538 811 set %s \$1;
#X floatatom 228 314 5 0 0 0 - - - 0;
#X floatatom 80 582 5 0 0 0 - - - 0;
#X msg 296 531 1;
#X obj 503 586 %;
#X obj 508 486 random 20;
#X obj 520 542 +;
#X obj 503 611 t b f;
#X msg 461 642 0;
#X obj 194 343 r creaturesel;
#X obj 648 454 r creaturesel;
#X obj 189 676 t f f;
#X obj 188 644 spigot 1;
#X symbolatom 174 830 0 0 0 0 - - - 0;
#X obj 174 795 makefilename %.1s;
#X obj 174 854 sel a e i o u;
#X msg 152 941 \; line1 label \$1;
#X msg 152 908 symbol you are an:;
#X msg 1014 64 symbol Forest (an intertwining);
#X obj 1029 -131 r reader;
#N canvas 846 286 1221 852 color 0;
#X obj 681 758 s lkjghxfzdxcbv;
#X symbolatom 677 693 9 0 0 0 - - - 0;
#N canvas 799 177 390 482 label 0;
#X obj 102 80 vsl 15 128 0 255 0 0 empty empty empty 0 -9 0 10 #0800fc
#fcfcfc #000000 0 1;
#X obj 109 225 t b f;
#X obj 81 80 vsl 15 128 0 255 0 0 empty empty empty 0 -9 0 10 #00fc00
#000000 #000000 0 1;
#X obj 60 80 vsl 15 128 0 255 0 0 empty empty empty 0 -9 0 10 #fc0000
#000000 #000000 0 1;
#X obj 81 250 t b f;
#X obj 221 257 makefilename %02x;
#X obj 141 284 makefilename %02x;
#X obj 61 321 makefilename %02x;
#X obj 61 416 outlet;
#X msg 61 380 symbol #\$1\$2\$3;
#X obj 176 59 loadbang;
#X msg 176 91 set 255;
#X obj 176 176 route set;
#X obj 61 351 pack symbol symbol symbol;
#X obj 28 16 inlet;
#X obj 75 12 inlet;
#X obj 134 16 inlet;
#X connect 0 0 1 0;
#X connect 1 0 2 0;
#X connect 1 1 5 0;
#X connect 2 0 4 0;
#X connect 3 0 7 0;
#X connect 4 0 3 0;
#X connect 4 1 6 0;
#X connect 5 0 13 2;
#X connect 6 0 13 1;
#X connect 7 0 13 0;
#X connect 9 0 8 0;
#X connect 10 0 11 0;
#X connect 11 0 3 0;
#X connect 11 0 2 0;
#X connect 11 0 0 0;
#X connect 11 0 12 0;
#X connect 12 0 5 0;
#X connect 12 0 6 0;
#X connect 13 0 9 0;
#X connect 14 0 3 0;
#X connect 15 0 2 0;
#X connect 16 0 0 0;
#X coords 0 -1 1 1 80 170 2 50 50;
#X restore 678 512 pd label;
#X msg 678 727 color \$1;
#X obj 671 473 clip 0 255;
#X obj 758 470 clip 0 255;
#X obj 526 389 line;
#X obj 667 382 line;
#X obj 761 383 line;
#X floatatom 514 482 5 0 0 0 - - - 0;
#X obj 576 478 clip 0 255;
#X obj 428 289 + 56;
#X obj 428 265 random 200;
#X obj 723 206 random 200;
#X obj 756 231 + 56;
#X obj 818 197 random 200;
#X obj 855 221 + 56;
#X obj 357 33 r mainclick;
#X obj 357 57 t b b;
#X obj 221 275 + 206;
#X obj 198 216 random 50;
#X obj 299 278 + 206;
#X obj 276 219 random 50;
#X obj 144 280 + 206;
#X obj 121 221 random 50;
#X obj 549 93 t b;
#X msg 452 324 \$1 0;
#X msg 747 266 \$1 0;
#X msg 841 256 \$1 0;
#X connect 1 0 3 0;
#X connect 2 0 1 0;
#X connect 3 0 0 0;
#X connect 4 0 2 1;
#X connect 5 0 2 2;
#X connect 6 0 9 0;
#X connect 6 0 10 0;
#X connect 7 0 4 0;
#X connect 8 0 5 0;
#X connect 10 0 2 0;
#X connect 11 0 26 0;
#X connect 12 0 11 0;
#X connect 13 0 14 0;
#X connect 14 0 27 0;
#X connect 15 0 16 0;
#X connect 16 0 28 0;
#X connect 17 0 18 0;
#X connect 18 0 25 0;
#X connect 18 1 22 0;
#X connect 18 1 20 0;
#X connect 18 1 24 0;
#X connect 19 0 7 0;
#X connect 20 0 19 0;
#X connect 21 0 8 0;
#X connect 22 0 21 0;
#X connect 23 0 6 0;
#X connect 24 0 23 0;
#X connect 25 0 12 0;
#X connect 25 0 13 0;
#X connect 25 0 15 0;
#X connect 26 0 6 0;
#X connect 27 0 7 0;
#X connect 28 0 8 0;
#X restore 1302 151 pd color;
#X obj 1172 155 r volslide;
#X obj 1172 179 change;
#X obj 1172 203 sel 0;
#X obj 1172 227 f;
#X obj 1172 251 + 1;
#X obj 1171 313 sel 3;
#X obj 1171 356 s timeshow;
#X obj 473 146 t b f;
#X msg 265 84 \; textgo bang;
#X obj 552 846 print;
#X obj 18 866 print masdf;
#X obj 473 105 spigot 1;
#X obj 572 105 spigot 0;
#X obj 597 17 r dualer;
#X msg 549 36 1;
#X msg 612 53 0;
#X msg 516 17 0;
#X obj 803 294 text set label1;
#X obj 744 667 text get label1;
#X obj 763 334 list length;
#X obj 761 263 t l l;
#X floatatom 763 358 5 0 0 0 - - - 0;
#X obj 764 428 t b f;
#X obj 787 879 makefilename;
#X obj 761 233 text get creatures;
#X msg 794 792 set %s \$1;
#X obj 759 567 %;
#X obj 764 467 random 20;
#X obj 776 523 +;
#X obj 759 592 t b f;
#X msg 717 623 0;
#X obj 808 827 print;
#X msg 787 923 \; line4 label \$1;
#X msg 650 62 1;
#X symbolatom 967 840 0 0 0 0 - - - 0;
#X obj 967 805 makefilename %.1s;
#X obj 967 864 sel a e i o u;
#X msg 967 927 symbol and an:;
#X msg 1105 930 symbol and a:;
#X msg 967 960 \; line3 label \$1;
#X obj 51 197 t l l b b b;
#X obj 1216 683 t b f;
#X obj 1042 449 list length;
#X msg 1216 719 0;
#X obj 1073 424 text set label2;
#X obj 1254 793 text get label2;
#X obj 1042 401 t l l;
#X obj 1043 486 t b b f;
#X obj 1175 616 %;
#X obj 1049 570 random 20;
#X obj 1049 595 +;
#X obj 1367 605 r textgo;
#X floatatom 1218 476 5 0 0 0 - - - 0;
#X floatatom 1070 744 5 0 0 0 - - - 0;
#X msg 1286 693 1;
#X obj 1184 505 r creaturesel;
#X obj 1173 811 t f f;
#X obj 1172 779 spigot 1;
#X obj 1041 359 t l l b b b;
#X msg 1442 627 1;
#X obj 1315 644 spigot;
#X obj 1178 667 sel;
#X msg 696 827 symbol empty;
#X obj 1381 528 r singl;
#X obj 1437 558 r doubl;
#X msg 1349 567 0;
#X obj 718 730 loadbang;
#X obj 1172 274 % 4;
#X floatatom 1241 300 5 0 0 0 - - - 0;
#X obj 1281 373 bng 15 250 50 0 empty empty empty 17 7 0 10 #fcfcfc
#000000 #000000;
#X connect 2 0 36 0;
#X connect 3 0 5 0;
#X connect 4 0 3 0;
#X connect 4 1 1 0;
#X connect 5 0 6 0;
#X connect 6 0 41 0;
#X connect 6 1 40 1;
#X connect 7 0 97 0;
#X connect 8 1 13 1;
#X connect 8 1 118 1;
#X connect 9 0 30 0;
#X connect 10 0 48 0;
#X connect 10 0 13 0;
#X connect 13 0 50 0;
#X connect 13 0 67 0;
#X connect 13 0 17 0;
#X connect 17 0 16 0;
#X connect 18 0 9 0;
#X connect 18 1 11 0;
#X connect 20 0 22 0;
#X connect 21 0 20 0;
#X connect 23 0 24 0;
#X connect 25 0 4 0;
#X connect 26 0 27 0;
#X connect 26 1 21 0;
#X connect 26 2 34 0;
#X connect 26 3 54 0;
#X connect 28 0 68 0;
#X connect 28 0 69 0;
#X connect 29 0 26 0;
#X connect 30 0 32 0;
#X connect 30 2 31 1;
#X connect 30 2 37 0;
#X connect 31 0 8 0;
#X connect 31 0 38 0;
#X connect 32 0 33 0;
#X connect 33 0 31 0;
#X connect 34 0 14 0;
#X connect 35 0 10 0;
#X connect 36 0 17 0;
#X connect 36 0 66 0;
#X connect 39 0 13 1;
#X connect 40 0 43 0;
#X connect 41 0 42 0;
#X connect 42 0 40 0;
#X connect 43 0 44 0;
#X connect 43 1 2 1;
#X connect 44 0 2 0;
#X connect 45 0 33 1;
#X connect 46 0 42 1;
#X connect 46 0 85 1;
#X connect 47 0 48 1;
#X connect 47 1 13 0;
#X connect 48 0 47 0;
#X connect 49 0 51 0;
#X connect 50 0 49 0;
#X connect 51 0 53 0;
#X connect 51 1 53 0;
#X connect 51 2 53 0;
#X connect 51 3 53 0;
#X connect 51 4 53 0;
#X connect 51 5 34 0;
#X connect 53 0 52 0;
#X connect 54 0 15 0;
#X connect 55 0 23 0;
#X connect 57 0 58 0;
#X connect 58 0 59 0;
#X connect 59 0 60 0;
#X connect 60 0 61 0;
#X connect 61 0 60 1;
#X connect 61 0 124 0;
#X connect 62 0 63 0;
#X connect 62 0 126 0;
#X connect 64 0 73 0;
#X connect 64 0 90 0;
#X connect 64 1 25 0;
#X connect 68 0 64 0;
#X connect 69 0 81 0;
#X connect 70 0 71 0;
#X connect 70 0 72 0;
#X connect 70 0 119 0;
#X connect 71 0 68 1;
#X connect 72 0 69 1;
#X connect 73 0 68 1;
#X connect 75 0 82 0;
#X connect 76 0 78 0;
#X connect 77 0 76 0;
#X connect 77 1 74 0;
#X connect 78 0 79 0;
#X connect 79 0 84 0;
#X connect 79 1 83 1;
#X connect 80 0 89 0;
#X connect 81 0 77 0;
#X connect 82 0 80 0;
#X connect 82 0 88 0;
#X connect 83 0 86 0;
#X connect 84 0 85 0;
#X connect 85 0 83 0;
#X connect 86 0 87 0;
#X connect 86 1 75 1;
#X connect 87 0 75 0;
#X connect 90 0 69 1;
#X connect 91 0 93 0;
#X connect 92 0 91 0;
#X connect 93 0 94 0;
#X connect 93 1 94 0;
#X connect 93 2 94 0;
#X connect 93 3 94 0;
#X connect 93 4 94 0;
#X connect 93 5 95 0;
#X connect 94 0 96 0;
#X connect 95 0 96 0;
#X connect 97 0 115 0;
#X connect 97 1 18 0;
#X connect 98 1 102 1;
#X connect 99 0 104 0;
#X connect 100 0 114 0;
#X connect 100 0 102 0;
#X connect 102 0 80 0;
#X connect 102 0 92 0;
#X connect 103 0 99 0;
#X connect 103 1 101 0;
#X connect 104 0 106 0;
#X connect 104 2 105 1;
#X connect 104 2 109 0;
#X connect 105 0 110 0;
#X connect 105 0 118 0;
#X connect 106 0 107 0;
#X connect 107 0 105 0;
#X connect 108 0 117 0;
#X connect 111 0 102 1;
#X connect 112 0 107 1;
#X connect 113 0 114 1;
#X connect 113 1 102 0;
#X connect 114 0 113 0;
#X connect 115 1 103 0;
#X connect 116 0 117 1;
#X connect 117 0 100 0;
#X connect 118 0 106 0;
#X connect 118 1 98 0;
#X connect 119 0 89 0;
#X connect 119 0 96 0;
#X connect 120 0 122 0;
#X connect 121 0 116 0;
#X connect 122 0 117 1;
#X connect 123 0 119 0;
#X connect 124 0 62 0;
#X connect 124 0 125 0;
#X restore 12 30 pd title;
#N canvas 227 101 1004 806 counter 0;
#N canvas 1163 25 757 1027 getter 0;
#X obj 257 251 moses, f 10;
#X obj 339 700 tabread pit1;
#X msg 553 572 set pit2;
#X obj 177 150 t b b, f 11;
#X obj 308 771 sel 0;
#X floatatom 230 856 5 0 0 0 - - - 0;
#X obj 147 25 r getpit;
#X obj 334 831 s pit;
#X obj 319 196 r tensec;
#X obj 294 150 r cyclelength;
#X msg 226 638 bang;
#X obj 123 339 random 20;
#X msg 516 626 set pit2b;
#X msg 358 615 set pit1b;
#X msg 439 603 set pit1;
#X obj 354 525 random 2;
#X obj 354 549 sel 0 1;
#X obj 430 492 random 2;
#X obj 486 533 sel 0 1;
#X msg 298 399 bang;
#X msg 357 388 bang;
#X obj 212 62 r mainclick;
#X msg 212 87 1;
#X obj 175 110 spigot 0;
#X floatatom 417 223 5 0 0 0 - - - 0;
#X floatatom 406 277 5 0 0 0 - - - 0;
#X obj 314 347 bng 15 250 50 0 empty empty empty 17 7 0 10 #fcfcfc
#000000 #000000;
#X obj 376 351 bng 15 250 50 0 empty empty empty 17 7 0 10 #fcfcfc
#000000 #000000;
#X obj 260 180 random 6, f 6;
#X obj 260 218 + 4;
#X connect 0 0 19 0;
#X connect 0 0 26 0;
#X connect 0 1 20 0;
#X connect 0 1 27 0;
#X connect 1 0 4 0;
#X connect 2 0 1 0;
#X connect 3 0 11 0;
#X connect 3 1 28 0;
#X connect 4 0 3 0;
#X connect 4 1 5 0;
#X connect 4 1 7 0;
#X connect 6 0 23 0;
#X connect 8 0 0 1;
#X connect 8 0 25 0;
#X connect 9 0 24 0;
#X connect 9 0 28 1;
#X connect 10 0 3 0;
#X connect 11 0 1 0;
#X connect 12 0 1 0;
#X connect 13 0 1 0;
#X connect 14 0 1 0;
#X connect 15 0 16 0;
#X connect 16 0 13 0;
#X connect 16 1 14 0;
#X connect 17 0 18 0;
#X connect 18 0 12 0;
#X connect 18 1 2 0;
#X connect 19 0 17 0;
#X connect 20 0 15 0;
#X connect 21 0 22 0;
#X connect 22 0 23 1;
#X connect 23 0 3 0;
#X connect 28 0 29 0;
#X connect 29 0 0 0;
#X restore 2 21 pd getter;
#N canvas 908 117 1607 1295 setter 0;
#X obj 646 187 r sublb;
#X obj 265 72 bng 15 250 50 0 empty empty empty 17 7 0 10 #fcfcfc #000000
#000000;
#X obj 349 225 t b b b;
#X obj 101 742 s mainlength;
#X obj 531 330 t b b;
#X msg 286 990 symbol one;
#X msg 373 990 symbol one;
#X obj 976 428 text define -k one;
#A set 61 62 67 72 77 \, 84 62 67 72 77 \, 61 62 67 72 77 \, 61 62
67 72 77 \, 84 62 67 72 77 \, 113 62 63 65 67 70 72 74 75 77 \, 61
63 70 75 \, 84 62 69 74 \, 71 62 69 74 \, 61 63 70 75 \, 84 61 68 73
\, 71 61 68 73 \, 61 61 68 73 \, 39 63 68 75 \, 39 63 68 75 \, 98 64
69 71 72 76 \, 84 66 68 72 75 \, 61 68 72 75 \, 71 68 72 75 77 \, 84
75 77 78 80 82 \, 98 75 77 78 80 \, 84 74 78 80 81 \, 71 76 78 80 81
83 \, 61 76 78 80 81 83 \, 39 78 80 \, 20 78 80 \, 20 78 80 \, 20 78
80 \, 20 78 80 \, 20 78 80 \, 20 78 80 \, 71 76 78 80 81 \, 98 74 76
78 80 81 83 \, 127 72 74 76 78 80 81 83 84 86 \, 84 72 74 76 81 83
84 86 \, 20 72 74 84 86 \, 20 72 74 84 86 \, 20 72 74 84 86 \, 20 72
74 84 86 \, 20 72 74 84 86 \, 20 72 74 84 86 \, 113 63 65 67 68 70
72 74 75 77 79 80 82 84 86 87 \, 98 63 65 67 68 70 72 74 75 77 79 80
82 84 86 87 \, 84 63 65 67 68 70 72 74 75 77 79 80 82 84 86 87 \, 84
63 65 67 68 70 72 74 75 77 79 80 82 84 86 87 \, 127 65 67 74 77 79
86 \, 84 63 65 67 68 70 72 74 75 77 79 80 82 84 86 87 \, 84 63 65 67
68 70 72 74 75 77 79 80 82 84 86 87 \, 127 70 72 77 82 84 89 \, 84
63 65 67 68 70 72 74 75 77 79 80 82 84 86 87 \, 84 63 65 67 68 70 72
74 75 77 79 80 82 84 86 87 \, 71 63 65 68 70 75 77 80 82 87 \, 61 63
65 68 70 75 77 80 82 87 \, 71 63 65 68 70 75 77 80 82 87 \, 84 63 65
66 68 70 71 73 75 77 78 80 82 83 85 87 \, 71 63 65 68 70 75 77 80 82
87 \, 61 63 65 68 70 75 77 80 82 87 \, 71 63 65 68 70 75 77 80 82 87
\, 84 63 65 67 68 70 72 74 75 77 79 80 82 84 86 87 \, 71 62 67 72 77
\,;
#X obj 1106 428 text define -k two;
#A set 61 55 60 65 70 \, 71 55 60 65 70 \, 61 55 60 65 70 \, 71 55
60 65 70 \, 84 55 60 65 70 \, 113 55 58 60 62 63 65 67 70 \, 61 58
63 70 \, 61 58 63 70 \, 84 60 65 72 \, 71 58 63 70 \, 61 58 63 70 \,
84 59 64 71 \, 71 59 64 71 \, 61 59 64 71 \, 39 59 64 71 \, 97 52 57
59 60 \, 84 51 54 56 60 63 \, 61 60 63 66 \, 71 63 66 70 74 \, 84 66
68 70 72 74 \, 98 63 66 68 72 74 \, 84 62 66 68 69 72 \, 71 64 66 68
69 72 74 \, 61 64 66 68 69 \, 39 66 \, 20 66 68 \, 71 65 66 68 70 \,
98 63 65 66 68 70 72 \, 127 60 62 63 65 66 68 70 72 74 \, 84 60 62
63 65 70 72 74 \, 20 60 62 72 74 \, 20 60 62 72 74 \, 20 60 62 72 74
\, 20 60 62 72 74 \, 20 60 62 72 74 \, 20 60 62 72 74 \, 20 60 62 72
74 \, 20 60 62 72 74 \, 20 60 62 72 74 \, 20 60 62 72 74 \, 20 60 62
72 74 \, 113 55 56 58 60 62 63 65 67 68 70 72 74 75 77 79 \, 98 55
56 58 60 62 63 65 67 68 70 72 74 75 77 79 \, 84 55 56 58 60 62 63 65
67 68 70 72 74 75 77 79 \, 127 56 58 63 68 70 75 \, 84 55 56 58 60
62 63 65 67 68 70 72 74 75 77 79 \, 84 55 56 58 60 62 63 65 67 68 70
72 74 75 77 79 \, 127 55 56 62 67 68 74 \, 84 55 56 58 60 62 63 65
67 68 70 72 74 75 77 79 \, 84 55 56 58 60 62 63 65 67 68 70 72 74 75
77 79 \, 84 55 56 58 60 62 63 65 67 68 70 72 74 75 77 79 \, 71 56 58
63 65 68 70 75 77 \, 61 56 58 63 65 68 70 75 77 \, 71 56 58 63 65 68
70 75 77 \, 84 54 56 58 59 61 63 65 66 68 70 71 73 75 77 78 \, 71 56
58 63 65 68 70 75 77 \, 61 56 58 63 65 68 70 75 77 \, 71 56 58 63 65
68 70 75 77 \, 84 55 56 58 60 62 63 65 67 68 70 72 74 75 77 79 \, 71
55 60 65 70 \,;
#X obj 376 1090 s textsetter;
#X obj 289 533 t b f;
#X obj 205 334 t b f;
#X obj 205 359 random 20;
#X obj 205 384 +;
#X obj 205 309 r pitcsel;
#X obj 961 562 text define -k oneb;
#A set 61 62 67 72 77 \, 61 62 67 69 72 77 \, 61 62 67 72 77 \, 61
62 67 72 77 \, 61 62 63 65 67 70 72 74 75 77 \, 61 62 63 65 67 70 72
74 75 77 \, 61 63 70 75 \, 61 62 69 74 75 \, 61 62 69 74 75 \, 61 63
70 75 \, 61 61 68 73 75 \, 61 61 68 73 75 \, 61 61 68 73 75 \, 61 63
68 75 \, 61 60 63 68 75 \, 61 64 66 68 69 71 72 75 76 \, 61 64 66 68
69 71 72 75 76 \, 61 66 68 72 75 78 \, 61 70 72 75 77 78 \, 61 75 77
78 80 82 84 \, 61 75 77 78 80 \, 61 74 78 80 81 \, 61 76 78 80 81 83
\, 61 76 78 80 81 83 \, 61 78 80 81 83 \, 61 78 80 \, 61 78 80 \, 61
78 80 \, 61 78 80 \, 61 78 80 \, 61 78 80 \, 61 76 78 80 81 \, 61 74
76 78 80 81 83 \, 61 72 74 76 78 80 81 83 84 86 \, 61 72 74 76 81 83
84 86 \, 61 72 74 84 86 \, 61 72 74 84 86 \, 61 72 74 84 86 \, 61 72
74 84 86 \, 61 72 74 84 86 \, 61 72 74 84 86 \, 61 63 65 67 68 70 72
74 75 77 79 80 82 84 86 87 \, 61 63 65 67 68 70 72 74 75 77 79 80 82
84 86 87 \, 61 63 65 67 68 70 72 74 75 77 79 80 82 84 86 87 \, 61 63
65 67 68 70 72 74 75 77 79 80 82 84 86 87 \, 61 65 67 74 77 79 86 \,
61 63 65 67 68 70 72 74 75 77 79 80 82 84 86 87 \, 61 63 65 67 68 70
72 74 75 77 79 80 82 84 86 87 \, 61 70 72 77 82 84 89 \, 61 63 65 67
68 70 72 74 75 77 79 80 82 84 86 87 \, 61 63 65 67 68 70 72 74 75 77
79 80 82 84 86 87 \, 61 63 65 67 68 70 72 74 75 77 79 80 82 84 86 87
\, 61 63 65 68 70 75 77 80 82 87 \, 61 63 65 66 68 70 71 73 75 77 78
80 82 83 85 87 \, 61 63 65 66 68 70 71 73 75 77 78 80 82 83 85 87 \,
61 63 65 66 68 70 71 73 75 77 78 80 82 83 85 87 \, 61 63 65 68 70 75
77 80 82 87 \, 61 63 65 67 68 70 72 74 75 77 79 80 82 84 86 87 \, 61
63 65 67 68 70 72 74 75 77 79 80 82 84 86 87 \, 61 63 65 67 68 70 72
74 75 77 79 80 82 84 86 87 \,;
#X obj 1098 561 text define -k twob;
#A set 61 55 60 65 70 \, 61 55 57 60 65 70 \, 61 55 60 65 70 \, 61
55 56 60 65 70 \, 61 55 58 60 62 63 65 67 70 \, 61 55 58 60 62 63 65
67 70 \, 61 58 63 70 \, 61 58 63 70 \, 61 60 65 72 \, 61 58 63 70 \,
61 58 63 70 \, 61 59 64 71 \, 61 59 64 71 \, 61 59 64 71 \, 61 59 64
69 71 \, 61 51 52 54 56 57 59 60 63 \, 61 51 52 54 56 57 59 60 63 \,
61 56 60 63 66 68 \, 61 60 63 66 68 70 72 74 \, 61 63 66 68 70 72 74
\, 61 63 66 68 72 74 \, 61 62 66 68 69 72 \, 61 64 66 68 69 72 74 \,
61 64 66 68 69 \, 61 66 \, 61 66 68 \, 61 65 66 68 70 \, 61 63 65 66
68 70 72 \, 61 60 62 63 65 66 68 70 72 74 \, 61 60 62 63 65 70 72 74
\, 61 60 62 72 74 \, 61 60 62 72 74 \, 61 60 62 72 74 \, 61 60 62 72
74 \, 61 60 62 72 74 \, 61 60 62 72 74 \, 61 60 62 72 74 \, 61 60 62
72 74 \, 61 60 62 72 74 \, 61 60 62 72 74 \, 61 60 62 72 74 \, 61 55
56 58 60 62 63 65 67 68 70 72 74 75 77 79 \, 61 55 56 58 60 62 63 65
67 68 70 72 74 75 77 79 \, 61 55 56 58 60 62 63 65 67 68 70 72 74 75
77 79 \, 61 56 58 63 68 70 75 \, 61 55 56 58 60 62 63 65 67 68 70 72
74 75 77 79 \, 61 55 56 58 60 62 63 65 67 68 70 72 74 75 77 79 \, 61
55 56 62 67 68 74 \, 61 55 56 58 60 62 63 65 67 68 70 72 74 75 77 79
\, 61 55 56 58 60 62 63 65 67 68 70 72 74 75 77 79 \, 61 55 56 58 60
62 63 65 67 68 70 72 74 75 77 79 \, 61 55 56 58 60 62 63 65 67 68 70
72 74 75 77 79 \, 61 56 58 63 65 68 70 75 77 \, 61 54 56 58 59 61 63
65 66 68 70 71 73 75 77 78 \, 61 54 56 58 59 61 63 65 66 68 70 71 73
75 77 78 \, 61 54 56 58 59 61 63 65 66 68 70 71 73 75 77 78 \, 61 56
58 63 65 68 70 75 77 \, 61 55 56 58 60 62 63 65 67 68 70 72 74 75 77
79 \, 61 55 56 58 60 62 63 65 67 68 70 72 74 75 77 79 \, 61 55 56 58
60 62 63 65 67 68 70 72 74 75 77 79 \,;
#X msg 484 1034 symbol oneb;
#X msg 571 1034 symbol oneb;
#X obj 547 1075 s textsetterb;
#X msg 919 382 read chorder/one.txt;
#X msg 1106 385 read chorder/two.txt;
#X msg 964 486 read chorder/oneb.txt;
#X msg 1099 518 read chorder/twob.txt;
#X obj 1325 267 r reader;
#X msg 974 667 read chorder/threeb.txt;
#X msg 1109 699 read chorder/three.txt;
#X obj 935 750 text define -k threeb;
#A set 61 48 53 58 63 \, 61 48 53 58 63 \, 61 48 53 58 63 \, 61 48
53 56 58 63 \, 61 48 50 51 53 55 58 60 62 63 \, 61 48 50 51 53 55 58
60 62 63 \, 61 51 58 63 \, 61 51 58 63 \, 61 51 58 63 \, 61 51 58 63
\, 61 51 58 63 \, 61 51 56 63 \, 61 45 51 52 57 \, 61 45 51 52 57 \,
61 36 45 51 52 57 \, 61 36 39 40 42 44 45 47 48 \, 61 36 39 40 42 44
45 47 48 \, 61 32 44 51 56 60 \, 61 32 44 51 56 60 63 \, 61 32 44 51
56 60 63 66 \, 61 38 44 50 54 56 60 \, 61 38 45 50 54 57 60 \, 61 38
45 50 54 57 60 62 \, 61 54 56 57 \, 61 54 56 57 \, 61 54 56 \, 61 54
56 \, 61 54 56 \, 61 54 56 \, 61 54 56 \, 61 54 56 \, 61 54 56 \, 61
54 56 \, 61 54 56 \, 61 54 56 \, 61 54 56 \, 61 53 54 56 57 \, 61 50
53 54 56 57 59 \, 61 48 50 53 54 56 57 59 60 62 \, 61 48 50 53 57 59
60 62 \, 61 48 50 60 62 \, 61 36 38 39 41 43 44 46 48 50 51 53 55 56
58 60 \, 61 36 38 39 41 43 44 46 48 50 51 53 55 56 58 60 \, 61 36 38
39 41 43 44 46 48 50 51 53 55 56 58 60 \, 61 36 38 39 41 43 44 46 48
50 51 53 55 56 58 60 \, 61 36 38 39 41 43 44 46 48 50 51 53 55 56 58
60 \, 61 39 41 46 51 53 58 \, 61 36 38 39 41 43 44 46 48 50 51 53 55
56 58 60 \, 61 36 38 39 41 43 44 46 48 50 51 53 55 56 58 60 \, 61 44
50 51 56 62 63 \, 61 36 38 39 41 43 44 46 48 50 51 53 55 56 58 60 \,
61 36 38 39 41 43 44 46 48 50 51 53 55 56 58 60 \, 61 39 41 44 46 51
53 56 58 \, 61 35 37 39 41 42 44 46 47 49 51 53 54 56 58 59 \, 61 35
37 39 41 42 44 46 47 49 51 53 54 56 58 59 \, 61 35 37 39 41 42 44 46
47 49 51 53 54 56 58 59 \, 61 39 41 44 46 51 53 56 58 \, 61 36 38 39
41 43 44 46 48 50 51 53 55 56 58 60 \, 61 36 38 39 41 43 44 46 48 50
51 53 55 56 58 60 \, 61 36 38 39 41 43 44 46 48 50 51 53 55 56 58 60
\,;
#X obj 1108 742 text define -k three;
#A set 61 48 53 58 63 \, 61 48 53 58 63 \, 61 48 53 58 63 \, 84 48
53 56 58 63 \, 84 48 53 58 63 \, 113 48 50 51 53 55 58 60 62 63 \,
61 51 58 63 \, 61 51 58 63 \, 61 51 58 63 \, 61 51 58 63 \, 61 51 58
63 \, 71 51 56 63 \, 84 45 52 57 \, 98 45 52 57 \, 113 36 45 52 57
\, 98 36 40 45 47 48 \, 84 36 39 42 44 48 \, 61 44 51 56 \, 71 44 51
56 60 \, 84 44 51 56 60 63 \, 98 38 44 50 54 56 60 \, 84 38 45 50 54
57 60 \, 71 38 45 50 54 57 60 62 \, 61 54 56 57 \, 39 54 56 \, 20 54
56 \, 20 54 56 \, 20 54 56 \, 20 54 56 \, 20 54 56 \, 20 54 56 \, 20
54 56 \, 20 54 56 \, 20 54 56 \, 20 54 56 \, 20 54 56 \, 71 53 54 56
57 \, 98 50 53 54 56 57 59 \, 127 48 50 53 54 56 57 59 60 62 \, 84
48 50 53 57 59 60 62 \, 20 48 50 60 62 \, 113 36 38 39 41 43 44 46
48 50 51 53 55 56 58 60 \, 98 36 38 39 41 43 44 46 48 50 51 53 55 56
58 60 \, 84 36 38 39 41 43 44 46 48 50 51 53 55 56 58 60 \, 84 36 38
39 41 43 44 46 48 50 51 53 55 56 58 60 \, 84 36 38 39 41 43 44 46 48
50 51 53 55 56 58 60 \, 127 39 41 46 51 53 58 \, 84 36 38 39 41 43
44 46 48 50 51 53 55 56 58 60 \, 84 36 38 39 41 43 44 46 48 50 51 53
55 56 58 60 \, 127 44 50 51 56 62 63 \, 84 36 38 39 41 43 44 46 48
50 51 53 55 56 58 60 \, 71 39 41 44 46 51 53 56 58 \, 61 39 41 44 46
51 53 56 58 \, 71 39 41 44 46 51 53 56 58 \, 84 35 37 39 41 42 44 46
47 49 51 53 54 56 58 59 \, 71 39 41 44 46 51 53 56 58 \, 61 39 41 44
46 51 53 56 58 \, 71 39 41 44 46 51 53 56 58 \, 84 36 38 39 41 43 44
46 48 50 51 53 55 56 58 60 \, 71 48 53 58 63 \,;
#X obj 290 593 sel 0 1 2 3 4 5 6;
#X obj 289 463 % 7;
#X obj 334 364 r ismobile;
#X obj 334 388 sel 13579;
#X msg 368 424 4;
#X obj 383 673 t b;
#X msg 396 946 symbol one;
#X msg 594 990 symbol oneb;
#X obj 254 1058 print chords;
#X obj 166 1116 symbol;
#X msg 166 1140 label \$1;
#X obj 166 1164 s chords;
#X obj 82 972 r timeshow;
#X floatatom 311 495 5 0 0 0 - - - 0;
#X connect 0 0 2 0;
#X connect 1 0 2 0;
#X connect 2 1 4 0;
#X connect 5 0 9 0;
#X connect 5 0 17 0;
#X connect 5 0 37 0;
#X connect 5 0 38 1;
#X connect 6 0 9 0;
#X connect 6 0 18 0;
#X connect 6 0 37 0;
#X connect 6 0 38 1;
#X connect 10 0 3 0;
#X connect 10 1 29 0;
#X connect 11 0 12 0;
#X connect 11 1 13 1;
#X connect 12 0 13 0;
#X connect 13 0 30 0;
#X connect 14 0 11 0;
#X connect 17 0 19 0;
#X connect 18 0 19 0;
#X connect 20 0 7 0;
#X connect 21 0 8 0;
#X connect 22 0 15 0;
#X connect 23 0 16 0;
#X connect 24 0 20 0;
#X connect 24 0 21 0;
#X connect 24 0 22 0;
#X connect 24 0 23 0;
#X connect 24 0 25 0;
#X connect 24 0 26 0;
#X connect 25 0 27 0;
#X connect 26 0 28 0;
#X connect 29 0 5 0;
#X connect 29 1 5 0;
#X connect 29 2 6 0;
#X connect 29 3 6 0;
#X connect 29 4 34 0;
#X connect 29 5 34 0;
#X connect 29 6 34 0;
#X connect 30 0 10 0;
#X connect 30 0 42 0;
#X connect 31 0 32 0;
#X connect 32 1 33 0;
#X connect 33 0 30 1;
#X connect 34 0 35 0;
#X connect 34 0 36 0;
#X connect 35 0 36 0;
#X connect 35 0 9 0;
#X connect 35 0 37 0;
#X connect 35 0 38 1;
#X connect 36 0 19 0;
#X connect 38 0 39 0;
#X connect 39 0 40 0;
#X connect 41 0 38 0;
#X restore 2 2 pd setter;
#N canvas 833 47 1087 1005 shifterb 0;
#X obj 449 557 + 1;
#N canvas 0 22 450 278 (subpatch) 0;
#X array pit2b 100 float 2;
#X coords 0 100 100 0 240 200 1 0 0;
#X restore 661 299 graph;
#N canvas 0 22 450 278 (subpatch) 0;
#X array pit1b 100 float 2;
#X coords 0 100 100 0 240 200 1 0 0;
#X restore 661 79 graph;
#X obj 261 528 t f b;
#X obj 213 691 f, f 2;
#X obj 235 691 - 1;
#X obj 392 702 f, f 2;
#X obj 416 702 - 1;
#X obj 262 758 route 0;
#X obj 449 755 route 0;
#X obj 449 662 t f f;
#X obj 261 647 t f f;
#X obj 261 622 % 18, f 6;
#X obj 300 566 r mainlength;
#X obj 449 638 % 18, f 6;
#X obj 308 791 list split 1;
#X obj 495 794 list split 1;
#X obj 664 841 list length;
#X floatatom 649 892 5 0 0 0 - - - 0;
#X floatatom 151 713 5 0 0 0 - - - 0;
#X obj 300 591 text size;
#X obj 261 721 text get;
#X obj 450 729 text get;
#X obj 669 867 s pit2blength;
#X msg 523 546 \; pit1b const 0 \; pit2b const 0;
#X obj 557 602 r textsetterb;
#X obj 260 484 r bnumb;
#X obj 535 851 array set pit2b;
#X obj 348 842 array set pit1b;
#X floatatom 317 502 5 0 0 0 - - - 0;
#X connect 0 0 14 0;
#X connect 3 0 0 0;
#X connect 3 0 12 0;
#X connect 3 1 24 0;
#X connect 4 0 5 0;
#X connect 5 0 4 1;
#X connect 5 0 19 0;
#X connect 5 0 21 0;
#X connect 6 0 7 0;
#X connect 7 0 6 1;
#X connect 7 0 22 0;
#X connect 8 0 4 0;
#X connect 8 1 15 0;
#X connect 9 0 6 0;
#X connect 9 1 16 0;
#X connect 10 0 22 0;
#X connect 10 1 6 1;
#X connect 11 0 21 0;
#X connect 11 1 4 1;
#X connect 12 0 11 0;
#X connect 13 0 20 0;
#X connect 14 0 10 0;
#X connect 15 1 28 0;
#X connect 16 1 17 0;
#X connect 16 1 27 0;
#X connect 17 0 18 0;
#X connect 17 0 23 0;
#X connect 20 0 12 1;
#X connect 20 0 14 1;
#X connect 21 0 8 0;
#X connect 22 0 9 0;
#X connect 25 0 20 1;
#X connect 25 0 21 3;
#X connect 25 0 22 3;
#X connect 26 0 3 0;
#X connect 26 0 29 0;
#X restore 76 40 pd shifterb;
#N canvas 401 25 1087 1027 shifter 0;
#X obj 194 253 metro 1000;
#X obj 195 300 f;
#X obj 228 301 + 1;
#X floatatom 26 353 5 0 0 0 - - - 0;
#X obj 194 223 tgl 15 0 empty empty empty 17 7 0 10 #fcfcfc #000000
#000000 0 1;
#X floatatom 10 392 5 0 0 0 - - - 0;
#X floatatom 19 483 5 0 0 0 - - - 0;
#X obj 449 557 + 1;
#X obj 262 350 i, f 2;
#X obj 262 394 change;
#N canvas 0 22 450 278 (subpatch) 0;
#X array pit2 100 float 2;
#X coords 0 100 100 0 240 200 1 0 0;
#X restore 661 299 graph;
#N canvas 0 22 450 278 (subpatch) 0;
#X array pit1 100 float 2;
#X coords 0 100 100 0 240 200 1 0 0;
#X restore 661 79 graph;
#X obj 300 884 array set pit1;
#X obj 535 851 array set pit2;
#X msg 523 546 \; pit1 const 0 \; pit2 const 0;
#X obj 213 691 f, f 2;
#X obj 235 691 - 1;
#X obj 392 702 f, f 2;
#X obj 416 702 - 1;
#X obj 167 426 s tensec;
#X obj 262 758 route 0;
#X obj 449 755 route 0;
#X obj 194 147 t b b, f 15;
#X msg 194 171 1;
#X msg 318 372 0;
#X obj 4 119 bng 15 250 50 0 empty empty empty 17 7 0 10 #fcfcfc #000000
#000000;
#X obj 449 662 t f f;
#X obj 261 647 t f f;
#X obj 4 162 bng 15 250 50 0 empty empty empty 17 7 0 10 #fcfcfc #000000
#000000;
#X floatatom 4 210 5 0 0 0 - - - 0;
#X obj 261 622 % 18, f 6;
#X obj 300 560 r mainlength;
#X obj 449 638 % 18, f 6;
#X obj 308 791 list split 1;
#X obj 495 794 list split 1;
#X obj 488 948 line;
#X obj 488 1020 s mainctrl;
#X obj 497 879 * 0.015;
#X obj 193 92 del 10;
#X obj 664 841 list length;
#X floatatom 649 892 5 0 0 0 - - - 0;
#X obj 669 867 s pit2length;
#X msg 52 245 10;
#X msg 98 240 20;
#X obj 195 376 % 6;
#X obj 262 327 / 6;
#X obj 441 18 r starttime;
#X floatatom 151 713 5 0 0 0 - - - 0;
#X obj 557 602 r textsetter;
#X obj 447 313 r cyclelength;
#X obj 309 593 text size;
#X obj 261 721 text get;
#X obj 450 729 text get;
#X floatatom 515 258 5 0 0 0 - - - 0;
#X obj 376 141 tgl 15 0 empty empty empty 17 7 0 10 #fcfcfc #000000
#000000 0 1;
#X obj 441 128 del 10;
#X obj 193 68 loadbang;
#X msg 385 321 \$1;
#X obj 261 528 t f b f;
#X obj 363 498 s bnumb;
#X obj 491 208 * 60;
#X obj 515 234 +;
#X obj 767 712 text get inits;
#X msg 910 592 read inits.txt;
#X obj 838 541 t b b;
#X obj 759 591 text size inits;
#X obj 759 615 until;
#X obj 759 639 f;
#X obj 792 638 + 1;
#X obj 910 619 text define -k inits;
#A set compset threshold -16 \; compset ratio 3 \; compset response
40 \; compset gain 0 \; compset rmspeak 0 \; compset lookahead 0 \;
;
#X msg 797 835 \; \$1 \$2 \$3;
#X obj 838 517 r reader;
#X obj 730 556 loadbang;
#X obj 711 631 bng 15 250 50 0 empty empty empty 17 7 0 10 #fcfcfc
#000000 #000000;
#X obj 896 807 s cyclelength;
#X obj 970 720 loadbang;
#X msg 970 744 10;
#X obj 15 878 s time;
#X msg 22 789 label \$1;
#X obj 358 826 list length;
#X obj 363 852 s pit1length;
#X obj 79 631 f;
#X obj 139 766 loadbang;
#X obj 45 715 spigot 0;
#X obj 178 588 t b b;
#X msg 176 631 1;
#X msg 496 915 \$1 5000;
#X obj 484 830 pipe 2500;
#X msg 138 798 label empty;
#X obj 132 840 s chords;
#X obj 177 529 r timeshow;
#N canvas 585 610 450 300 int2sym 0;
#X obj 168 174 list;
#X obj 51 116 t f f;
#X obj 51 208 sel 0;
#X obj 83 137 t f f;
#X obj 83 159 spigot;
#X obj 193 151 t l l;
#X obj 51 230 t b b;
#X obj 51 48 t f f;
#X obj 193 65 % 10;
#X obj 51 93 i;
#X obj 51 70 / 10;
#X obj 193 129 list append;
#X obj 193 87 + 48;
#X obj 168 196 list tosymbol;
#X obj 51 23 inlet;
#X obj 168 218 outlet;
#X connect 0 0 13 0;
#X connect 1 0 2 0;
#X connect 1 1 3 0;
#X connect 2 0 6 0;
#X connect 3 0 4 0;
#X connect 3 1 4 1;
#X connect 4 0 7 0;
#X connect 5 0 0 1;
#X connect 5 1 11 1;
#X connect 6 0 0 0;
#X connect 6 1 11 1;
#X connect 7 0 10 0;
#X connect 7 1 8 0;
#X connect 8 0 12 0;
#X connect 9 0 1 0;
#X connect 10 0 9 0;
#X connect 11 0 5 0;
#X connect 12 0 11 0;
#X connect 13 0 15 0;
#X connect 14 0 7 0;
#X restore 24 746 pd int2sym;
#X msg 419 160 zexy;
#X msg 476 153 time;
#X obj 441 61 moses 90000;
#X msg 481 101 bang;
#X connect 0 0 1 0;
#X connect 1 0 2 0;
#X connect 1 0 3 0;
#X connect 1 0 44 0;
#X connect 1 0 45 0;
#X connect 2 0 1 1;
#X connect 4 0 0 0;
#X connect 7 0 32 0;
#X connect 8 0 9 0;
#X connect 9 0 6 0;
#X connect 9 0 58 0;
#X connect 15 0 16 0;
#X connect 16 0 15 1;
#X connect 16 0 47 0;
#X connect 16 0 51 0;
#X connect 17 0 18 0;
#X connect 18 0 17 1;
#X connect 18 0 52 0;
#X connect 20 0 15 0;
#X connect 20 1 33 0;
#X connect 21 0 17 0;
#X connect 21 1 34 0;
#X connect 22 0 23 0;
#X connect 22 1 24 0;
#X connect 23 0 4 0;
#X connect 24 0 58 0;
#X connect 25 0 22 0;
#X connect 26 0 52 0;
#X connect 26 1 17 1;
#X connect 27 0 51 0;
#X connect 27 1 15 1;
#X connect 30 0 27 0;
#X connect 30 0 81 0;
#X connect 31 0 50 0;
#X connect 32 0 26 0;
#X connect 33 1 12 0;
#X connect 33 1 79 0;
#X connect 34 0 87 0;
#X connect 34 1 13 0;
#X connect 34 1 39 0;
#X connect 35 0 36 0;
#X connect 37 0 86 0;
#X connect 38 0 22 0;
#X connect 39 0 40 0;
#X connect 39 0 41 0;
#X connect 42 0 1 0;
#X connect 43 0 1 0;
#X connect 44 0 19 0;
#X connect 44 0 5 0;
#X connect 45 0 8 0;
#X connect 46 0 1 1;
#X connect 46 0 94 0;
#X connect 48 0 50 1;
#X connect 48 0 51 3;
#X connect 48 0 52 3;
#X connect 49 0 57 0;
#X connect 50 0 30 1;
#X connect 50 0 32 1;
#X connect 51 0 20 0;
#X connect 52 0 21 0;
#X connect 53 0 1 1;
#X connect 56 0 38 0;
#X connect 57 0 45 1;
#X connect 57 0 44 1;
#X connect 58 0 7 0;
#X connect 58 0 30 0;
#X connect 58 1 14 0;
#X connect 58 2 59 0;
#X connect 60 0 61 0;
#X connect 61 0 53 0;
#X connect 62 0 70 0;
#X connect 63 0 69 0;
#X connect 64 1 63 0;
#X connect 65 0 66 0;
#X connect 66 0 67 0;
#X connect 67 0 68 0;
#X connect 67 0 62 0;
#X connect 68 0 67 1;
#X connect 71 0 64 0;
#X connect 72 0 65 0;
#X connect 73 0 65 0;
#X connect 75 0 76 0;
#X connect 76 0 74 0;
#X connect 78 0 77 0;
#X connect 79 0 80 0;
#X connect 81 0 83 0;
#X connect 82 0 88 0;
#X connect 83 0 91 0;
#X connect 84 0 81 0;
#X connect 84 1 85 0;
#X connect 85 0 83 1;
#X connect 86 0 35 0;
#X connect 87 0 37 0;
#X connect 88 0 77 0;
#X connect 88 0 89 0;
#X connect 90 0 84 0;
#X connect 91 0 78 0;
#X connect 94 0 54 0;
#X connect 94 1 95 0;
#X connect 95 0 55 0;
#X restore 2 40 pd shifter;
#X restore 12 49 pd counter;
#N canvas 1625 149 844 1005 mode 0;
#X obj 471 883 s mchordsize;
#X obj 397 883 s mdensity;
#X obj 344 883 s maggr;
#X obj 270 883 s mbreadth;
#X obj 206 883 s mroc;
#X obj 146 883 s mactiv;
#N canvas 666 257 642 779 a 0;
#X obj 80 681 outlet;
#X obj 79 414 random 100;
#X obj 79 467 + 0, f 5;
#X obj 80 491 pack f f;
#X obj 80 633 i;
#X obj 79 364 metro 1000, f 21;
#X obj 79 515 line;
#X obj 79 283 unpack f f f, f 21;
#X obj 133 317 -;
#X obj 146 342 * -1;
#X obj 79 320 t b f;
#X obj 79 241 r sactiv;
#X obj 106 551 r mainctrl;
#X obj 88 584 clip 0 100;
#X obj 88 568 * 1;
#X connect 1 0 2 0;
#X connect 2 0 3 0;
#X connect 3 0 6 0;
#X connect 4 0 0 0;
#X connect 5 0 1 0;
#X connect 6 0 14 0;
#X connect 7 0 10 0;
#X connect 7 0 8 0;
#X connect 7 1 8 1;
#X connect 7 2 5 1;
#X connect 7 2 3 1;
#X connect 8 0 9 0;
#X connect 9 0 1 1;
#X connect 10 0 5 0;
#X connect 10 1 2 1;
#X connect 11 0 7 0;
#X connect 12 0 14 1;
#X connect 13 0 4 0;
#X connect 14 0 13 0;
#X restore 146 856 pd a;
#N canvas 132 25 642 692 b 0;
#X obj 74 648 outlet;
#X obj 79 414 random 100;
#X obj 79 467 + 0, f 5;
#X obj 80 491 pack f f;
#X obj 79 364 metro 1000, f 21;
#X obj 79 515 line;
#X obj 79 283 unpack f f f, f 21;
#X obj 133 317 -;
#X obj 146 342 * -1;
#X obj 79 320 t b f;
#X obj 79 241 r sbreadth;
#X obj 106 551 r mainctrl;
#X obj 88 584 clip 0 100;
#X obj 88 568 * 1;
#X obj 102 617 i;
#X connect 1 0 2 0;
#X connect 2 0 3 0;
#X connect 3 0 5 0;
#X connect 4 0 1 0;
#X connect 5 0 13 0;
#X connect 6 0 9 0;
#X connect 6 0 7 0;
#X connect 6 1 7 1;
#X connect 6 2 4 1;
#X connect 6 2 3 1;
#X connect 7 0 8 0;
#X connect 8 0 1 1;
#X connect 9 0 4 0;
#X connect 9 1 2 1;
#X connect 10 0 6 0;
#X connect 11 0 13 1;
#X connect 12 0 14 0;
#X connect 13 0 12 0;
#X connect 14 0 0 0;
#X restore 270 856 pd b;
#N canvas 132 25 642 692 agg 0;
#X obj 79 644 outlet;
#X obj 79 414 random 100;
#X obj 79 467 + 0, f 5;
#X obj 80 491 pack f f;
#X obj 79 364 metro 1000, f 21;
#X obj 79 515 line;
#X obj 79 283 unpack f f f, f 21;
#X obj 133 317 -;
#X obj 146 342 * -1;
#X obj 79 320 t b f;
#X obj 79 241 r saggr;
#X obj 120 531 r mainctrl;
#X obj 89 584 clip 0 100;
#X obj 81 558 * 1;
#X obj 89 608 i;
#X floatatom 210 571 5 0 0 0 - - - 0;
#X floatatom 167 641 5 0 0 0 - - - 0;
#X floatatom 245 442 5 0 0 0 - - - 0;
#X floatatom 280 539 5 0 0 0 - - - 0;
#X connect 1 0 2 0;
#X connect 1 0 17 0;
#X connect 2 0 3 0;
#X connect 2 0 18 0;
#X connect 3 0 5 0;
#X connect 4 0 1 0;
#X connect 5 0 13 0;
#X connect 6 0 9 0;
#X connect 6 0 7 0;
#X connect 6 1 7 1;
#X connect 6 2 4 1;
#X connect 6 2 3 1;
#X connect 7 0 8 0;
#X connect 8 0 1 1;
#X connect 9 0 4 0;
#X connect 9 1 2 1;
#X connect 10 0 6 0;
#X connect 11 0 13 1;
#X connect 11 0 15 0;
#X connect 12 0 14 0;
#X connect 13 0 12 0;
#X connect 14 0 0 0;
#X connect 14 0 16 0;
#X restore 344 856 pd agg;
#N canvas 120 25 642 692 d 0;
#X obj 79 679 outlet;
#X obj 83 330 random 100;
#X obj 83 383 + 0, f 5;
#X obj 84 407 pack f f;
#X obj 82 641 i;
#X obj 83 280 metro 1000, f 21;
#X obj 83 431 line;
#X obj 83 199 unpack f f f, f 21;
#X obj 133 317 -;
#X obj 146 342 * -1;
#X obj 83 236 t b f;
#X obj 83 157 r sdensity;
#X obj 101 464 r cdensity;
#X obj 101 488 / 100;
#X obj 170 561 r mainctrl;
#X obj 152 594 clip 0 100;
#X obj 152 578 * 1;
#X obj 83 518 * 1;
#X connect 1 0 2 0;
#X connect 2 0 3 0;
#X connect 3 0 6 0;
#X connect 4 0 0 0;
#X connect 5 0 1 0;
#X connect 6 0 17 0;
#X connect 7 0 10 0;
#X connect 7 0 8 0;
#X connect 7 1 8 1;
#X connect 7 2 5 1;
#X connect 7 2 3 1;
#X connect 8 0 9 0;
#X connect 9 0 1 1;
#X connect 10 0 5 0;
#X connect 10 1 2 1;
#X connect 11 0 7 0;
#X connect 12 0 13 0;
#X connect 13 0 17 1;
#X connect 14 0 16 1;
#X connect 15 0 4 0;
#X connect 16 0 15 0;
#X connect 17 0 16 0;
#X restore 397 856 pd d;
#N canvas 132 25 642 692 c 0;
#X obj 81 678 outlet;
#X obj 79 414 random 100;
#X obj 79 467 + 0, f 5;
#X obj 80 491 pack f f;
#X obj 81 630 i;
#X obj 79 364 metro 1000, f 21;
#X obj 79 515 line;
#X obj 79 283 unpack f f f, f 21;
#X obj 133 317 -;
#X obj 146 342 * -1;
#X obj 79 320 t b f;
#X obj 79 241 r schordsize;
#X obj 106 551 r mainctrl;
#X obj 88 568 * 1;
#X obj 89 596 clip 1 100;
#X connect 1 0 2 0;
#X connect 2 0 3 0;
#X connect 3 0 6 0;
#X connect 4 0 0 0;
#X connect 5 0 1 0;
#X connect 6 0 13 0;
#X connect 7 0 10 0;
#X connect 7 0 8 0;
#X connect 7 1 8 1;
#X connect 7 2 5 1;
#X connect 7 2 3 1;
#X connect 8 0 9 0;
#X connect 9 0 1 1;
#X connect 10 0 5 0;
#X connect 10 1 2 1;
#X connect 11 0 7 0;
#X connect 12 0 13 1;
#X connect 13 0 14 0;
#X connect 14 0 4 0;
#X restore 471 856 pd c;
#X obj 206 856 r sroc;
#X msg 146 931 /100 \, \, lo hi (s) \, \, /100 \, \, \, /100 /100 no.
;
#N canvas 120 25 642 692 p 0;
#X obj 79 679 outlet;
#X obj 83 330 random 100;
#X obj 83 383 + 0, f 5;
#X obj 84 407 pack f f;
#X obj 82 641 i;
#X obj 83 280 metro 1000, f 21;
#X obj 83 431 line;
#X obj 83 199 unpack f f f, f 21;
#X obj 133 317 -;
#X obj 146 342 * -1;
#X obj 83 236 t b f;
#X obj 101 464 r cdensity;
#X obj 101 488 / 100;
#X obj 170 561 r mainctrl;
#X obj 152 594 clip 0 100;
#X obj 152 578 * 1;
#X obj 83 518 * 1;
#X obj 83 157 r spauses;
#X connect 1 0 2 0;
#X connect 2 0 3 0;
#X connect 3 0 6 0;
#X connect 4 0 0 0;
#X connect 5 0 1 0;
#X connect 6 0 16 0;
#X connect 7 0 10 0;
#X connect 7 0 8 0;
#X connect 7 1 8 1;
#X connect 7 2 5 1;
#X connect 7 2 3 1;
#X connect 8 0 9 0;
#X connect 9 0 1 1;
#X connect 10 0 5 0;
#X connect 10 1 2 1;
#X connect 11 0 12 0;
#X connect 12 0 16 1;
#X connect 13 0 15 1;
#X connect 14 0 4 0;
#X connect 15 0 14 0;
#X connect 16 0 15 0;
#X connect 17 0 7 0;
#X restore 562 856 pd p;
#X obj 562 883 s mpauses;
#X obj 133 375 spigot 1;
#X msg 396 130 read modes.txt;
#X obj 165 453 text get modes;
#X obj 200 374 text size modes;
#X obj 396 154 text define -k modes;
#A set 40 60 1.5 4 80 100 80 100 0 20 1 2 50 80 \; 0 40 1 2 50 100
0 7 0 20 5 7 20 50 \; 80 99 0.1 1 60 70 77 99 88 99 1 1 5 15 \; 0 100
0.1 15 0 100 0 100 0 100 1 10 0 100 \; 70 100 2 4 0 25 40 60 90 100
2 3 20 80 \; 99 100 3 7 90 100 0 20 0 25 3 7 20 40 \;;
#X obj 119 15 r starttime;
#X obj 153 81 s pitcsel;
#X obj 133 346 + 0;
#X obj 133 405 % 8, f 10;
#X obj 133 430 t f f;
#X obj 133 608 text get moods;
#X msg 408 83 read moods.txt;
#X obj 408 107 text define -k moods;
#A set imperious domineering resolute steadfast stalwart \; languorous
sedate luxurious leisurely unhurried relaxed lazy gentle \; vibrant
effervescent energetic animated vivacious dynamic flamboyant \; chaotic
unpredictable wild mercurial erratic disorderly \; thoughtful pensive
reflective contemplative ruminative introspective \; restless fidgety
anxious worried uneasy agitated unquiet jittery \;;
#X obj 133 636 s 2ndlabel;
#X msg 165 477 \; sactiv \$1 \$2 10000 \; sroc \$3 \$4 \; sbreadth
\$5 \$6 1000 \; saggr \$7 \$8 1000 \; sdensity \$9 \$10 10000 \; schordsize
\$11 \$12 10000 \; spauses \$13 \$14 10000 \;, f 48;
#X obj 133 321 random 20;
#X obj 101 213 t b f b;
#X obj 170 100 s titler;
#X obj 187 119 s moodnumb;
#X obj 204 138 s creaturesel;
#X obj 221 157 s sublb;
#X obj 119 44 t f b f b b f b;
#X obj 101 262 t b b;
#X obj 101 288 s textgo;
#X obj 27 83 r mainclick;
#X obj 101 145 f;
#X obj 396 58 r reader;
#X connect 6 0 5 0;
#X connect 7 0 3 0;
#X connect 8 0 2 0;
#X connect 9 0 1 0;
#X connect 10 0 0 0;
#X connect 11 0 4 0;
#X connect 13 0 14 0;
#X connect 15 0 23 0;
#X connect 16 0 19 0;
#X connect 17 0 29 0;
#X connect 18 0 23 1;
#X connect 20 0 36 0;
#X connect 22 0 15 0;
#X connect 23 0 24 0;
#X connect 24 0 25 0;
#X connect 24 1 17 0;
#X connect 25 0 28 0;
#X connect 26 0 27 0;
#X connect 30 0 22 0;
#X connect 31 0 37 0;
#X connect 31 1 22 1;
#X connect 31 2 18 0;
#X connect 36 0 40 1;
#X connect 36 2 21 0;
#X connect 36 3 32 0;
#X connect 36 4 33 0;
#X connect 36 5 34 0;
#X connect 36 6 35 0;
#X connect 37 0 38 0;
#X connect 37 1 30 0;
#X connect 39 0 40 0;
#X connect 40 0 31 0;
#X connect 41 0 16 0;
#X connect 41 0 26 0;
#X restore 12 68 pd mode;
#N canvas 879 191 1680 983 output 0;
#X obj 736 953 dac~;
#X obj 249 825 lop~ 2700;
#X obj 1225 860 lop~ 2700;
#N canvas 457 346 1631 1066 leftcomp 0;
#X obj 252 640 outlet~;
#X obj 252 506 *~;
#X obj 252 614 *~;
#N canvas 353 378 450 300 delWrite 0;
#X obj 68 80 delwrite~ leftchan-comp 500;
#X obj 68 39 inlet~;
#X obj 68 156 outlet~;
#X connect 1 0 0 0;
#X restore 85 289 pd delWrite;
#X obj 481 393 dbtorms;
#X obj 533 364 /;
#X obj 533 333 swap 1;
#X obj 641 340 /;
#X obj 641 318 swap 1000;
#X obj 267 466 lop~;
#X obj 267 411 clip~ 0 1;
#X obj 481 415 s leftchan-thresh;
#X obj 588 386 s leftchan-ratio;
#X obj 267 589 line~;
#X obj 267 544 r leftchan-gain;
#X obj 670 288 s leftchan-gain;
#N canvas 457 578 872 621 rms 0;
#X obj 257 107 env~ 512;
#X obj 257 245 -~;
#X obj 257 293 *~;
#X obj 257 345 +~;
#X obj 257 385 /~;
#X obj 378 221 +~ 0;
#X obj 323 178 r leftchan-thresh;
#X obj 272 318 r leftchan-thresh;
#X obj 272 269 r leftchan-ratio;
#X obj 257 34 inlet~;
#X obj 257 454 outlet~;
#X obj 257 135 dbtorms~;
#X connect 0 0 11 0;
#X connect 1 0 2 0;
#X connect 2 0 3 0;
#X connect 3 0 4 0;
#X connect 4 0 10 0;
#X connect 5 0 4 1;
#X connect 6 0 1 1;
#X connect 7 0 3 1;
#X connect 8 0 2 1;
#X connect 9 0 0 0;
#X connect 11 0 1 0;
#X connect 11 0 5 0;
#X restore 267 288 pd rms;
#X obj 85 32 inlet~;
#X obj 818 242 s leftchan-rmspeak;
#X obj 870 218 s leftchan-lookahead;
#X obj 142 341 r leftchan-lookahead;
#X obj 477 142 route threshold ratio response gain rmspeak lookahead
;
#X obj 481 358 + 100;
#X obj 671 237 + 100;
#X obj 671 259 dbtorms;
#X obj 288 444 r leftchan-response;
#X obj 641 362 s leftchan-response;
#N canvas 382 407 450 300 delRead 0;
#X obj 68 41 inlet~;
#X obj 133 155 outlet~;
#X obj 133 42 inlet lookAhead;
#X obj 133 116 delread~ leftchan-comp 0;
#X connect 2 0 3 0;
#X connect 3 0 1 0;
#X restore 80 399 pd delRead;
#X obj 462 89 r compset;
#X floatatom 497 280 5 0 0 0 - - - 0;
#X obj 267 568 pack f 5;
#X connect 1 0 2 0;
#X connect 2 0 0 0;
#X connect 3 0 27 0;
#X connect 4 0 11 0;
#X connect 5 0 12 0;
#X connect 6 0 5 0;
#X connect 6 1 5 1;
#X connect 7 0 26 0;
#X connect 8 0 7 0;
#X connect 8 1 7 1;
#X connect 9 0 1 1;
#X connect 10 0 9 0;
#X connect 13 0 2 1;
#X connect 14 0 30 0;
#X connect 16 0 10 0;
#X connect 17 0 3 0;
#X connect 17 0 16 0;
#X connect 20 0 27 1;
#X connect 21 0 22 0;
#X connect 21 0 29 0;
#X connect 21 1 6 0;
#X connect 21 2 8 0;
#X connect 21 3 23 0;
#X connect 21 4 18 0;
#X connect 21 5 19 0;
#X connect 22 0 4 0;
#X connect 23 0 24 0;
#X connect 24 0 15 0;
#X connect 25 0 9 1;
#X connect 27 0 1 0;
#X connect 28 0 21 0;
#X connect 30 0 13 0;
#X restore 616 409 pd leftcomp;
#N canvas 0 25 1027 790 rightcomp 0;
#X obj 252 640 outlet~;
#X obj 252 506 *~;
#X obj 252 614 *~;
#N canvas 0 25 450 300 delWrite 0;
#X obj 68 80 delwrite~ rightchan-comp 500;
#X obj 68 39 inlet~;
#X obj 68 156 outlet~;
#X connect 1 0 0 0;
#X restore 85 289 pd delWrite;
#X obj 481 393 dbtorms;
#X obj 533 364 /;
#X obj 533 333 swap 1;
#X obj 586 340 /;
#X obj 586 318 swap 1000;
#X obj 267 466 lop~;
#X obj 267 411 clip~ 0 1;
#X obj 481 415 s rightchan-thresh;
#X obj 533 386 s rightchan-ratio;
#X obj 267 589 line~;
#X obj 267 568 pack f 5;
#X obj 267 544 r rightchan-gain;
#X obj 638 297 s rightchan-gain;
#N canvas 0 25 872 621 rms 0;
#X obj 257 107 env~ 512;
#X obj 257 245 -~;
#X obj 257 293 *~;
#X obj 257 345 +~;
#X obj 257 385 /~;
#X obj 378 221 +~ 0;
#X obj 349 163 r rightchan-thresh;
#X obj 272 318 r rightchan-thresh;
#X obj 272 269 r rightchan-ratio;
#X obj 257 34 inlet~;
#X obj 257 407 outlet~;
#X obj 257 135 dbtorms~;
#X connect 0 0 11 0;
#X connect 1 0 2 0;
#X connect 2 0 3 0;
#X connect 3 0 4 0;
#X connect 4 0 10 0;
#X connect 5 0 4 1;
#X connect 6 0 1 1;
#X connect 7 0 3 1;
#X connect 8 0 2 1;
#X connect 9 0 0 0;
#X connect 11 0 1 0;
#X connect 11 0 5 0;
#X restore 267 288 pd rms;
#X obj 85 32 inlet~;
#X obj 691 271 s rightchan-rmspeak;
#X obj 743 247 s rightchan-lookahead;
#X obj 142 341 r rightchan-lookahead;
#X obj 481 223 route threshold ratio response gain rmspeak lookahead
;
#X obj 482 129 t a a;
#X obj 481 358 + 100;
#X obj 638 251 + 100;
#X obj 638 273 dbtorms;
#X obj 288 444 r rightchan-response;
#X obj 586 362 s rightchan-response;
#N canvas 0 25 450 300 delRead 0;
#X obj 68 41 inlet~;
#X obj 133 155 outlet~;
#X obj 133 42 inlet lookAhead;
#X obj 133 116 delread~ rightchan-comp 0;
#X connect 2 0 3 0;
#X connect 3 0 1 0;
#X restore 85 365 pd delRead;
#X obj 485 75 r compset;
#X floatatom 493 254 5 0 0 0 - - - 0;
#X connect 1 0 2 0;
#X connect 2 0 0 0;
#X connect 3 0 29 0;
#X connect 4 0 11 0;
#X connect 5 0 12 0;
#X connect 6 0 5 0;
#X connect 6 1 5 1;
#X connect 7 0 28 0;
#X connect 8 0 7 0;
#X connect 8 1 7 1;
#X connect 9 0 1 1;
#X connect 10 0 9 0;
#X connect 13 0 2 1;
#X connect 14 0 13 0;
#X connect 15 0 14 0;
#X connect 17 0 10 0;
#X connect 18 0 3 0;
#X connect 18 0 17 0;
#X connect 21 0 29 1;
#X connect 22 0 24 0;
#X connect 22 0 31 0;
#X connect 22 1 6 0;
#X connect 22 2 8 0;
#X connect 22 3 25 0;
#X connect 22 4 19 0;
#X connect 22 5 20 0;
#X connect 23 0 22 0;
#X connect 24 0 4 0;
#X connect 25 0 26 0;
#X connect 26 0 16 0;
#X connect 27 0 9 1;
#X connect 29 0 1 0;
#X connect 30 0 23 0;
#X restore 905 518 pd rightcomp;
#X obj 712 920 s loudness;
#X obj 712 896 env~ 8192;
#X obj 231 758 clip~ -1.5 1.5;
#X obj 1225 738 clip~ -1.5 1.5;
#X obj 231 687 *~ 0.7;
#X obj 1225 692 *~ 0.7;
#X obj 285 344 catch~ left;
#X obj 1006 57 catch~ right;
#X connect 1 0 6 0;
#X connect 1 0 0 0;
#X connect 2 0 6 0;
#X connect 2 0 0 1;
#X connect 6 0 5 0;
#X connect 7 0 1 0;
#X connect 8 0 2 0;
#X connect 9 0 7 0;
#X connect 10 0 8 0;
#X connect 11 0 9 0;
#X connect 12 0 10 0;
#X restore 12 87 pd output;
#X obj 131 7 loadbang;
#X msg 40 651 100;
#X obj 40 676 osc~;
#X obj 40 711 *~;
#X obj 40 743 dac~;
#X obj 296 6 r mainclick;
#X msg 12 106 \; reader bang;
#X obj 328 103 f;
#X obj 360 103 + 1;
#X obj 328 80 until;
#X msg 328 151 \; \$1-onoff 0;
#X msg 485 1122 \; \$1-onoff 1;
#N canvas 0 25 450 300 pink 0;
#X obj 43 23 noise~;
#X obj 43 62 biquad~ 1.83221 -0.836851 0.271264 -0.456311 0.18969;
#X obj 43 82 biquad~ 0.273097 0.087865 0.505803 0.171365 -0.03813;
#X obj 43 42 biquad~ 1.98893 -0.988954 1.00554 -1.9889 0.983444;
#X obj 43 103 s~ pink;
#X connect 0 0 3 0;
#X connect 1 0 2 0;
#X connect 2 0 4 0;
#X connect 3 0 1 0;
#X restore 12 11 pd pink;
#X obj 73 589 vline~;
#X msg 73 564 0.1 10 \, 0 100 10;
#X obj 575 412 until;
#X msg 328 56 9, f 1;
#X obj 328 127 % 9;
#X obj 41 519 t b b;
#X msg 472 264 \; dualer bang;
#X obj 803 278 t f f;
#X obj 805 354 sel 1 2;
#X obj 820 190 random 2;
#X obj 805 378 s singl;
#X obj 828 414 s doubl;
#X msg 425 311 99;
#X obj 530 977 t f f;
#X obj 446 1046 sel 99;
#X obj 379 400 *;
#X obj 576 443 random 1000;
#X obj 586 493 / 1;
#X obj 675 441 r starttime;
#X obj 441 389 / 14.53;
#X floatatom 456 547 5 0 0 0 - - - 0;
#X floatatom 423 472 5 0 0 0 - - - 0;
#X floatatom 442 444 5 0 0 0 - - - 0;
#X floatatom 613 549 5 0 0 0 - - - 0;
#X msg 691 534 55;
#X obj 899 390 s pitcsel;
#X obj 898 292 spigot 0;
#X msg 925 323 1;
#X floatatom 928 351 5 0 0 0 - - - 0;
#X obj 481 102 del;
#X obj 517 32 random 200000;
#X obj 517 56 + 200000;
#X msg 131 76 \; volslideset 1;
#X obj 820 249 + 1;
#X msg 154 124 \; ismobile 13579 \; starttime 229;
#X msg 481 139 \; mainclick bang;
#X obj 532 761 + 0;
#X obj 371 455 % 9;
#X msg 532 785 \$1 \$1;
#X obj 532 809 route 99;
#X obj 585 839 route 99;
#X obj 638 870 route 99;
#X msg 740 929 bang;
#X floatatom 504 1079 5 0 0 0 - - - 0;
#X obj 296 30 t b b b b b;
#N canvas 585 610 450 300 int2sym 0;
#X obj 168 174 list;
#X obj 51 116 t f f;
#X obj 51 208 sel 0;
#X obj 83 137 t f f;
#X obj 83 159 spigot;
#X obj 193 151 t l l;
#X obj 51 230 t b b;
#X obj 51 48 t f f;
#X obj 193 65 % 10;
#X obj 51 93 i;
#X obj 51 70 / 10;
#X obj 193 129 list append;
#X obj 193 87 + 48;
#X obj 168 196 list tosymbol;
#X obj 51 23 inlet;
#X obj 168 218 outlet;
#X connect 0 0 13 0;
#X connect 1 0 2 0;
#X connect 1 1 3 0;
#X connect 2 0 6 0;
#X connect 3 0 4 0;
#X connect 3 1 4 1;
#X connect 4 0 7 0;
#X connect 5 0 0 1;
#X connect 5 1 11 1;
#X connect 6 0 0 0;
#X connect 6 1 11 1;
#X connect 7 0 10 0;
#X connect 7 1 8 0;
#X connect 8 0 12 0;
#X connect 9 0 1 0;
#X connect 10 0 9 0;
#X connect 11 0 5 0;
#X connect 12 0 11 0;
#X connect 13 0 15 0;
#X connect 14 0 7 0;
#X restore 908 1118 pd int2sym;
#X msg 908 1142 label \$1;
#X obj 908 1166 s debug;
#X obj 907 1080 r debugger;
#X obj 1139 434 s debugger;
#X obj 213 236 metro 10;
#X obj 309 291 f;
#X obj 341 291 + 1;
#X obj 286 333 f;
#X obj 1161 137 f;
#X obj 1193 137 + 1;
#X obj 1161 114 until;
#X msg 1161 90 9, f 1;
#X obj 1161 161 % 9;
#X msg 1161 185 \; \$1-onoff 1;
#X obj 675 478 moses 90000;
#X obj 895 679 sel 0 1 2 3 4 5, f 21;
#X obj 909 919 unpack f f f;
#X obj 1105 753 sel 6 7 8 9 10 11, f 21;
#X msg 896 718 0 1 2;
#X msg 913 756 3 4 5;
#X msg 929 795 6 7 8;
#X msg 990 718 0 3 6;
#X msg 1000 759 1 4 7;
#X msg 1006 798 2 5 8;
#X msg 1105 792 0 4 8;
#X msg 1122 830 1 5 6;
#X msg 1138 869 2 3 7;
#X msg 1199 792 0 5 7;
#X msg 1209 833 1 3 8;
#X msg 1215 872 2 4 6;
#X obj 895 619 r selec;
#X obj 923 563 list;
#X obj 647 616 r pgst;
#X obj 647 640 t b f;
#X obj 647 664 f;
#X obj 647 688 + 1;
#X obj 647 712 pack f f;
#X obj 647 736 route 1 2 3;
#X msg 880 56 slugslugslug;
#X obj 820 225 % 2;
#X obj 1011 63 r singlemaker;
#X msg 1011 87 1;
#X obj 15 212 s singlemaker;
#X obj 131 32 t b b b b;
#X connect 4 0 106 0;
#X connect 5 0 6 0;
#X connect 6 0 7 0;
#X connect 7 0 8 0;
#X connect 7 0 8 1;
#X connect 9 0 61 0;
#X connect 11 0 12 0;
#X connect 11 0 21 0;
#X connect 12 0 11 1;
#X connect 13 0 11 0;
#X connect 17 0 7 1;
#X connect 18 0 17 0;
#X connect 19 0 33 0;
#X connect 20 0 13 0;
#X connect 21 0 14 0;
#X connect 22 0 5 0;
#X connect 22 1 18 0;
#X connect 24 0 19 0;
#X connect 24 1 25 0;
#X connect 25 0 27 0;
#X connect 25 1 28 0;
#X connect 26 0 102 0;
#X connect 29 0 31 1;
#X connect 30 0 31 1;
#X connect 30 1 31 0;
#X connect 31 0 33 0;
#X connect 31 1 15 0;
#X connect 31 1 60 0;
#X connect 32 0 38 0;
#X connect 32 0 54 0;
#X connect 33 0 34 0;
#X connect 34 0 32 0;
#X connect 34 0 40 0;
#X connect 35 0 34 1;
#X connect 35 0 77 0;
#X connect 36 0 32 1;
#X connect 36 0 39 0;
#X connect 36 0 26 1;
#X connect 39 0 43 0;
#X connect 41 0 34 1;
#X connect 43 0 42 0;
#X connect 43 0 44 0;
#X connect 43 0 45 0;
#X connect 44 0 43 1;
#X connect 46 0 52 0;
#X connect 47 0 48 0;
#X connect 48 0 46 0;
#X connect 50 0 24 0;
#X connect 53 0 55 0;
#X connect 54 0 37 0;
#X connect 54 0 53 0;
#X connect 55 0 56 0;
#X connect 56 0 30 0;
#X connect 56 1 57 0;
#X connect 57 0 30 0;
#X connect 57 1 58 0;
#X connect 58 0 30 0;
#X connect 58 1 59 0;
#X connect 59 0 33 0;
#X connect 61 0 26 0;
#X connect 61 1 20 0;
#X connect 61 2 23 0;
#X connect 61 2 29 0;
#X connect 61 3 47 0;
#X connect 61 3 70 0;
#X connect 62 0 63 0;
#X connect 63 0 64 0;
#X connect 65 0 62 0;
#X connect 67 0 68 0;
#X connect 68 0 69 0;
#X connect 69 0 68 1;
#X connect 69 0 70 1;
#X connect 70 0 36 0;
#X connect 71 0 72 0;
#X connect 71 0 75 0;
#X connect 72 0 71 1;
#X connect 73 0 71 0;
#X connect 74 0 73 0;
#X connect 75 0 76 0;
#X connect 77 0 34 1;
#X connect 77 1 41 0;
#X connect 78 0 81 0;
#X connect 78 1 82 0;
#X connect 78 2 83 0;
#X connect 78 3 84 0;
#X connect 78 4 85 0;
#X connect 78 5 86 0;
#X connect 78 6 80 0;
#X connect 80 0 87 0;
#X connect 80 1 88 0;
#X connect 80 2 89 0;
#X connect 80 3 90 0;
#X connect 80 4 91 0;
#X connect 80 5 92 0;
#X connect 81 0 79 0;
#X connect 82 0 79 0;
#X connect 83 0 79 0;
#X connect 84 0 79 0;
#X connect 85 0 79 0;
#X connect 86 0 79 0;
#X connect 87 0 79 0;
#X connect 88 0 79 0;
#X connect 89 0 79 0;
#X connect 90 0 79 0;
#X connect 91 0 79 0;
#X connect 92 0 79 0;
#X connect 93 0 78 0;
#X connect 95 0 96 0;
#X connect 96 0 97 0;
#X connect 96 1 99 1;
#X connect 97 0 98 0;
#X connect 98 0 99 0;
#X connect 98 0 97 1;
#X connect 99 0 100 0;
#X connect 100 0 56 1;
#X connect 100 1 57 1;
#X connect 100 2 58 1;
#X connect 102 0 50 0;
#X connect 103 0 104 0;
#X connect 104 0 102 1;
#X connect 106 0 49 0;
#X connect 106 1 51 0;
#X connect 106 2 22 0;
#X connect 106 2 20 0;
#X connect 106 2 67 0;
#X connect 106 3 105 0;
#X restore 391 28 pd c;
#N canvas 211 44 2133 1333 (subpatch) 0;
#X obj 585 564 unpack f f f;
#X obj 399 753 / 127;
#X obj 559 699 / 127;
#X obj 733 708 / 127;
#X obj 399 807 + 5;
#X obj 559 753 + 5;
#X obj 733 762 + 5;
#X obj 733 732 * 45;
#X obj 399 777 * 20;
#X obj 559 723 * 20;
#N canvas 169 25 1028 909 formant-frequencies 0;
#X msg 61 638 270 2300 3000;
#X msg 71 606 400 2000 2550;
#X msg 87 578 530 1850 2500;
#X msg 103 549 660 1700 2400;
#X msg 121 519 730 1100 2450;
#X msg 143 488 570 850 2400;
#X msg 155 461 440 1000 2250;
#X msg 176 438 300 850 2250;
#X msg 193 405 640 1200 2400;
#X msg 211 379 490 1350 1700;
#X obj 58 687 outlet;
#X obj 62 37 / 127;
#X obj 62 13 inlet;
#X obj 62 85 i;
#X msg 231 355 300 2800 3300;
#X msg 250 325 430 2500 3100;
#X msg 262 302 600 2350 3000;
#X msg 277 277 860 2050 2850;
#X msg 296 252 850 1200 2800;
#X msg 310 230 590 900 2700;
#X msg 328 205 470 1150 2700;
#X msg 345 181 370 950 2650;
#X msg 361 156 760 1400 2800;
#X msg 378 135 500 1650 1950;
#X obj 62 111 route 1 2 3 4 5 6 7 8 9 10 11 12 13 14 15 16 17 18 19
20;
#X obj 62 62 * 20;
#X connect 0 0 10 0;
#X connect 1 0 10 0;
#X connect 2 0 10 0;
#X connect 3 0 10 0;
#X connect 4 0 10 0;
#X connect 5 0 10 0;
#X connect 6 0 10 0;
#X connect 7 0 10 0;
#X connect 8 0 10 0;
#X connect 9 0 10 0;
#X connect 11 0 25 0;
#X connect 12 0 11 0;
#X connect 13 0 24 0;
#X connect 14 0 10 0;
#X connect 15 0 10 0;
#X connect 16 0 10 0;
#X connect 17 0 10 0;
#X connect 18 0 10 0;
#X connect 19 0 10 0;
#X connect 20 0 10 0;
#X connect 21 0 10 0;
#X connect 22 0 10 0;
#X connect 23 0 10 0;
#X connect 24 0 0 0;
#X connect 24 1 1 0;
#X connect 24 2 2 0;
#X connect 24 3 3 0;
#X connect 24 4 4 0;
#X connect 24 5 5 0;
#X connect 24 6 6 0;
#X connect 24 7 7 0;
#X connect 24 8 8 0;
#X connect 24 9 9 0;
#X connect 24 10 14 0;
#X connect 24 11 15 0;
#X connect 24 12 16 0;
#X connect 24 13 17 0;
#X connect 24 14 18 0;
#X connect 24 15 19 0;
#X connect 24 16 20 0;
#X connect 24 17 21 0;
#X connect 24 18 22 0;
#X connect 24 19 23 0;
#X connect 25 0 13 0;
#X restore 585 539 pd formant-frequencies;
#X obj 399 730 t f f f;
#X obj 243 729 vcf~ 207 5;
#X obj 243 773 vcf~ 207 5;
#X obj 244 830 vcf~ 207 5;
#X obj 490 800 vcf~ 2300 20;
#X obj 490 842 vcf~ 2300 20;
#X obj 490 888 vcf~ 2300 20;
#X obj 664 808 vcf~ 3000 50;
#X obj 664 836 vcf~ 3000 50;
#X obj 656 880 vcf~ 3000 50;
#X obj 585 618 line~;
#X obj 667 612 line~;
#X obj 738 610 line~;
#X obj 399 832 t f f f;
#X obj 559 775 t f f f;
#X obj 733 784 t f f f;
#X obj 504 273 +;
#X obj 585 517 moses 127;
#X obj 495 518 lop~ 2000;
#X obj 495 582 lop~ 2000;
#X obj 453 1016 *~ 0.89;
#X obj 572 1005 *~ 0.5;
#X obj 648 1002 *~ 0.77;
#X obj 1249 1030 *~ 0.89;
#X obj 1068 1011 *~ 0.5;
#X obj 585 592 pack 0 100;
#X obj 668 590 pack 0 111;
#X obj 761 588 pack 0 122;
#X obj 386 242 random 127;
#X obj 388 156 bng 15 250 50 0 empty empty empty 17 7 0 10 #fcfcfc
#000000 #000000;
#X obj 467 221 s getpit;
#X obj 726 13 r pit;
#X obj 609 227 mtof;
#X floatatom 849 514 5 0 0 0 - - - 0;
#X obj 554 300 pack f f f;
#X obj 1303 577 unpack f f f;
#X obj 1117 766 / 127;
#X obj 1277 712 / 127;
#X obj 1451 721 / 127;
#X obj 1117 820 + 5;
#X obj 1277 766 + 5;
#X obj 1451 775 + 5;
#X obj 1451 745 * 45;
#X obj 1117 790 * 20;
#X obj 1277 736 * 20;
#N canvas 169 25 515 706 formant-frequencies 0;
#X msg 61 638 270 2300 3000;
#X msg 71 606 400 2000 2550;
#X msg 87 578 530 1850 2500;
#X msg 103 549 660 1700 2400;
#X msg 121 519 730 1100 2450;
#X msg 143 488 570 850 2400;
#X msg 155 461 440 1000 2250;
#X msg 176 438 300 850 2250;
#X msg 193 405 640 1200 2400;
#X msg 211 379 490 1350 1700;
#X obj 58 687 outlet;
#X obj 62 37 / 127;
#X obj 62 13 inlet;
#X obj 62 85 i;
#X msg 231 355 300 2800 3300;
#X msg 250 325 430 2500 3100;
#X msg 262 302 600 2350 3000;
#X msg 277 277 860 2050 2850;
#X msg 296 252 850 1200 2800;
#X msg 310 230 590 900 2700;
#X msg 328 205 470 1150 2700;
#X msg 345 181 370 950 2650;
#X msg 361 156 760 1400 2800;
#X msg 378 135 500 1650 1950;
#X obj 62 111 route 1 2 3 4 5 6 7 8 9 10 11 12 13 14 15 16 17 18 19
20;
#X obj 62 62 * 20;
#X connect 0 0 10 0;
#X connect 1 0 10 0;
#X connect 2 0 10 0;
#X connect 3 0 10 0;
#X connect 4 0 10 0;
#X connect 5 0 10 0;
#X connect 6 0 10 0;
#X connect 7 0 10 0;
#X connect 8 0 10 0;
#X connect 9 0 10 0;
#X connect 11 0 25 0;
#X connect 12 0 11 0;
#X connect 13 0 24 0;
#X connect 14 0 10 0;
#X connect 15 0 10 0;
#X connect 16 0 10 0;
#X connect 17 0 10 0;
#X connect 18 0 10 0;
#X connect 19 0 10 0;
#X connect 20 0 10 0;
#X connect 21 0 10 0;
#X connect 22 0 10 0;
#X connect 23 0 10 0;
#X connect 24 0 0 0;
#X connect 24 1 1 0;
#X connect 24 2 2 0;
#X connect 24 3 3 0;
#X connect 24 4 4 0;
#X connect 24 5 5 0;
#X connect 24 6 6 0;
#X connect 24 7 7 0;
#X connect 24 8 8 0;
#X connect 24 9 9 0;
#X connect 24 10 14 0;
#X connect 24 11 15 0;
#X connect 24 12 16 0;
#X connect 24 13 17 0;
#X connect 24 14 18 0;
#X connect 24 15 19 0;
#X connect 24 16 20 0;
#X connect 24 17 21 0;
#X connect 24 18 22 0;
#X connect 24 19 23 0;
#X connect 25 0 13 0;
#X restore 1303 552 pd formant-frequencies;
#X obj 1117 743 t f f f;
#X obj 927 757 vcf~ 207 5;
#X obj 927 801 vcf~ 207 5;
#X obj 928 858 vcf~ 207 5;
#X obj 1208 813 vcf~ 2300 20;
#X obj 1208 855 vcf~ 2300 20;
#X obj 1208 901 vcf~ 2300 20;
#X obj 1382 821 vcf~ 3000 50;
#X obj 1382 849 vcf~ 3000 50;
#X obj 1374 893 vcf~ 3000 50;
#X obj 1303 631 line~;
#X obj 1385 625 line~;
#X obj 1456 623 line~;
#X obj 1117 845 t f f f;
#X obj 1277 788 t f f f;
#X obj 1451 797 t f f f;
#X obj 950 465 +;
#X obj 1303 530 moses 127;
#X obj 1213 531 lop~ 2000;
#X obj 1213 595 lop~ 2000;
#X obj 1303 605 pack 0 100;
#X obj 1386 603 pack 0 111;
#X obj 1479 601 pack 0 122;
#X obj 1108 40 bng 15 250 50 0 empty empty empty 17 7 0 10 #fcfcfc
#000000 #000000;
#X obj 1126 228 s getpit;
#X obj 1383 284 mtof;
#X floatatom 898 512 5 0 0 0 - - - 0;
#X obj 1336 375 pack f f f;
#X obj 388 176 t b b b b;
#X obj 720 185 spigot;
#X msg 734 120 1;
#X msg 769 109 0;
#X obj 1449 156 r pit;
#X obj 1450 208 spigot;
#X msg 1533 162 1;
#X msg 1586 152 0;
#X obj 1106 189 t b b b b;
#X obj 588 -239 bng 15 250 50 0 empty empty empty 17 7 0 10 #fcfcfc
#000000 #000000;
#X obj 570 -265 metro 600;
#X obj 647 -155 t b b;
#X obj 495 542 lop~ 2000;
#X obj 1213 559 lop~ 2000;
#X obj 401 42 s duration;
#X obj 683 -36 sel 0 1 2 3 4;
#X obj 684 -111 random 5;
#X msg 1393 -51 random 2 - split;
#X msg 1389 15 random 1 + 2 — always unisons;
#X obj 684 -74 + 0;
#X msg 1395 -14 random 3-5 — more chance of unisons;
#X obj 896 23 unpack f f f f;
#X obj 551 191 random 5;
#X obj 552 346 route 0 1 2 3 4;
#X obj 554 233 + 0;
#X obj 1209 224 random 5;
#X obj 1260 262 + 0;
#X msg 1161 -103 2 0 2 0;
#X msg 1099 -74 2 0 4 0;
#X msg 1022 -68 2 0 1 2;
#X msg 1033 -140 4 0 2 0;
#X msg 1001 -120 1 2 2 0;
#X msg 1010 -94 4 0 4 0;
#X msg 949 -79 4 0 1 2;
#X msg 926 -106 1 2 4 0;
#X msg 861 -96 1 2 1 2;
#X obj 925 93 sel 2;
#X obj 1394 259 spigot 1;
#X msg 977 143 0;
#X msg 1030 150 1;
#X msg 909 160 1;
#X msg 945 167 0;
#X obj 989 212 tgl 15 0 empty empty empty 17 7 0 10 #fcfcfc #000000
#000000 0 1;
#X obj 953 233 spigot 0;
#X obj 1447 234 tgl 15 0 empty empty empty 17 7 0 10 #fcfcfc #000000
#000000 0 1;
#X obj 945 320 random 127;
#X obj 609 261 t b f;
#X obj 1126 -246 r mbreadth;
#X obj 901 -178 sel 0 1 2 3 4 5 6 7 8 9 10;
#X obj 885 -240 i;
#X obj 885 -216 change;
#X obj 397 268 r maggr;
#X obj 397 292 - 100;
#X obj 395 398 line;
#X msg 396 370 \$1 500;
#X obj 280 -205 r mroc;
#X obj 280 -181 unpack f f;
#X obj 280 -112 -;
#X obj 280 -88 abs;
#X floatatom 280 -64 5 0 0 0 - - - 0;
#X obj 103 7 +;
#X obj 411 -25 +;
#X obj 538 -177 random 1000;
#X obj 675 -187 until;
#X obj 676 -232 f;
#X obj 681 -261 r mchordsize;
#X obj 843 378 * 1;
#X obj 809 225 r mactiv;
#X obj 817 273 - 150;
#X obj 817 297 / -100;
#X floatatom 817 321 5 0 0 0 - - - 0;
#X obj 1050 -273 r mdensity;
#X obj 1046 -225 +;
#X obj 1127 -217 t b f;
#X obj 889 -269 / 20;
#X obj 549 -134 r mchordsize;
#X obj 555 -45 clip 1 4;
#X obj 500 19 * 1;
#X floatatom 554 -20 5 0 0 0 - - - 0;
#X obj 549 -110 + 1;
#X obj 549 -86 / 4;
#X obj 1746 431 + 0, f 5;
#X obj 1746 278 t f b;
#X obj 1778 305 random 1;
#X obj 1778 336 sel 0;
#X obj 1831 168 r mpauses;
#X msg 1810 407 0;
#X floatatom 1842 241 5 0 0 0 - - - 0;
#X obj 1778 384 + 4000;
#X obj 1777 360 random 15000;
#X obj 588 -219 t b b;
#X obj 1731 492 +;
#X floatatom 1807 473 5 0 0 0 - - - 0;
#X obj 396 341 + 67;
#X obj 1831 198 / 1;
#N canvas 0 25 450 300 sq 0;
#X obj 377 325 phasor~;
#X obj 366 406 *~;
#X obj 294 79 inlet;
#X obj 468 465 outlet~;
#X obj 590 251 vline~;
#X obj 193 294 phasor~;
#X obj 258 292 phasor~;
#X obj 307 263 + 0.5;
#X msg 303 223 0;
#X obj 193 348 -~;
#X obj 348 187 r sublb;
#X obj 526 86 r duration;
#X obj 502 138 f;
#X msg 503 176 2 10 \, 0.3 10 \$1 \, 0 \$1 4000;
#X connect 1 0 3 0;
#X connect 2 0 6 0;
#X connect 2 0 5 0;
#X connect 2 0 0 0;
#X connect 2 0 8 0;
#X connect 2 0 12 0;
#X connect 4 0 1 1;
#X connect 5 0 9 0;
#X connect 6 0 9 1;
#X connect 7 0 6 1;
#X connect 8 0 5 1;
#X connect 8 0 7 0;
#X connect 9 0 1 0;
#X connect 10 0 8 0;
#X connect 11 0 12 1;
#X connect 12 0 13 0;
#X connect 13 0 4 0;
#X restore 563 393 pd sq;
#N canvas 0 25 450 300 ph 0;
#X obj 377 325 phasor~;
#X obj 366 406 *~;
#X obj 294 79 inlet;
#X obj 468 465 outlet~;
#X obj 590 251 vline~;
#X obj 467 88 r duration;
#X obj 443 140 f;
#X msg 443 178 2 10 \, 0.3 10 \$1 \, 0 \$1 4000;
#X connect 0 0 1 0;
#X connect 1 0 3 0;
#X connect 2 0 0 0;
#X connect 2 0 6 0;
#X connect 4 0 1 1;
#X connect 5 0 6 1;
#X connect 6 0 7 0;
#X connect 7 0 4 0;
#X restore 617 393 pd ph;
#X obj 1310 424 route 0 1 2 3 4;
#N canvas 0 25 890 682 sq 0;
#X obj 377 325 phasor~;
#X obj 366 406 *~;
#X obj 294 79 inlet;
#X obj 468 465 outlet~;
#X obj 590 251 vline~;
#X obj 189 328 phasor~;
#X obj 254 326 phasor~;
#X obj 307 263 + 0.5;
#X msg 303 223 0;
#X obj 189 382 -~;
#X obj 348 187 r sublb;
#X obj 526 86 r duration;
#X obj 502 138 f;
#X msg 503 176 2 10 \, 0.3 10 \$1 \, 0 \$1 4000;
#X connect 1 0 3 0;
#X connect 2 0 6 0;
#X connect 2 0 5 0;
#X connect 2 0 0 0;
#X connect 2 0 8 0;
#X connect 2 0 12 0;
#X connect 4 0 1 1;
#X connect 5 0 9 0;
#X connect 6 0 9 1;
#X connect 7 0 6 1;
#X connect 8 0 5 1;
#X connect 8 0 7 0;
#X connect 9 0 1 0;
#X connect 10 0 8 0;
#X connect 11 0 12 1;
#X connect 12 0 13 0;
#X connect 13 0 4 0;
#X restore 1321 471 pd sq;
#N canvas 0 25 450 300 ph 0;
#X obj 377 325 phasor~;
#X obj 366 406 *~;
#X obj 294 79 inlet;
#X obj 468 465 outlet~;
#X obj 590 251 vline~;
#X obj 467 88 r duration;
#X obj 443 140 f;
#X msg 443 178 2 10 \, 0.3 10 \$1 \, 0 \$1 4000;
#X connect 0 0 1 0;
#X connect 1 0 3 0;
#X connect 2 0 0 0;
#X connect 2 0 6 0;
#X connect 4 0 1 1;
#X connect 5 0 6 1;
#X connect 6 0 7 0;
#X connect 7 0 4 0;
#X restore 1375 471 pd ph;
#N canvas 992 289 1439 922 rev2 0;
#X obj 161 497 +~;
#X obj 520 105 inlet;
#X obj 184 407 *~;
#X obj 486 412 *~;
#X obj 285 412 *~;
#X obj 387 412 *~;
#X obj 443 546 -~;
#X obj 364 545 -~;
#X obj 239 537 +~;
#X obj 161 534 +~;
#X obj 162 444 +~;
#X obj 262 440 +~;
#X obj 464 501 -~;
#X obj 387 499 +~;
#X obj 239 500 -~;
#X obj 452 105 inlet;
#X obj 609 429 line~;
#X obj 509 374 line~;
#X obj 16 121 delread~ \$0-del1 58.6435;
#X obj 94 143 delread~ \$0-del2 69.4325;
#X obj 176 165 delread~ \$0-del3 74.5234;
#X obj 258 189 delread~ \$0-del4 86.1244;
#X obj 530 500 *~;
#X obj 599 501 *~;
#X obj 161 641 delwrite~ \$0-del1 58.6435;
#X obj 240 617 delwrite~ \$0-del2 69.4325;
#X obj 365 595 delwrite~ \$0-del3 74.5234;
#X obj 444 573 delwrite~ \$0-del4 86.1244;
#X obj 609 357 dbtorms;
#X obj 609 403 pack 0 30;
#X obj 520 211 pack 0 50;
#X obj 9 390 inlet~;
#X obj 530 525 outlet~;
#X obj 599 525 outlet~;
#X obj 520 187 / 200;
#X obj 520 162 clip 0 100;
#X obj 52 236 lop~;
#X obj 367 106 r sublb;
#X obj 667 500 *~;
#X obj 735 501 *~;
#X obj 667 525 outlet~;
#X obj 735 525 outlet~;
#X obj 625 167 moses 1;
#X msg 631 193 3000;
#X obj 705 193 clip 0 100;
#N canvas 341 84 355 597 early-reflect 0;
#X obj 84 119 -~;
#X obj 49 119 +~;
#X obj 50 195 +~;
#X obj 85 196 -~;
#X obj 84 275 -~;
#X obj 49 274 +~;
#X obj 82 349 -~;
#X obj 48 350 +~;
#X obj 83 428 -~;
#X obj 49 428 +~;
#X obj 65 7 inlet~;
#X obj 49 508 outlet~;
#X obj 119 507 outlet~;
#X obj 110 66 delwrite~ \$0-ref1 43.5337;
#X obj 110 90 delread~ \$0-ref1 43.5337;
#X obj 107 145 delwrite~ \$0-ref2 25.796;
#X obj 107 169 delread~ \$0-ref2 25.796;
#X obj 106 223 delwrite~ \$0-ref3 19.392;
#X obj 106 247 delread~ \$0-ref3 19.392;
#X obj 102 300 delwrite~ \$0-ref4 16.364;
#X obj 102 324 delread~ \$0-ref4 16.364;
#X obj 119 452 delwrite~ \$0-ref6 4.2546;
#X obj 119 477 delread~ \$0-ref6 4.2546;
#X obj 106 376 delwrite~ \$0-ref5 7.645;
#X obj 106 400 delread~ \$0-ref5 7.645;
#X connect 0 0 15 0;
#X connect 1 0 3 0;
#X connect 1 0 2 0;
#X connect 2 0 5 0;
#X connect 2 0 4 0;
#X connect 3 0 17 0;
#X connect 4 0 19 0;
#X connect 5 0 7 0;
#X connect 5 0 6 0;
#X connect 6 0 23 0;
#X connect 7 0 9 0;
#X connect 7 0 8 0;
#X connect 8 0 21 0;
#X connect 9 0 11 0;
#X connect 10 0 1 0;
#X connect 10 0 0 0;
#X connect 10 0 13 0;
#X connect 14 0 1 1;
#X connect 14 0 0 1;
#X connect 16 0 2 1;
#X connect 16 0 3 1;
#X connect 18 0 5 1;
#X connect 18 0 4 1;
#X connect 20 0 7 1;
#X connect 20 0 6 1;
#X connect 22 0 12 0;
#X connect 24 0 9 1;
#X connect 24 0 8 1;
#X restore 9 416 pd early-reflect;
#X obj 618 216 f;
#X obj 618 105 inlet;
#X obj 696 109 inlet;
#X obj 705 216 f;
#X obj 705 239 * 0.01;
#X obj 705 263 pack 0 50;
#X obj 705 287 line~;
#X obj 29 269 -~;
#X obj 28 300 *~;
#X obj 16 331 +~;
#X obj 132 240 lop~;
#X obj 106 274 -~;
#X obj 105 309 *~;
#X obj 95 333 +~;
#X obj 214 245 lop~;
#X obj 188 273 -~;
#X obj 187 314 *~;
#X obj 176 339 +~;
#X obj 308 249 lop~;
#X obj 281 274 -~;
#X obj 281 318 *~;
#X obj 258 342 +~;
#X obj 609 379 * 0.125;
#X obj 625 143 3000;
#X obj 696 143 20, f 20;
#X obj 452 137 93;
#X obj 520 138 83;
#X connect 0 0 9 0;
#X connect 0 0 7 0;
#X connect 1 0 72 0;
#X connect 2 0 10 1;
#X connect 3 0 12 1;
#X connect 3 0 13 1;
#X connect 3 0 39 0;
#X connect 4 0 11 1;
#X connect 5 0 13 0;
#X connect 5 0 12 0;
#X connect 5 0 38 0;
#X connect 6 0 27 0;
#X connect 7 0 26 0;
#X connect 8 0 25 0;
#X connect 9 0 24 0;
#X connect 10 0 14 0;
#X connect 10 0 0 0;
#X connect 10 0 22 0;
#X connect 11 0 0 1;
#X connect 11 0 14 1;
#X connect 11 0 23 0;
#X connect 12 0 8 1;
#X connect 12 0 6 1;
#X connect 13 0 9 1;
#X connect 13 0 7 1;
#X connect 14 0 8 0;
#X connect 14 0 6 0;
#X connect 15 0 71 0;
#X connect 16 0 22 1;
#X connect 16 0 23 1;
#X connect 16 0 38 1;
#X connect 16 0 39 1;
#X connect 17 0 4 1;
#X connect 17 0 2 1;
#X connect 17 0 5 1;
#X connect 17 0 3 1;
#X connect 18 0 36 0;
#X connect 18 0 53 1;
#X connect 18 0 55 0;
#X connect 19 0 56 0;
#X connect 19 0 57 1;
#X connect 19 0 59 0;
#X connect 20 0 63 0;
#X connect 20 0 60 0;
#X connect 20 0 61 1;
#X connect 21 0 67 0;
#X connect 21 0 65 1;
#X connect 21 0 64 0;
#X connect 22 0 32 0;
#X connect 23 0 33 0;
#X connect 28 0 68 0;
#X connect 29 0 16 0;
#X connect 30 0 17 0;
#X connect 31 0 45 0;
#X connect 34 0 30 0;
#X connect 35 0 34 0;
#X connect 36 0 53 0;
#X connect 37 0 69 0;
#X connect 37 0 70 0;
#X connect 37 0 71 0;
#X connect 37 0 72 0;
#X connect 38 0 40 0;
#X connect 39 0 41 0;
#X connect 42 0 43 0;
#X connect 42 1 46 0;
#X connect 43 0 46 0;
#X connect 44 0 49 0;
#X connect 45 0 10 0;
#X connect 45 1 11 0;
#X connect 46 0 36 1;
#X connect 46 0 56 1;
#X connect 46 0 60 1;
#X connect 46 0 64 1;
#X connect 47 0 46 0;
#X connect 48 0 70 0;
#X connect 49 0 50 0;
#X connect 50 0 51 0;
#X connect 51 0 52 0;
#X connect 52 0 54 1;
#X connect 52 0 58 1;
#X connect 52 0 62 1;
#X connect 52 0 66 1;
#X connect 53 0 54 0;
#X connect 54 0 55 1;
#X connect 55 0 2 0;
#X connect 56 0 57 0;
#X connect 57 0 58 0;
#X connect 58 0 59 1;
#X connect 59 0 4 0;
#X connect 60 0 61 0;
#X connect 61 0 62 0;
#X connect 62 0 63 1;
#X connect 63 0 5 0;
#X connect 64 0 65 0;
#X connect 65 0 66 0;
#X connect 66 0 67 1;
#X connect 67 0 3 0;
#X connect 68 0 29 0;
#X connect 69 0 42 0;
#X connect 70 0 44 0;
#X connect 71 0 28 0;
#X connect 72 0 35 0;
#X restore 845 1140 pd rev2;
#X obj 163 187 tgl 15 0 empty empty empty 17 7 0 10 #fcfcfc #000000
#000000 0 1;
#X obj 726 54 f;
#X obj 726 79 spigot 0;
#X obj 792 9 r openg;
#X obj 795 29 t b b;
#X msg 829 53 1;
#X obj 829 130 s getpit;
#X obj 225 231 s randstopper;
#X msg 209 193 0;
#X floatatom 651 54 5 0 0 0 - - - 0;
#X floatatom 1731 516 5 0 0 0 - - - 0;
#X obj 280 -157 * 600;
#X obj 347 -152 * 600;
#X obj 65 -76 s pgo;
#X obj 76 -177 sel 1;
#X msg 82 -111 3;
#X obj 107 -253 r 3-onoff;
#X obj 151 -107 switch~;
#X obj 143 -221 sel 1 0;
#X msg 138 -180 1, f 2;
#X msg 174 -135 0;
#X obj 174 -160 del 200;
#X msg 184 -187 stop;
#X obj 117 304 bang~;
#X obj 117 328 s 3-bang;
#N canvas 643 668 450 744 sender 0;
#X obj 4 60 inlet~;
#X obj 85 60 inlet~;
#X obj 211 34 inlet;
#X obj 4 231 throw~ left;
#X obj 113 230 throw~ right;
#X obj 311 40 r volslide;
#X msg 311 61 \$1 20;
#X obj 311 82 line~;
#X obj 9 103 *~;
#X obj 89 124 *~;
#X obj 321 164 line~;
#X obj 16 160 *~;
#X obj 96 181 *~;
#X msg 321 143 \$1 199;
#X connect 0 0 8 0;
#X connect 1 0 9 0;
#X connect 2 0 13 0;
#X connect 5 0 6 0;
#X connect 6 0 7 0;
#X connect 7 0 9 1;
#X connect 7 0 8 1;
#X connect 8 0 11 0;
#X connect 9 0 12 0;
#X connect 10 0 12 1;
#X connect 10 0 11 1;
#X connect 11 0 3 0;
#X connect 12 0 4 0;
#X connect 13 0 10 0;
#X restore 862 1361 pd sender;
#X obj 1153 1257 r 3-onoff;
#X obj 396 317 * -0.4;
#X obj 834 1296 *~ 1.2;
#X obj 922 1294 *~ 1.2;
#X obj 88 449 s pgst;
#X obj 87 402 loadbang;
#X msg 87 425 3;
#X connect 0 0 36 0;
#X connect 0 1 37 0;
#X connect 0 2 38 0;
#X connect 1 0 8 0;
#X connect 2 0 9 0;
#X connect 3 0 7 0;
#X connect 4 0 24 0;
#X connect 5 0 25 0;
#X connect 6 0 26 0;
#X connect 7 0 6 0;
#X connect 8 0 4 0;
#X connect 9 0 5 0;
#X connect 10 0 0 0;
#X connect 11 0 1 0;
#X connect 11 1 2 0;
#X connect 11 2 3 0;
#X connect 12 0 13 0;
#X connect 13 0 14 0;
#X connect 14 0 33 0;
#X connect 15 0 16 0;
#X connect 16 0 17 0;
#X connect 17 0 31 0;
#X connect 17 0 32 0;
#X connect 18 0 19 0;
#X connect 19 0 20 0;
#X connect 20 0 31 0;
#X connect 20 0 32 0;
#X connect 21 0 12 1;
#X connect 21 0 13 1;
#X connect 21 0 14 1;
#X connect 22 0 15 1;
#X connect 22 0 16 1;
#X connect 22 0 17 1;
#X connect 23 0 18 1;
#X connect 23 0 19 1;
#X connect 23 0 20 1;
#X connect 24 0 12 2;
#X connect 24 1 13 2;
#X connect 24 2 14 2;
#X connect 25 0 15 2;
#X connect 25 1 16 2;
#X connect 25 2 17 2;
#X connect 26 0 18 2;
#X connect 26 1 19 2;
#X connect 26 2 20 2;
#X connect 27 0 28 0;
#X connect 28 0 10 0;
#X connect 29 0 97 0;
#X connect 30 0 12 0;
#X connect 30 0 15 0;
#X connect 30 0 18 0;
#X connect 31 0 214 0;
#X connect 31 0 185 0;
#X connect 32 0 215 0;
#X connect 32 0 185 0;
#X connect 33 0 214 0;
#X connect 33 0 215 0;
#X connect 33 0 185 0;
#X connect 34 0 215 0;
#X connect 34 0 185 0;
#X connect 35 0 214 0;
#X connect 35 0 185 0;
#X connect 36 0 21 0;
#X connect 37 0 22 0;
#X connect 38 0 23 0;
#X connect 39 0 27 0;
#X connect 40 0 85 0;
#X connect 42 0 187 0;
#X connect 42 0 195 0;
#X connect 43 0 131 0;
#X connect 44 0 38 1;
#X connect 44 0 37 1;
#X connect 44 0 36 1;
#X connect 45 0 108 0;
#X connect 46 0 77 0;
#X connect 46 1 78 0;
#X connect 46 2 79 0;
#X connect 47 0 54 0;
#X connect 48 0 55 0;
#X connect 49 0 53 0;
#X connect 50 0 70 0;
#X connect 51 0 71 0;
#X connect 52 0 72 0;
#X connect 53 0 52 0;
#X connect 54 0 50 0;
#X connect 55 0 51 0;
#X connect 56 0 46 0;
#X connect 57 0 47 0;
#X connect 57 1 48 0;
#X connect 57 2 49 0;
#X connect 58 0 59 0;
#X connect 59 0 60 0;
#X connect 60 0 33 0;
#X connect 61 0 62 0;
#X connect 62 0 63 0;
#X connect 63 0 35 0;
#X connect 63 0 34 0;
#X connect 64 0 65 0;
#X connect 65 0 66 0;
#X connect 66 0 35 0;
#X connect 66 0 34 0;
#X connect 67 0 58 1;
#X connect 67 0 59 1;
#X connect 67 0 60 1;
#X connect 68 0 61 1;
#X connect 68 0 62 1;
#X connect 68 0 63 1;
#X connect 69 0 64 1;
#X connect 69 0 65 1;
#X connect 69 0 66 1;
#X connect 70 0 58 2;
#X connect 70 1 59 2;
#X connect 70 2 60 2;
#X connect 71 0 61 2;
#X connect 71 1 62 2;
#X connect 71 2 63 2;
#X connect 72 0 64 2;
#X connect 72 1 65 2;
#X connect 72 2 66 2;
#X connect 73 0 74 0;
#X connect 74 0 56 0;
#X connect 75 0 98 0;
#X connect 76 0 58 0;
#X connect 76 0 61 0;
#X connect 76 0 64 0;
#X connect 77 0 67 0;
#X connect 78 0 68 0;
#X connect 79 0 69 0;
#X connect 80 0 93 0;
#X connect 82 0 84 1;
#X connect 83 0 79 1;
#X connect 83 0 78 1;
#X connect 83 0 77 1;
#X connect 84 0 182 0;
#X connect 85 0 39 0;
#X connect 85 0 88 0;
#X connect 85 1 41 0;
#X connect 85 2 107 0;
#X connect 85 3 87 0;
#X connect 86 0 43 0;
#X connect 86 0 128 0;
#X connect 87 0 86 1;
#X connect 88 0 86 1;
#X connect 89 0 90 0;
#X connect 90 0 122 0;
#X connect 91 0 90 1;
#X connect 92 0 90 1;
#X connect 93 0 92 0;
#X connect 93 0 130 0;
#X connect 93 1 81 0;
#X connect 93 2 110 0;
#X connect 93 3 91 0;
#X connect 94 0 175 0;
#X connect 95 0 94 0;
#X connect 96 0 101 0;
#X connect 96 1 147 0;
#X connect 97 0 30 0;
#X connect 98 0 76 0;
#X connect 100 0 40 0;
#X connect 100 1 80 0;
#X connect 100 2 40 0;
#X connect 100 2 80 0;
#X connect 100 3 40 0;
#X connect 100 3 80 0;
#X connect 100 4 80 0;
#X connect 100 4 40 0;
#X connect 101 0 104 0;
#X connect 104 0 100 0;
#X connect 106 0 101 1;
#X connect 106 1 104 1;
#X connect 106 1 121 0;
#X connect 106 2 107 1;
#X connect 106 2 110 1;
#X connect 106 3 109 1;
#X connect 106 3 111 1;
#X connect 107 0 109 0;
#X connect 108 0 180 0;
#X connect 108 1 181 0;
#X connect 108 2 181 0;
#X connect 108 2 180 0;
#X connect 108 3 181 0;
#X connect 108 3 180 0;
#X connect 109 0 45 0;
#X connect 110 0 111 0;
#X connect 111 0 84 0;
#X connect 112 0 106 0;
#X connect 113 0 106 0;
#X connect 114 0 106 0;
#X connect 115 0 106 0;
#X connect 116 0 106 0;
#X connect 117 0 106 0;
#X connect 118 0 106 0;
#X connect 119 0 106 0;
#X connect 120 0 106 0;
#X connect 121 0 123 0;
#X connect 121 0 125 0;
#X connect 121 1 124 0;
#X connect 121 1 126 0;
#X connect 122 0 82 0;
#X connect 123 0 129 0;
#X connect 124 0 129 0;
#X connect 125 0 127 0;
#X connect 126 0 127 0;
#X connect 127 0 128 1;
#X connect 128 0 82 0;
#X connect 129 0 122 1;
#X connect 130 0 73 0;
#X connect 131 0 45 0;
#X connect 131 1 45 1;
#X connect 132 0 158 0;
#X connect 133 0 120 0;
#X connect 133 1 120 0;
#X connect 133 2 119 0;
#X connect 133 3 118 0;
#X connect 133 4 116 0;
#X connect 133 5 117 0;
#X connect 133 6 114 0;
#X connect 133 7 115 0;
#X connect 133 8 113 0;
#X connect 133 9 112 0;
#X connect 133 10 112 0;
#X connect 134 0 135 0;
#X connect 135 0 133 0;
#X connect 136 0 137 0;
#X connect 137 0 213 0;
#X connect 138 0 11 0;
#X connect 138 0 57 0;
#X connect 139 0 138 0;
#X connect 140 0 141 0;
#X connect 141 0 197 0;
#X connect 141 1 198 0;
#X connect 142 0 143 0;
#X connect 143 0 144 0;
#X connect 144 0 147 1;
#X connect 146 0 99 0;
#X connect 146 0 162 0;
#X connect 147 0 146 0;
#X connect 148 0 96 0;
#X connect 149 0 148 0;
#X connect 150 0 149 1;
#X connect 151 0 83 0;
#X connect 151 0 44 0;
#X connect 152 0 153 0;
#X connect 153 0 154 0;
#X connect 154 0 155 0;
#X connect 155 0 151 1;
#X connect 156 0 157 0;
#X connect 157 0 159 0;
#X connect 158 0 157 0;
#X connect 158 1 157 1;
#X connect 159 0 134 0;
#X connect 160 0 164 0;
#X connect 161 0 162 1;
#X connect 161 0 163 0;
#X connect 162 0 151 0;
#X connect 162 0 99 0;
#X connect 162 0 176 0;
#X connect 164 0 165 0;
#X connect 165 0 161 0;
#X connect 166 0 176 1;
#X connect 167 0 166 0;
#X connect 167 1 168 0;
#X connect 168 0 169 0;
#X connect 169 0 174 0;
#X connect 169 1 171 0;
#X connect 170 0 179 0;
#X connect 171 0 166 1;
#X connect 173 0 166 1;
#X connect 173 0 177 0;
#X connect 174 0 173 0;
#X connect 175 0 149 0;
#X connect 175 1 167 0;
#X connect 176 0 95 1;
#X connect 176 0 196 0;
#X connect 178 0 139 0;
#X connect 179 0 168 1;
#X connect 179 0 172 0;
#X connect 180 0 29 0;
#X connect 181 0 29 0;
#X connect 182 0 183 0;
#X connect 182 1 184 0;
#X connect 182 2 184 0;
#X connect 182 2 183 0;
#X connect 182 3 184 0;
#X connect 182 3 183 0;
#X connect 183 0 75 0;
#X connect 184 0 75 0;
#X connect 185 0 214 0;
#X connect 185 0 215 0;
#X connect 185 1 214 0;
#X connect 185 1 215 0;
#X connect 185 2 215 0;
#X connect 185 3 214 0;
#X connect 186 0 95 0;
#X connect 187 0 188 0;
#X connect 188 0 86 0;
#X connect 189 0 190 0;
#X connect 190 0 192 0;
#X connect 190 1 191 0;
#X connect 191 0 188 1;
#X connect 194 0 193 0;
#X connect 197 0 142 0;
#X connect 197 0 145 1;
#X connect 197 0 146 1;
#X connect 198 0 142 1;
#X connect 200 0 201 0;
#X connect 201 0 199 0;
#X connect 202 0 200 0;
#X connect 202 0 186 0;
#X connect 202 0 204 0;
#X connect 204 0 205 0;
#X connect 204 0 208 0;
#X connect 204 1 207 0;
#X connect 205 0 203 0;
#X connect 206 0 203 0;
#X connect 207 0 206 0;
#X connect 208 0 207 0;
#X connect 209 0 210 0;
#X connect 212 0 211 2;
#X connect 213 0 178 0;
#X connect 214 0 211 0;
#X connect 215 0 211 1;
#X connect 217 0 218 0;
#X connect 218 0 216 0;
#X restore 391 104 pd 3;
#X obj 0 191 cnv 15 300 100 placeh356755434567583 line3 empty 12 12
0 14 #e0e0e0 #404040 0;
#X obj 0 212 cnv 15 300 50 placeh3562 line4 empty 12 12 0 14 #e0e0e0
#9c00ff 0;
#X obj 25 254 hsl 250 20 0 4 0 1 volslide volslideset volume -2 -8
0 10 #fcfcfc #000000 #000000 6225 1;
