#N canvas 270 23 307 295 10;
#N canvas 38 82 1680 1005 g 0;
#X obj 353 543 *~;
#X obj 491 372 tgl 15 0 empty empty empty 17 7 0 10 -262144 -1 -1 1
1;
#X text 509 371 reverb;
#X obj 324 759 *~, f 6;
#X obj 503 781 *~;
#X floatatom 423 693 5 0 0 0 - - -;
#X obj 423 713 / 100;
#X obj 360 647 rev1~;
#X floatatom 546 436 5 0 0 0 - - -;
#X obj 1030 207 + 1;
#X obj 1030 239 pow 2;
#X msg 565 406 80;
#X obj 351 989 dac~ 1 2;
#X obj 226 427 catch~ outL;
#X obj 324 392 catch~ outR;
#X obj 444 267 loadbang;
#X obj 895 235 * -1;
#X floatatom 895 256 5 0 0 0 - - -;
#X floatatom 939 238 5 0 0 0 - - -;
#X floatatom 896 88 5 0 0 0 - - -;
#X obj 897 143 +;
#X obj 895 276 s tmin;
#X obj 943 277 s tmax;
#X obj 1030 119 r mactiv;
#X obj 882 42 r mbreadth;
#X obj 1030 181 / 14.28;
#X obj 1030 140 int;
#X obj 1031 282 s steps;
#X obj 1155 252 metro 1000;
#X obj 1155 219 tgl 15 0 red asdaewr empty 17 7 0 10 -262144 -1 -1
0 1;
#X obj 1150 835 s getpit;
#X obj 1141 702 sel 1;
#X obj 1141 659 1;
#X obj 1258 41 r mroc;
#X obj 1258 113 unpack f f;
#X obj 1258 200 * 1000;
#X obj 1266 274 random 1000;
#X obj 1266 310 + 1000;
#X obj 1155 276 t b b;
#X obj 1306 147 -;
#X obj 1306 171 * -1;
#X floatatom 1325 225 5 0 0 0 - - -;
#X floatatom 1258 224 5 0 0 0 - - -;
#X obj 1325 201 * 1000;
#N canvas 105 33 983 995 2sto 0;
#N canvas 0 22 450 278 (subpatch) 0;
#X array bank-audio2 32 float 3;
#A 0 -0.07075 0.715625 -0.657187 0.7835 0.238812 0.051625 -0.602062
0.0600625 0.713 -0.72325 0.016 -0.8095 0.186625 0.184875 -0.458125
0.1935 0.506812 -0.86325 -0.433 0.13925 -0.498438 0.529 0.898062 -0.38225
-0.0515625 0.262437 -0.474 -0.792125 0.54375 -0.789 0.594375 -0.054
;
#X coords 0 278 1 277 200 140 0;
#X restore 864 494 graph;
#X obj 473 554 tgl 15 0 f red empty 17 7 0 10 -262144 -1 -1 0 1;
#X obj 494 295 bng 15 250 50 0 empty empty empty 17 7 0 10 -262144
-1 -1;
#X floatatom 512 412 5 0 0 0 - - -;
#X floatatom 663 547 5 0 0 0 - - -;
#X obj 663 566 / 1000;
#X floatatom 615 546 5 0 0 0 - - -;
#X obj 615 565 / 1000;
#X floatatom 568 546 5 0 0 0 - - -;
#X obj 568 565 / 1000;
#X floatatom 568 587 5 0 0 0 - - -;
#X floatatom 615 587 5 0 0 0 - - -;
#X floatatom 663 588 5 0 0 0 - - -;
#X floatatom 710 547 5 0 0 0 - - -;
#X obj 710 566 / 1000;
#X floatatom 710 588 5 0 0 0 - - -;
#X floatatom 758 547 5 0 0 0 - - -;
#X obj 520 391 unpack f f f f f f, f 32;
#N canvas 627 156 940 683 A_and_t 0;
#X obj 51 234 t b b, f 22;
#X obj 80 257 + 1;
#X floatatom 51 301 5 0 0 0 - - -;
#X obj 51 506 swap, f 9;
#X obj 51 279 % 32;
#X floatatom 102 397 5 0 0 0 - - -;
#X floatatom 183 356 7 0 0 0 - - -;
#X obj 102 439 +, f 14;
#X obj 51 320 t f f, f 9;
#X floatatom 240 221 5 0 0 0 - - -;
#X text 237 204 step size;
#X obj 51 200 bng 15 250 50 0 empty empty empty 17 7 0 10 -262144 -1
-1;
#X obj 51 159 bng 15 250 50 0 empty empty empty 17 7 0 10 -262144 -1
-1;
#X obj 51 179 t b b, f 49;
#X obj 342 201 bng 15 250 50 0 empty empty empty 17 7 0 10 -262144
-1 -1;
#X obj 102 416 t f f, f 28;
#X floatatom 292 537 5 0 0 0 - - -;
#X obj 342 222 t b b, f 31;
#X obj 371 245 + 1;
#X floatatom 342 289 5 0 0 0 - - -;
#X obj 342 487 swap, f 9;
#X obj 342 267 % 32;
#X floatatom 393 354 5 0 0 0 - - -;
#X obj 393 431 +, f 14;
#X obj 342 308 t f f, f 9;
#X text 607 232 step size;
#X floatatom 537 507 5 0 0 0 - - -;
#X floatatom 524 336 5 0 0 0 - - -;
#X floatatom 611 250 5 0 0 0 - - -;
#X obj 292 556 pack f f, f 34;
#X obj 524 291 - 1;
#X obj 524 314 * 0.05, f 15;
#X obj 292 578 vline~;
#X obj 51 136 spigot;
#X obj 99 137 tgl 15 0 empty empty empty 17 7 0 10 -262144 -1 -1 0
1;
#X obj 90 76 inlet;
#X obj 90 98 t b f;
#X obj 292 600 *~, f 10;
#X obj 231 94 inlet;
#X obj 369 39 loadbang;
#X obj 337 116 f \$1;
#X obj 368 116 f \$2;
#X obj 567 93 inlet;
#X obj 712 99 inlet;
#X floatatom 704 286 5 0 0 0 - - -;
#X obj 401 116 f \$3;
#X obj 576 509 del;
#X obj 168 95 inlet;
#X obj 183 266 random 2;
#X obj 204 235 bng 15 250 50 0 empty empty empty 17 7 0 10 -262144
-1 -1;
#X floatatom 102 461 5 0 0 0 - - -;
#X obj 524 248 random 2;
#X obj 524 269 * 2;
#X obj 183 287 * 2;
#X obj 183 311 - 1, f 4;
#X obj 183 334 *, f 10;
#X obj 753 99 inlet;
#X floatatom 745 286 5 0 0 0 - - -;
#X obj 794 99 inlet;
#X floatatom 786 286 5 0 0 0 - - -;
#X obj 537 485 t f f, f 7;
#X obj 393 393 t f f, f 20;
#X obj 538 461 * 1;
#X msg 112 290 0;
#X obj 110 269 sel 2e+06;
#X obj 51 257 f;
#X obj 342 245 f;
#X obj 434 116 f \$4;
#X obj 465 116 f \$5;
#X obj 498 116 f \$6;
#X obj 369 61 t b b b b b b, f 19;
#X floatatom 168 117 48 0 0 0 - - -;
#N canvas 0 25 949 1027 mirror 0;
#X obj 40 182 inlet;
#X obj 89 275 tgl 15 0 empty empty empty 17 7 0 10 -262144 -1 -1 0
1;
#X obj 89 295 t f f;
#X obj 240 546 outlet;
#X obj 89 252 > -1;
#X obj 111 326 sel 0;
#X obj 40 327 spigot;
#X obj 40 229 t f f f, f 17;
#X obj 111 348 f, f 8;
#X floatatom 111 370 5 0 0 0 - - -;
#X obj 111 389 + 1;
#X floatatom 111 411 5 0 0 0 - - -;
#X obj 111 430 * -1;
#X obj 111 459 - 1, f 8;
#X floatatom 111 481 5 0 0 0 - - -;
#X floatatom 40 527 5 0 0 0 - - -;
#X obj 289 275 tgl 15 0 empty empty empty 17 7 0 10 -262144 -1 -1 0
1;
#X obj 289 295 t f f;
#X obj 311 326 sel 0;
#X obj 240 327 spigot;
#X obj 240 229 t f f f, f 17;
#X obj 311 348 f, f 8;
#X floatatom 311 370 5 0 0 0 - - -;
#X floatatom 311 411 5 0 0 0 - - -;
#X obj 311 430 * -1;
#X floatatom 311 474 5 0 0 0 - - -;
#X floatatom 240 522 5 0 0 0 - - -;
#X obj 289 252 < 1;
#X obj 311 389 - 1;
#X obj 311 452 + 1, f 8;
#X obj 88 35 loadbang;
#X floatatom 115 129 5 0 0 0 - - -;
#X floatatom 178 129 5 0 0 0 - - -;
#X obj 156 392 * -1;
#X obj 177 85 inlet;
#X obj 220 85 inlet;
#X obj 88 57 t b b, f 9;
#X obj 165 34 bng 15 250 50 0 empty empty empty 17 7 0 10 -262144 -1
-1;
#X msg 22 126 -1.03;
#X msg 32 148 1.03;
#X obj 88 83 f 0;
#X obj 139 85 f 1;
#X obj 115 148 s 112-ll;
#X obj 178 148 s 112-ul;
#X obj 51 204 r 112-feed-neg;
#X obj 124 252 r 112-ll;
#X obj 156 371 r 112-ll;
#X obj 111 500 s 112-feed-neg;
#X obj 40 546 s 112-neg-ok;
#X obj 311 493 s 112-feed-pos;
#X obj 356 389 r 112-ul;
#X obj 319 252 r 112-ul;
#X obj 240 180 r 112-neg-ok;
#X obj 251 202 r 112-feed-pos;
#X connect 0 0 7 0;
#X connect 1 0 2 0;
#X connect 2 0 6 1;
#X connect 2 1 5 0;
#X connect 4 0 1 0;
#X connect 5 0 8 0;
#X connect 6 0 15 0;
#X connect 7 0 6 0;
#X connect 7 1 4 0;
#X connect 7 2 8 1;
#X connect 8 0 9 0;
#X connect 9 0 10 0;
#X connect 10 0 11 0;
#X connect 11 0 12 0;
#X connect 12 0 13 0;
#X connect 13 0 14 0;
#X connect 14 0 47 0;
#X connect 15 0 48 0;
#X connect 16 0 17 0;
#X connect 17 0 19 1;
#X connect 17 1 18 0;
#X connect 18 0 21 0;
#X connect 19 0 26 0;
#X connect 20 0 19 0;
#X connect 20 1 27 0;
#X connect 20 2 21 1;
#X connect 21 0 22 0;
#X connect 22 0 28 0;
#X connect 23 0 24 0;
#X connect 24 0 29 0;
#X connect 25 0 49 0;
#X connect 26 0 3 0;
#X connect 27 0 16 0;
#X connect 28 0 23 0;
#X connect 29 0 25 0;
#X connect 30 0 36 0;
#X connect 31 0 42 0;
#X connect 32 0 43 0;
#X connect 33 0 10 1;
#X connect 33 0 13 1;
#X connect 34 0 31 0;
#X connect 35 0 32 0;
#X connect 36 0 40 0;
#X connect 36 1 41 0;
#X connect 37 0 36 0;
#X connect 38 0 7 0;
#X connect 39 0 7 0;
#X connect 40 0 31 0;
#X connect 41 0 32 0;
#X connect 44 0 7 0;
#X connect 45 0 4 1;
#X connect 46 0 33 0;
#X connect 50 0 28 1;
#X connect 50 0 29 1;
#X connect 51 0 27 1;
#X connect 52 0 20 0;
#X connect 53 0 20 0;
#X restore 725 425 pd mirror;
#N canvas 300 25 949 1027 mirror2 0;
#X obj 40 182 inlet;
#X obj 89 275 tgl 15 0 empty empty empty 17 7 0 10 -262144 -1 -1 0
1;
#X obj 89 295 t f f;
#X obj 240 546 outlet;
#X obj 89 252 > -1;
#X obj 111 326 sel 0;
#X obj 40 327 spigot;
#X obj 40 229 t f f f, f 17;
#X obj 111 348 f, f 8;
#X floatatom 111 370 5 0 0 0 - - -;
#X obj 111 389 + 1;
#X floatatom 111 411 5 0 0 0 - - -;
#X obj 111 430 * -1;
#X obj 111 459 - 1, f 8;
#X floatatom 111 481 5 0 0 0 - - -;
#X floatatom 40 527 5 0 0 0 - - -;
#X obj 289 275 tgl 15 0 empty empty empty 17 7 0 10 -262144 -1 -1 0
1;
#X obj 289 295 t f f;
#X obj 311 326 sel 0;
#X obj 240 327 spigot;
#X obj 240 229 t f f f, f 17;
#X obj 311 348 f, f 8;
#X floatatom 311 370 5 0 0 0 - - -;
#X floatatom 311 411 5 0 0 0 - - -;
#X obj 311 430 * -1;
#X floatatom 311 474 5 0 0 0 - - -;
#X floatatom 240 522 5 0 0 0 - - -;
#X obj 289 252 < 1;
#X obj 311 389 - 1;
#X obj 311 452 + 1, f 8;
#X obj 88 35 loadbang;
#X floatatom 115 129 5 0 0 0 - - -;
#X floatatom 178 129 5 0 0 0 - - -;
#X obj 156 392 * -1;
#X obj 177 85 inlet;
#X obj 220 85 inlet;
#X obj 88 57 t b b, f 9;
#X obj 165 34 bng 15 250 50 0 empty empty empty 17 7 0 10 -262144 -1
-1;
#X msg 22 126 -1.03;
#X msg 32 148 1.03;
#X obj 139 85 f 1;
#X obj 88 83 f -1;
#X obj 115 148 s 1111-ll;
#X obj 178 148 s 1111-ul;
#X obj 51 204 r 1111-feed-neg;
#X obj 124 252 r 1111-ll;
#X obj 157 372 r 1111-ll;
#X obj 111 500 s 1111-feed-neg;
#X obj 40 546 s 1111-neg-ok;
#X obj 311 493 s 1111-feed-pos;
#X obj 357 389 r 1111-ul;
#X obj 319 253 r 1111-ul;
#X obj 250 203 r 1111-feed-pos;
#X obj 241 179 r 1111-neg-ok;
#X connect 0 0 7 0;
#X connect 1 0 2 0;
#X connect 2 0 6 1;
#X connect 2 1 5 0;
#X connect 4 0 1 0;
#X connect 5 0 8 0;
#X connect 6 0 15 0;
#X connect 7 0 6 0;
#X connect 7 1 4 0;
#X connect 7 2 8 1;
#X connect 8 0 9 0;
#X connect 9 0 10 0;
#X connect 10 0 11 0;
#X connect 11 0 12 0;
#X connect 12 0 13 0;
#X connect 13 0 14 0;
#X connect 14 0 47 0;
#X connect 15 0 48 0;
#X connect 16 0 17 0;
#X connect 17 0 19 1;
#X connect 17 1 18 0;
#X connect 18 0 21 0;
#X connect 19 0 26 0;
#X connect 20 0 19 0;
#X connect 20 1 27 0;
#X connect 20 2 21 1;
#X connect 21 0 22 0;
#X connect 22 0 28 0;
#X connect 23 0 24 0;
#X connect 24 0 29 0;
#X connect 25 0 49 0;
#X connect 26 0 3 0;
#X connect 27 0 16 0;
#X connect 28 0 23 0;
#X connect 29 0 25 0;
#X connect 30 0 36 0;
#X connect 31 0 42 0;
#X connect 32 0 43 0;
#X connect 33 0 10 1;
#X connect 33 0 13 1;
#X connect 34 0 31 0;
#X connect 35 0 32 0;
#X connect 36 0 41 0;
#X connect 36 1 40 0;
#X connect 37 0 36 0;
#X connect 38 0 7 0;
#X connect 39 0 7 0;
#X connect 40 0 32 0;
#X connect 41 0 31 0;
#X connect 44 0 7 0;
#X connect 45 0 4 1;
#X connect 46 0 33 0;
#X connect 50 0 28 1;
#X connect 50 0 29 1;
#X connect 51 0 27 1;
#X connect 52 0 20 0;
#X connect 53 0 20 0;
#X restore 200 533 pd mirror2;
#X obj 25 76 r 143-redo;
#X obj 342 509 tabwrite bank-times2;
#X obj 576 532 s 143-redo;
#X obj 393 333 tabread bank-times2;
#X obj 51 528 tabwrite bank-audio2;
#X obj 102 375 tabread bank-audio2;
#X obj 289 704 throw~ outR;
#X obj 307 683 *~;
#X obj 323 649 vline~;
#X obj 323 624 r 2ramp;
#X connect 0 0 65 0;
#X connect 0 1 48 0;
#X connect 1 0 65 1;
#X connect 2 0 8 0;
#X connect 3 0 78 0;
#X connect 3 1 78 1;
#X connect 4 0 2 0;
#X connect 5 0 15 0;
#X connect 6 0 7 1;
#X connect 7 0 50 0;
#X connect 8 0 3 0;
#X connect 8 1 64 0;
#X connect 8 1 79 0;
#X connect 9 0 55 1;
#X connect 11 0 0 0;
#X connect 12 0 13 0;
#X connect 13 0 11 0;
#X connect 13 1 14 0;
#X connect 14 0 17 0;
#X connect 15 0 7 0;
#X connect 15 1 16 0;
#X connect 16 0 29 0;
#X connect 17 0 66 0;
#X connect 17 1 51 0;
#X connect 18 0 66 1;
#X connect 19 0 24 0;
#X connect 20 0 75 0;
#X connect 20 1 75 1;
#X connect 21 0 19 0;
#X connect 22 0 61 0;
#X connect 23 0 72 0;
#X connect 24 0 20 0;
#X connect 24 1 77 0;
#X connect 26 0 29 1;
#X connect 27 0 23 1;
#X connect 28 0 31 1;
#X connect 29 0 32 0;
#X connect 30 0 31 0;
#X connect 31 0 27 0;
#X connect 32 0 37 0;
#X connect 33 0 12 0;
#X connect 34 0 33 1;
#X connect 34 0 37 1;
#X connect 35 0 36 0;
#X connect 36 0 33 0;
#X connect 36 1 34 0;
#X connect 37 0 81 0;
#X connect 38 0 9 0;
#X connect 39 0 70 0;
#X connect 40 0 71 0;
#X connect 41 0 9 0;
#X connect 42 0 28 0;
#X connect 43 0 44 0;
#X connect 44 0 72 1;
#X connect 45 0 28 0;
#X connect 46 0 76 0;
#X connect 47 0 71 0;
#X connect 48 0 53 0;
#X connect 49 0 48 0;
#X connect 50 0 73 0;
#X connect 51 0 52 0;
#X connect 52 0 30 0;
#X connect 53 0 54 0;
#X connect 54 0 55 0;
#X connect 55 0 6 0;
#X connect 56 0 57 0;
#X connect 57 0 72 2;
#X connect 58 0 59 0;
#X connect 59 0 62 1;
#X connect 60 0 26 0;
#X connect 60 1 46 0;
#X connect 61 0 23 0;
#X connect 61 1 62 0;
#X connect 62 0 60 0;
#X connect 63 0 21 1;
#X connect 63 0 65 1;
#X connect 64 0 63 0;
#X connect 65 0 1 0;
#X connect 65 0 4 0;
#X connect 66 0 18 0;
#X connect 66 0 21 0;
#X connect 67 0 44 0;
#X connect 68 0 57 0;
#X connect 69 0 59 0;
#X connect 70 0 40 0;
#X connect 70 1 41 0;
#X connect 70 2 45 0;
#X connect 70 3 67 0;
#X connect 70 4 68 0;
#X connect 70 5 69 0;
#X connect 71 0 4 1;
#X connect 71 0 21 1;
#X connect 72 0 20 1;
#X connect 73 0 3 1;
#X connect 74 0 33 0;
#X connect 77 0 22 0;
#X connect 79 0 5 0;
#X connect 81 0 80 0;
#X connect 82 0 81 1;
#X connect 83 0 82 0;
#X restore 498 611 pd A_and_t 12 0.009 0.052 1.01 1.113 0.46;
#X obj 514 180 t b b b;
#X obj 513 144 loadbang;
#X msg 555 370 20 24 52 975 1125 0.5;
#N canvas 0 22 450 278 (subpatch) 0;
#X array bank-times2 32 float 3;
#A 0 2.72344 2.82422 0.267281 2.59144 2.86003 0.509344 1.24659 2.43469
1.09763 2.28394 1.34841 2.53453 1.28044 1.71281 2.92744 2.63475 1.53741
2.16422 0.420563 1.72462 2.229 2.2335 1.37184 2.35341 2.26884 1.50994
0.957562 0.412687 1.25813 0.531563 0.104625 1.07559;
#X coords 0 278 1 277 200 140 0;
#X restore 866 518 graph;
#N canvas 0 25 408 270 load_initial_set2 0;
#X obj 119 126 random 32000;
#X obj 119 147 / 16000;
#X floatatom 119 189 5 0 0 0 - - -;
#X obj 119 168 - 1;
#X obj 38 105 t b b, f 14;
#X obj 67 127 + 1;
#X floatatom 38 171 5 0 0 0 - - -;
#X obj 38 207 swap, f 14;
#X msg 38 62 32;
#X obj 38 149 % 32;
#X obj 38 127 f;
#X obj 38 84 until;
#X text 69 62 make departure set;
#X obj 38 43 bng 15 250 50 0 empty empty empty 17 7 0 10 -262144 -1
-1;
#X obj 212 104 t b b, f 14;
#X obj 241 126 + 1;
#X floatatom 212 170 5 0 0 0 - - -;
#X obj 212 225 swap, f 14;
#X msg 212 61 32;
#X obj 212 148 % 32;
#X obj 212 126 f;
#X obj 212 83 until;
#X text 243 61 make departure set;
#X obj 212 42 bng 15 250 50 0 empty empty empty 17 7 0 10 -262144 -1
-1;
#X obj 293 165 / 32000;
#X obj 293 186 * 3;
#X obj 293 125 random 31000;
#X floatatom 293 207 5 0 0 0 - - -;
#X floatatom 337 84 5 0 0 0 - - -;
#X obj 129 5 inlet;
#X obj 129 27 t b b;
#X obj 293 145 + 1000;
#X obj 38 229 tabwrite bank-audio2;
#X obj 212 246 tabwrite bank-times2;
#X connect 0 0 1 0;
#X connect 1 0 3 0;
#X connect 2 0 7 1;
#X connect 3 0 2 0;
#X connect 4 0 10 0;
#X connect 4 1 0 0;
#X connect 5 0 10 1;
#X connect 6 0 7 0;
#X connect 7 0 32 0;
#X connect 7 1 32 1;
#X connect 8 0 11 0;
#X connect 9 0 6 0;
#X connect 10 0 5 0;
#X connect 10 0 9 0;
#X connect 11 0 4 0;
#X connect 13 0 8 0;
#X connect 14 0 20 0;
#X connect 14 1 26 0;
#X connect 15 0 20 1;
#X connect 16 0 17 0;
#X connect 17 0 33 0;
#X connect 17 1 33 1;
#X connect 18 0 21 0;
#X connect 19 0 16 0;
#X connect 20 0 15 0;
#X connect 20 0 19 0;
#X connect 21 0 14 0;
#X connect 23 0 18 0;
#X connect 24 0 25 0;
#X connect 25 0 27 0;
#X connect 26 0 31 0;
#X connect 27 0 17 1;
#X connect 28 0 25 1;
#X connect 29 0 30 0;
#X connect 30 0 13 0;
#X connect 30 1 23 0;
#X connect 31 0 24 0;
#X restore 494 315 pd load_initial_set2;
#X obj 697 664 / 10;
#X obj 697 685 pow -1;
#X obj 785 673 t b f;
#X obj 822 710 *;
#X obj 354 475 + 2;
#X obj 354 538 int;
#X obj 367 350 tgl 15 0 empty empty empty 17 7 0 10 -262144 -1 -1 1
1;
#X obj 354 517 line 5;
#X obj 354 454 random 8;
#X msg 354 496 \$1 5000;
#X obj 659 476 r tmin;
#X obj 719 478 r tmax;
#X obj 567 465 r steps;
#X obj 604 485 * 2;
#X obj 406 221 / 6;
#X obj 405 197 r mdensity;
#X obj 354 426 metro 4777;
#X obj 941 357 / 62.5;
#X obj 941 378 pow -1;
#X floatatom 941 412 5 0 0 0 - - -;
#X floatatom 943 335 5 0 0 0 - - -;
#X obj 938 239 mtof;
#X floatatom 948 156 5 0 0 0 - - -;
#X obj 943 217 + 1;
#X msg 944 278 \$1 22;
#X obj 944 299 line 1;
#X obj 1012 193 + 100;
#X obj 949 109 t f b b, f 27;
#X obj 1101 197 + 100;
#X obj 947 188 pipe;
#X obj 1012 281 pack f f;
#X obj 1007 382 s 1ramp;
#X msg 1012 302 0 \$1 \, 1 \$2 \$1;
#X obj 949 88 r 2pit;
#X obj 1012 172 random 900;
#X obj 1101 176 random 900;
#X connect 1 0 18 0;
#X connect 2 0 23 0;
#X connect 3 0 18 1;
#X connect 3 0 24 0;
#X connect 4 0 5 0;
#X connect 5 0 12 0;
#X connect 6 0 7 0;
#X connect 7 0 11 0;
#X connect 8 0 9 0;
#X connect 9 0 10 0;
#X connect 10 0 18 2;
#X connect 11 0 18 3;
#X connect 12 0 18 4;
#X connect 13 0 14 0;
#X connect 14 0 15 0;
#X connect 15 0 18 5;
#X connect 16 0 27 0;
#X connect 17 0 3 0;
#X connect 17 1 8 0;
#X connect 17 2 6 0;
#X connect 17 3 4 0;
#X connect 17 4 13 0;
#X connect 17 5 16 0;
#X connect 19 0 30 0;
#X connect 19 1 21 0;
#X connect 19 2 2 0;
#X connect 20 0 19 0;
#X connect 21 0 17 0;
#X connect 24 0 25 0;
#X connect 25 0 26 0;
#X connect 26 0 27 0;
#X connect 26 1 27 1;
#X connect 27 0 18 6;
#X connect 28 0 33 0;
#X connect 29 0 3 0;
#X connect 30 0 40 0;
#X connect 31 0 29 0;
#X connect 32 0 28 0;
#X connect 33 0 31 0;
#X connect 34 0 4 0;
#X connect 35 0 13 0;
#X connect 36 0 37 0;
#X connect 36 0 8 0;
#X connect 37 0 6 0;
#X connect 38 0 32 1;
#X connect 39 0 38 0;
#X connect 40 0 32 0;
#X connect 41 0 42 0;
#X connect 42 0 43 0;
#X connect 43 0 16 0;
#X connect 44 0 41 0;
#X connect 45 0 48 0;
#X connect 46 0 53 0;
#X connect 47 0 45 0;
#X connect 48 0 49 0;
#X connect 49 0 44 0;
#X connect 50 0 53 1;
#X connect 50 0 54 0;
#X connect 51 0 46 0;
#X connect 51 1 58 0;
#X connect 51 2 59 0;
#X connect 52 0 54 1;
#X connect 53 0 47 0;
#X connect 54 0 56 0;
#X connect 56 0 55 0;
#X connect 57 0 51 0;
#X connect 58 0 50 0;
#X connect 59 0 52 0;
#X restore 321 179 pd 2sto;
#N canvas 741 68 939 914 1sto 0;
#N canvas 0 22 450 278 (subpatch) 0;
#X array bank-times 32 float 3;
#A 0 0.879937 0.423469 1.55437 1.09425 1.97109 2.62078 1.05113 2.38538
2.90212 0.781875 1.12753 1.89572 1.32572 2.24053 1.85766 0.973875 1.17891
1.077 1.22166 2.94994 2.46581 0.59625 0.872813 2.19206 2.66512 0.931125
0.280031 2.22469 1.04456 1.17619 2.49431 1.87903;
#X coords 0 278 1 277 200 140 0;
#X restore 379 689 graph;
#N canvas 0 25 408 270 load_initial_set 0;
#X obj 119 126 random 32000;
#X obj 119 147 / 16000;
#X floatatom 119 189 5 0 0 0 - - -;
#X obj 119 168 - 1;
#X obj 38 105 t b b, f 14;
#X obj 67 127 + 1;
#X floatatom 38 171 5 0 0 0 - - -;
#X obj 38 207 swap, f 14;
#X msg 38 62 32;
#X obj 38 149 % 32;
#X obj 38 127 f;
#X obj 38 84 until;
#X text 69 62 make departure set;
#X obj 38 43 bng 15 250 50 0 empty empty empty 17 7 0 10 -262144 -1
-1;
#X obj 212 104 t b b, f 14;
#X obj 241 126 + 1;
#X floatatom 212 170 5 0 0 0 - - -;
#X obj 212 225 swap, f 14;
#X msg 212 61 32;
#X obj 212 148 % 32;
#X obj 212 126 f;
#X obj 212 83 until;
#X text 243 61 make departure set;
#X obj 212 42 bng 15 250 50 0 empty empty empty 17 7 0 10 -262144 -1
-1;
#X obj 38 229 tabwrite bank-audio;
#X obj 212 246 tabwrite bank-times;
#X obj 293 165 / 32000;
#X obj 293 186 * 3;
#X obj 293 125 random 31000;
#X floatatom 293 207 5 0 0 0 - - -;
#X floatatom 337 84 5 0 0 0 - - -;
#X obj 129 5 inlet;
#X obj 129 27 t b b;
#X obj 293 145 + 1000;
#X connect 0 0 1 0;
#X connect 1 0 3 0;
#X connect 2 0 7 1;
#X connect 3 0 2 0;
#X connect 4 0 10 0;
#X connect 4 1 0 0;
#X connect 5 0 10 1;
#X connect 6 0 7 0;
#X connect 7 0 24 0;
#X connect 7 1 24 1;
#X connect 8 0 11 0;
#X connect 9 0 6 0;
#X connect 10 0 5 0;
#X connect 10 0 9 0;
#X connect 11 0 4 0;
#X connect 13 0 8 0;
#X connect 14 0 20 0;
#X connect 14 1 28 0;
#X connect 15 0 20 1;
#X connect 16 0 17 0;
#X connect 17 0 25 0;
#X connect 17 1 25 1;
#X connect 18 0 21 0;
#X connect 19 0 16 0;
#X connect 20 0 15 0;
#X connect 20 0 19 0;
#X connect 21 0 14 0;
#X connect 23 0 18 0;
#X connect 26 0 27 0;
#X connect 27 0 29 0;
#X connect 28 0 33 0;
#X connect 29 0 17 1;
#X connect 30 0 27 1;
#X connect 31 0 32 0;
#X connect 32 0 13 0;
#X connect 32 1 23 0;
#X connect 33 0 26 0;
#X restore 329 314 pd load_initial_set;
#X obj 81 535 tgl 15 0 f red empty 17 7 0 10 -262144 -1 -1 0 1;
#X obj 329 294 bng 15 250 50 0 empty empty empty 17 7 0 10 -262144
-1 -1;
#X floatatom 128 527 5 0 0 0 - - -;
#X floatatom 271 528 5 0 0 0 - - -;
#X obj 271 547 / 1000;
#X floatatom 223 527 5 0 0 0 - - -;
#X obj 223 546 / 1000;
#X floatatom 176 527 5 0 0 0 - - -;
#X obj 176 546 / 1000;
#X floatatom 176 568 5 0 0 0 - - -;
#X floatatom 223 568 5 0 0 0 - - -;
#X floatatom 271 569 5 0 0 0 - - -;
#X floatatom 318 528 5 0 0 0 - - -;
#X obj 318 547 / 1000;
#X floatatom 318 569 5 0 0 0 - - -;
#X floatatom 382 551 5 0 0 0 - - -;
#X obj 266 372 unpack f f f f f f, f 32;
#N canvas 1509 634 356 410 A_and_t 0;
#X obj 51 234 t b b, f 22;
#X obj 80 257 + 1;
#X floatatom 51 301 5 0 0 0 - - -;
#X obj 51 506 swap, f 9;
#X obj 51 279 % 32;
#X floatatom 102 397 5 0 0 0 - - -;
#X floatatom 183 356 7 0 0 0 - - -;
#X obj 102 439 +, f 14;
#X obj 51 320 t f f, f 9;
#X floatatom 240 221 5 0 0 0 - - -;
#X text 237 204 step size;
#X obj 51 200 bng 15 250 50 0 empty empty empty 17 7 0 10 -262144 -1
-1;
#X obj 102 375 tabread bank-audio;
#X obj 51 528 tabwrite bank-audio;
#X obj 51 159 bng 15 250 50 0 empty empty empty 17 7 0 10 -262144 -1
-1;
#X obj 51 179 t b b, f 49;
#X obj 342 201 bng 15 250 50 0 empty empty empty 17 7 0 10 -262144
-1 -1;
#X obj 102 416 t f f, f 28;
#X floatatom 292 537 5 0 0 0 - - -;
#X obj 342 222 t b b, f 31;
#X obj 371 245 + 1;
#X floatatom 342 289 5 0 0 0 - - -;
#X obj 342 487 swap, f 9;
#X obj 342 267 % 32;
#X floatatom 393 354 5 0 0 0 - - -;
#X obj 393 431 +, f 14;
#X obj 342 308 t f f, f 9;
#X text 607 232 step size;
#X floatatom 537 507 5 0 0 0 - - -;
#X floatatom 524 336 5 0 0 0 - - -;
#X floatatom 611 250 5 0 0 0 - - -;
#X obj 393 333 tabread bank-times;
#X obj 342 509 tabwrite bank-times;
#X obj 292 556 pack f f, f 34;
#X obj 524 291 - 1;
#X obj 524 314 * 0.05, f 15;
#X obj 294 635 vline~;
#X obj 576 532 s \$0-redo;
#X obj 25 76 r \$0-redo;
#X obj 51 136 spigot;
#X obj 99 137 tgl 15 0 empty empty empty 17 7 0 10 -262144 -1 -1 0
1;
#X obj 90 76 inlet;
#X obj 90 98 t b f;
#X obj 294 657 *~, f 10;
#X obj 231 94 inlet;
#X obj 369 39 loadbang;
#X obj 337 116 f \$1;
#X obj 368 116 f \$2;
#X obj 567 93 inlet;
#X obj 712 99 inlet;
#X floatatom 704 286 5 0 0 0 - - -;
#X obj 401 116 f \$3;
#X obj 576 509 del;
#X obj 168 95 inlet;
#X obj 183 266 random 2;
#X obj 204 235 bng 15 250 50 0 empty empty empty 17 7 0 10 -262144
-1 -1;
#X floatatom 102 461 5 0 0 0 - - -;
#X obj 524 248 random 2;
#X obj 524 269 * 2;
#X obj 183 287 * 2;
#X obj 183 311 - 1, f 4;
#X obj 183 334 *, f 10;
#X obj 753 99 inlet;
#X floatatom 745 286 5 0 0 0 - - -;
#X obj 794 99 inlet;
#X floatatom 786 286 5 0 0 0 - - -;
#X obj 537 485 t f f, f 7;
#X obj 393 393 t f f, f 20;
#X obj 538 461 * 1;
#X msg 112 290 0;
#X obj 110 269 sel 2e+06;
#X obj 51 257 f;
#X obj 342 245 f;
#X obj 434 116 f \$4;
#X obj 465 116 f \$5;
#X obj 498 116 f \$6;
#X obj 369 61 t b b b b b b, f 19;
#X floatatom 168 117 48 0 0 0 - - -;
#N canvas 0 25 949 1027 mirror 0;
#X obj 40 182 inlet;
#X obj 89 275 tgl 15 0 empty empty empty 17 7 0 10 -262144 -1 -1 0
1;
#X obj 89 295 t f f;
#X obj 240 546 outlet;
#X obj 89 252 > -1;
#X obj 111 326 sel 0;
#X obj 40 327 spigot;
#X obj 40 229 t f f f, f 17;
#X obj 111 348 f, f 8;
#X floatatom 111 370 5 0 0 0 - - -;
#X obj 111 389 + 1;
#X floatatom 111 411 5 0 0 0 - - -;
#X obj 111 430 * -1;
#X obj 111 459 - 1, f 8;
#X floatatom 111 481 5 0 0 0 - - -;
#X floatatom 40 527 5 0 0 0 - - -;
#X obj 289 275 tgl 15 0 empty empty empty 17 7 0 10 -262144 -1 -1 0
1;
#X obj 289 295 t f f;
#X obj 311 326 sel 0;
#X obj 240 327 spigot;
#X obj 240 229 t f f f, f 17;
#X obj 311 348 f, f 8;
#X floatatom 311 370 5 0 0 0 - - -;
#X floatatom 311 411 5 0 0 0 - - -;
#X obj 311 430 * -1;
#X floatatom 311 474 5 0 0 0 - - -;
#X floatatom 240 522 5 0 0 0 - - -;
#X obj 289 252 < 1;
#X obj 311 389 - 1;
#X obj 311 452 + 1, f 8;
#X obj 88 35 loadbang;
#X floatatom 115 129 5 0 0 0 - - -;
#X floatatom 178 129 5 0 0 0 - - -;
#X obj 156 392 * -1;
#X obj 177 85 inlet;
#X obj 220 85 inlet;
#X obj 88 57 t b b, f 9;
#X obj 165 34 bng 15 250 50 0 empty empty empty 17 7 0 10 -262144 -1
-1;
#X msg 22 126 -1.03;
#X msg 32 148 1.03;
#X obj 88 83 f 0;
#X obj 139 85 f 1;
#X obj 51 204 r 11-feed-neg;
#X obj 240 180 r 11-neg-ok;
#X obj 250 202 r 11-feed-pos;
#X obj 319 252 r 11-ul;
#X obj 356 389 r 11-ul;
#X obj 115 148 s 11-ll;
#X obj 178 148 s 11-ul;
#X obj 111 500 s 11-feed-neg;
#X obj 311 493 s 11-feed-pos;
#X obj 156 371 r 11-ll;
#X obj 124 252 r 11-ll;
#X obj 40 546 s 11-neg-ok;
#X connect 0 0 7 0;
#X connect 1 0 2 0;
#X connect 2 0 6 1;
#X connect 2 1 5 0;
#X connect 4 0 1 0;
#X connect 5 0 8 0;
#X connect 6 0 15 0;
#X connect 7 0 6 0;
#X connect 7 1 4 0;
#X connect 7 2 8 1;
#X connect 8 0 9 0;
#X connect 9 0 10 0;
#X connect 10 0 11 0;
#X connect 11 0 12 0;
#X connect 12 0 13 0;
#X connect 13 0 14 0;
#X connect 14 0 49 0;
#X connect 15 0 53 0;
#X connect 16 0 17 0;
#X connect 17 0 19 1;
#X connect 17 1 18 0;
#X connect 18 0 21 0;
#X connect 19 0 26 0;
#X connect 20 0 19 0;
#X connect 20 1 27 0;
#X connect 20 2 21 1;
#X connect 21 0 22 0;
#X connect 22 0 28 0;
#X connect 23 0 24 0;
#X connect 24 0 29 0;
#X connect 25 0 50 0;
#X connect 26 0 3 0;
#X connect 27 0 16 0;
#X connect 28 0 23 0;
#X connect 29 0 25 0;
#X connect 30 0 36 0;
#X connect 31 0 47 0;
#X connect 32 0 48 0;
#X connect 33 0 10 1;
#X connect 33 0 13 1;
#X connect 34 0 31 0;
#X connect 35 0 32 0;
#X connect 36 0 40 0;
#X connect 36 1 41 0;
#X connect 37 0 36 0;
#X connect 38 0 7 0;
#X connect 39 0 7 0;
#X connect 40 0 31 0;
#X connect 41 0 32 0;
#X connect 42 0 7 0;
#X connect 43 0 20 0;
#X connect 44 0 20 0;
#X connect 45 0 27 1;
#X connect 46 0 28 1;
#X connect 46 0 29 1;
#X connect 51 0 33 0;
#X connect 52 0 4 1;
#X restore 725 425 pd mirror;
#N canvas 0 25 949 1027 mirror2 0;
#X obj 40 182 inlet;
#X obj 89 275 tgl 15 0 empty empty empty 17 7 0 10 -262144 -1 -1 0
1;
#X obj 89 295 t f f;
#X obj 240 546 outlet;
#X obj 89 252 > -1;
#X obj 111 326 sel 0;
#X obj 40 327 spigot;
#X obj 40 229 t f f f, f 17;
#X obj 111 348 f, f 8;
#X floatatom 111 370 5 0 0 0 - - -;
#X obj 111 389 + 1;
#X floatatom 111 411 5 0 0 0 - - -;
#X obj 111 430 * -1;
#X obj 111 459 - 1, f 8;
#X floatatom 111 481 5 0 0 0 - - -;
#X floatatom 40 527 5 0 0 0 - - -;
#X obj 289 275 tgl 15 0 empty empty empty 17 7 0 10 -262144 -1 -1 0
1;
#X obj 289 295 t f f;
#X obj 311 326 sel 0;
#X obj 240 327 spigot;
#X obj 240 229 t f f f, f 17;
#X obj 311 348 f, f 8;
#X floatatom 311 370 5 0 0 0 - - -;
#X floatatom 311 411 5 0 0 0 - - -;
#X obj 311 430 * -1;
#X floatatom 311 474 5 0 0 0 - - -;
#X floatatom 240 522 5 0 0 0 - - -;
#X obj 289 252 < 1;
#X obj 311 389 - 1;
#X obj 311 452 + 1, f 8;
#X obj 88 35 loadbang;
#X floatatom 115 129 5 0 0 0 - - -;
#X floatatom 178 129 5 0 0 0 - - -;
#X obj 156 392 * -1;
#X obj 177 85 inlet;
#X obj 220 85 inlet;
#X obj 88 57 t b b, f 9;
#X obj 165 34 bng 15 250 50 0 empty empty empty 17 7 0 10 -262144 -1
-1;
#X msg 22 126 -1.03;
#X msg 32 148 1.03;
#X obj 139 85 f 1;
#X obj 88 83 f -1;
#X obj 115 148 s 111-ll;
#X obj 178 148 s 111-ul;
#X obj 319 253 r 111-ul;
#X obj 356 389 r 111-ul;
#X obj 311 493 s 111-feed-pos;
#X obj 111 500 s 111-feed-neg;
#X obj 40 546 s 111-neg-ok;
#X obj 156 371 r 111-ll;
#X obj 124 252 r 111-ll;
#X obj 51 204 r 111-feed-neg;
#X obj 241 179 r 111-neg-ok;
#X obj 250 202 r 111-feed-pos;
#X connect 0 0 7 0;
#X connect 1 0 2 0;
#X connect 2 0 6 1;
#X connect 2 1 5 0;
#X connect 4 0 1 0;
#X connect 5 0 8 0;
#X connect 6 0 15 0;
#X connect 7 0 6 0;
#X connect 7 1 4 0;
#X connect 7 2 8 1;
#X connect 8 0 9 0;
#X connect 9 0 10 0;
#X connect 10 0 11 0;
#X connect 11 0 12 0;
#X connect 12 0 13 0;
#X connect 13 0 14 0;
#X connect 14 0 47 0;
#X connect 15 0 48 0;
#X connect 16 0 17 0;
#X connect 17 0 19 1;
#X connect 17 1 18 0;
#X connect 18 0 21 0;
#X connect 19 0 26 0;
#X connect 20 0 19 0;
#X connect 20 1 27 0;
#X connect 20 2 21 1;
#X connect 21 0 22 0;
#X connect 22 0 28 0;
#X connect 23 0 24 0;
#X connect 24 0 29 0;
#X connect 25 0 46 0;
#X connect 26 0 3 0;
#X connect 27 0 16 0;
#X connect 28 0 23 0;
#X connect 29 0 25 0;
#X connect 30 0 36 0;
#X connect 31 0 42 0;
#X connect 32 0 43 0;
#X connect 33 0 10 1;
#X connect 33 0 13 1;
#X connect 34 0 31 0;
#X connect 35 0 32 0;
#X connect 36 0 41 0;
#X connect 36 1 40 0;
#X connect 37 0 36 0;
#X connect 38 0 7 0;
#X connect 39 0 7 0;
#X connect 40 0 32 0;
#X connect 41 0 31 0;
#X connect 44 0 27 1;
#X connect 45 0 28 1;
#X connect 45 0 29 1;
#X connect 49 0 33 0;
#X connect 50 0 4 1;
#X connect 51 0 7 0;
#X connect 52 0 20 0;
#X connect 53 0 20 0;
#X restore 200 533 pd mirror2;
#X obj 293 829 throw~ outL;
#X obj 292 796 *~;
#X obj 307 754 vline~;
#X obj 307 720 r 1ramp;
#X connect 0 0 71 0;
#X connect 0 1 54 0;
#X connect 1 0 71 1;
#X connect 2 0 8 0;
#X connect 3 0 13 0;
#X connect 3 1 13 1;
#X connect 4 0 2 0;
#X connect 5 0 17 0;
#X connect 6 0 7 1;
#X connect 7 0 56 0;
#X connect 8 0 3 0;
#X connect 8 1 12 0;
#X connect 8 1 70 0;
#X connect 9 0 61 1;
#X connect 11 0 0 0;
#X connect 12 0 5 0;
#X connect 14 0 15 0;
#X connect 15 0 11 0;
#X connect 15 1 16 0;
#X connect 16 0 19 0;
#X connect 17 0 7 0;
#X connect 17 1 18 0;
#X connect 18 0 33 0;
#X connect 19 0 72 0;
#X connect 19 1 57 0;
#X connect 20 0 72 1;
#X connect 21 0 26 0;
#X connect 22 0 32 0;
#X connect 22 1 32 1;
#X connect 23 0 21 0;
#X connect 24 0 67 0;
#X connect 25 0 78 0;
#X connect 26 0 22 0;
#X connect 26 1 31 0;
#X connect 28 0 33 1;
#X connect 29 0 25 1;
#X connect 30 0 35 1;
#X connect 31 0 24 0;
#X connect 33 0 36 0;
#X connect 34 0 35 0;
#X connect 35 0 29 0;
#X connect 36 0 43 0;
#X connect 38 0 39 0;
#X connect 39 0 14 0;
#X connect 40 0 39 1;
#X connect 40 0 43 1;
#X connect 41 0 42 0;
#X connect 42 0 39 0;
#X connect 42 1 40 0;
#X connect 43 0 81 0;
#X connect 44 0 9 0;
#X connect 45 0 76 0;
#X connect 46 0 77 0;
#X connect 47 0 9 0;
#X connect 48 0 30 0;
#X connect 49 0 50 0;
#X connect 50 0 78 1;
#X connect 51 0 30 0;
#X connect 52 0 37 0;
#X connect 53 0 77 0;
#X connect 54 0 59 0;
#X connect 55 0 54 0;
#X connect 56 0 79 0;
#X connect 57 0 58 0;
#X connect 58 0 34 0;
#X connect 59 0 60 0;
#X connect 60 0 61 0;
#X connect 61 0 6 0;
#X connect 62 0 63 0;
#X connect 63 0 78 2;
#X connect 64 0 65 0;
#X connect 65 0 68 1;
#X connect 66 0 28 0;
#X connect 66 1 52 0;
#X connect 67 0 25 0;
#X connect 67 1 68 0;
#X connect 68 0 66 0;
#X connect 69 0 23 1;
#X connect 69 0 71 1;
#X connect 70 0 69 0;
#X connect 71 0 1 0;
#X connect 71 0 4 0;
#X connect 72 0 20 0;
#X connect 72 0 23 0;
#X connect 73 0 50 0;
#X connect 74 0 63 0;
#X connect 75 0 65 0;
#X connect 76 0 46 0;
#X connect 76 1 47 0;
#X connect 76 2 51 0;
#X connect 76 3 73 0;
#X connect 76 4 74 0;
#X connect 76 5 75 0;
#X connect 77 0 4 1;
#X connect 77 0 23 1;
#X connect 78 0 22 1;
#X connect 79 0 3 1;
#X connect 81 0 80 0;
#X connect 82 0 81 1;
#X connect 83 0 82 0;
#X restore 81 611 pd A_and_t 12 0.009 0.052 1.01 1.113 0.46;
#X obj 624 341 / 62.5;
#X obj 624 362 pow -1;
#X floatatom 624 396 5 0 0 0 - - -;
#X floatatom 626 319 5 0 0 0 - - -;
#X obj 621 223 mtof;
#X floatatom 631 140 5 0 0 0 - - -;
#X obj 213 279 t b b b;
#X obj 289 233 loadbang;
#X msg 301 351 20 24 52 975 1125 0.5;
#N canvas 0 25 450 278 (subpatch) 0;
#X array bank-audio 32 float 3;
#A 0 -0.97875 0.592188 0.91825 0.316687 -0.0324375 0.816313 -0.817375
-0.492 -0.206125 0.412125 0.0915625 0.0105 0.049875 0.386562 0.732125
0.645813 -0.522687 -0.38175 -0.132187 0.841563 -0.5215 0.825938 0.407
-0.4 -0.414813 0.537688 -0.128062 0.466938 0.92725 -0.940812 0.867313
0.500312;
#X coords 0 278 1 277 200 140 0;
#X restore 376 665 graph;
#X obj 626 201 + 1;
#X obj 159 671 / 10;
#X obj 159 692 pow -1;
#X obj 247 680 t b f;
#X obj 284 717 *;
#X obj 90 406 + 2;
#X obj 90 469 int;
#X obj 90 448 line 5;
#X obj 91 385 random 8;
#X msg 627 262 \$1 22;
#X obj 627 283 line 1;
#X obj 94 351 metro 4000;
#X msg 90 427 \$1 4000;
#X obj 281 475 r tmin;
#X obj 341 477 r tmax;
#X obj 181 370 r steps;
#X obj 226 484 * 2;
#X obj 109 285 / 6;
#X obj 109 264 r mdensity;
#X obj 632 72 r 1pit;
#X obj 178 303 tgl 15 0 empty empty empty 17 7 0 10 -262144 -1 -1 1
1;
#X obj 695 177 + 100;
#X obj 632 93 t f b b, f 27;
#X obj 784 181 + 100;
#X obj 630 172 pipe;
#X obj 695 265 pack f f;
#X obj 690 366 s 1ramp;
#X msg 695 286 0 \$1 \, 1 \$2 \$1;
#X obj 695 156 random 900;
#X obj 784 160 random 900;
#X connect 2 0 19 0;
#X connect 3 0 1 0;
#X connect 4 0 19 1;
#X connect 4 0 31 0;
#X connect 5 0 6 0;
#X connect 6 0 13 0;
#X connect 7 0 8 0;
#X connect 8 0 12 0;
#X connect 9 0 10 0;
#X connect 10 0 11 0;
#X connect 11 0 19 2;
#X connect 12 0 19 3;
#X connect 13 0 19 4;
#X connect 14 0 15 0;
#X connect 15 0 16 0;
#X connect 16 0 19 5;
#X connect 17 0 34 0;
#X connect 18 0 4 0;
#X connect 18 1 9 0;
#X connect 18 2 7 0;
#X connect 18 3 5 0;
#X connect 18 4 14 0;
#X connect 18 5 17 0;
#X connect 20 0 21 0;
#X connect 21 0 22 0;
#X connect 22 0 17 0;
#X connect 23 0 20 0;
#X connect 24 0 39 0;
#X connect 25 0 54 0;
#X connect 26 0 50 0;
#X connect 26 1 28 0;
#X connect 26 2 3 0;
#X connect 27 0 26 0;
#X connect 28 0 18 0;
#X connect 30 0 24 0;
#X connect 31 0 32 0;
#X connect 32 0 33 0;
#X connect 33 0 34 0;
#X connect 33 1 34 1;
#X connect 34 0 19 6;
#X connect 35 0 42 0;
#X connect 36 0 4 0;
#X connect 37 0 36 0;
#X connect 38 0 35 0;
#X connect 39 0 40 0;
#X connect 40 0 23 0;
#X connect 41 0 38 0;
#X connect 42 0 37 0;
#X connect 43 0 5 0;
#X connect 44 0 14 0;
#X connect 45 0 46 0;
#X connect 45 0 9 0;
#X connect 46 0 7 0;
#X connect 47 0 38 1;
#X connect 48 0 47 0;
#X connect 49 0 52 0;
#X connect 50 0 41 0;
#X connect 51 0 54 1;
#X connect 51 0 55 0;
#X connect 52 0 25 0;
#X connect 52 1 58 0;
#X connect 52 2 59 0;
#X connect 53 0 55 1;
#X connect 54 0 30 0;
#X connect 55 0 57 0;
#X connect 57 0 56 0;
#X connect 58 0 51 0;
#X connect 59 0 53 0;
#X restore 313 135 pd 1sto;
#N canvas 88 23 1508 1005 3sto 0;
#N canvas 0 22 450 278 (subpatch) 0;
#X array bank-times3 32 float 3;
#A 0 0.438656 2.22581 1.84772 0.627281 2.28956 0.989812 2.70244 2.12475
1.63809 0.655219 1.57256 1.70822 0.367406 2.40703 1.30387 1.92816 2.45578
1.79466 1.72838 0.7665 1.57978 0.310969 0.346125 1.76297 0.68625 2.44125
1.72462 0.891469 2.50106 1.08591 0.742969 2.49919;
#X coords 0 278 1 277 200 140 0;
#X restore 379 689 graph;
#N canvas 0 25 408 270 load_initial_set 0;
#X obj 119 126 random 32000;
#X obj 119 147 / 16000;
#X floatatom 119 189 5 0 0 0 - - -;
#X obj 119 168 - 1;
#X obj 38 105 t b b, f 14;
#X obj 67 127 + 1;
#X floatatom 38 171 5 0 0 0 - - -;
#X obj 38 207 swap, f 14;
#X msg 38 62 32;
#X obj 38 149 % 32;
#X obj 38 127 f;
#X obj 38 84 until;
#X text 69 62 make departure set;
#X obj 38 43 bng 15 250 50 0 empty empty empty 17 7 0 10 -262144 -1
-1;
#X obj 212 104 t b b, f 14;
#X obj 241 126 + 1;
#X floatatom 212 170 5 0 0 0 - - -;
#X obj 212 225 swap, f 14;
#X msg 212 61 32;
#X obj 212 148 % 32;
#X obj 212 126 f;
#X obj 212 83 until;
#X text 243 61 make departure set;
#X obj 212 42 bng 15 250 50 0 empty empty empty 17 7 0 10 -262144 -1
-1;
#X obj 293 165 / 32000;
#X obj 293 186 * 3;
#X obj 293 125 random 31000;
#X floatatom 293 207 5 0 0 0 - - -;
#X floatatom 337 84 5 0 0 0 - - -;
#X obj 129 5 inlet;
#X obj 129 27 t b b;
#X obj 293 145 + 1000;
#X obj 38 229 tabwrite bank-audio3;
#X obj 212 246 tabwrite bank-times3;
#X connect 0 0 1 0;
#X connect 1 0 3 0;
#X connect 2 0 7 1;
#X connect 3 0 2 0;
#X connect 4 0 10 0;
#X connect 4 1 0 0;
#X connect 5 0 10 1;
#X connect 6 0 7 0;
#X connect 7 0 32 0;
#X connect 7 1 32 1;
#X connect 8 0 11 0;
#X connect 9 0 6 0;
#X connect 10 0 5 0;
#X connect 10 0 9 0;
#X connect 11 0 4 0;
#X connect 13 0 8 0;
#X connect 14 0 20 0;
#X connect 14 1 26 0;
#X connect 15 0 20 1;
#X connect 16 0 17 0;
#X connect 17 0 33 0;
#X connect 17 1 33 1;
#X connect 18 0 21 0;
#X connect 19 0 16 0;
#X connect 20 0 15 0;
#X connect 20 0 19 0;
#X connect 21 0 14 0;
#X connect 23 0 18 0;
#X connect 24 0 25 0;
#X connect 25 0 27 0;
#X connect 26 0 31 0;
#X connect 27 0 17 1;
#X connect 28 0 25 1;
#X connect 29 0 30 0;
#X connect 30 0 13 0;
#X connect 30 1 23 0;
#X connect 31 0 24 0;
#X restore 329 314 pd load_initial_set;
#X obj 81 535 tgl 15 0 f red empty 17 7 0 10 -262144 -1 -1 0 1;
#X obj 329 294 bng 15 250 50 0 empty empty empty 17 7 0 10 -262144
-1 -1;
#X floatatom 128 527 5 0 0 0 - - -;
#X floatatom 271 528 5 0 0 0 - - -;
#X obj 271 547 / 1000;
#X floatatom 223 527 5 0 0 0 - - -;
#X obj 223 546 / 1000;
#X floatatom 176 527 5 0 0 0 - - -;
#X obj 176 546 / 1000;
#X floatatom 176 568 5 0 0 0 - - -;
#X floatatom 223 568 5 0 0 0 - - -;
#X floatatom 271 569 5 0 0 0 - - -;
#X floatatom 318 528 5 0 0 0 - - -;
#X obj 318 547 / 1000;
#X floatatom 318 569 5 0 0 0 - - -;
#X floatatom 382 551 5 0 0 0 - - -;
#X obj 266 372 unpack f f f f f f, f 32;
#N canvas 330 228 940 683 A_and_t 0;
#X obj 51 234 t b b, f 22;
#X obj 80 257 + 1;
#X floatatom 51 301 5 0 0 0 - - -;
#X obj 51 506 swap, f 9;
#X obj 51 279 % 32;
#X floatatom 102 397 5 0 0 0 - - -;
#X floatatom 183 356 7 0 0 0 - - -;
#X obj 102 439 +, f 14;
#X obj 51 320 t f f, f 9;
#X floatatom 240 221 5 0 0 0 - - -;
#X text 237 204 step size;
#X obj 51 200 bng 15 250 50 0 empty empty empty 17 7 0 10 -262144 -1
-1;
#X obj 51 159 bng 15 250 50 0 empty empty empty 17 7 0 10 -262144 -1
-1;
#X obj 51 179 t b b, f 49;
#X obj 342 201 bng 15 250 50 0 empty empty empty 17 7 0 10 -262144
-1 -1;
#X obj 102 416 t f f, f 28;
#X floatatom 292 537 5 0 0 0 - - -;
#X obj 342 222 t b b, f 31;
#X obj 371 245 + 1;
#X floatatom 342 289 5 0 0 0 - - -;
#X obj 342 487 swap, f 9;
#X obj 342 267 % 32;
#X floatatom 393 354 5 0 0 0 - - -;
#X obj 393 431 +, f 14;
#X obj 342 308 t f f, f 9;
#X text 607 232 step size;
#X floatatom 537 507 5 0 0 0 - - -;
#X floatatom 524 336 5 0 0 0 - - -;
#X floatatom 611 250 5 0 0 0 - - -;
#X obj 292 556 pack f f, f 34;
#X obj 524 291 - 1;
#X obj 524 314 * 0.05, f 15;
#X obj 292 578 vline~;
#X obj 51 136 spigot;
#X obj 99 137 tgl 15 0 empty empty empty 17 7 0 10 -262144 -1 -1 0
1;
#X obj 90 76 inlet;
#X obj 90 98 t b f;
#X obj 292 600 *~, f 10;
#X obj 231 94 inlet;
#X obj 369 39 loadbang;
#X obj 337 116 f \$1;
#X obj 368 116 f \$2;
#X obj 567 93 inlet;
#X obj 712 99 inlet;
#X floatatom 704 286 5 0 0 0 - - -;
#X obj 401 116 f \$3;
#X obj 576 509 del;
#X obj 168 95 inlet;
#X obj 183 266 random 2;
#X obj 204 235 bng 15 250 50 0 empty empty empty 17 7 0 10 -262144
-1 -1;
#X floatatom 102 461 5 0 0 0 - - -;
#X obj 524 248 random 2;
#X obj 524 269 * 2;
#X obj 183 287 * 2;
#X obj 183 311 - 1, f 4;
#X obj 183 334 *, f 10;
#X obj 753 99 inlet;
#X floatatom 745 286 5 0 0 0 - - -;
#X obj 794 99 inlet;
#X floatatom 786 286 5 0 0 0 - - -;
#X obj 537 485 t f f, f 7;
#X obj 393 393 t f f, f 20;
#X obj 538 461 * 1;
#X msg 112 290 0;
#X obj 110 269 sel 2e+06;
#X obj 51 257 f;
#X obj 342 245 f;
#X obj 434 116 f \$4;
#X obj 465 116 f \$5;
#X obj 498 116 f \$6;
#X obj 369 61 t b b b b b b, f 19;
#X floatatom 168 117 48 0 0 0 - - -;
#N canvas 244 25 949 1027 mirror 0;
#X obj 40 182 inlet;
#X obj 89 275 tgl 15 0 empty empty empty 17 7 0 10 -262144 -1 -1 0
1;
#X obj 89 295 t f f;
#X obj 240 546 outlet;
#X obj 89 252 > -1;
#X obj 111 326 sel 0;
#X obj 40 327 spigot;
#X obj 40 229 t f f f, f 17;
#X obj 111 348 f, f 8;
#X floatatom 111 370 5 0 0 0 - - -;
#X obj 111 389 + 1;
#X floatatom 111 411 5 0 0 0 - - -;
#X obj 111 430 * -1;
#X obj 111 459 - 1, f 8;
#X floatatom 111 481 5 0 0 0 - - -;
#X floatatom 40 527 5 0 0 0 - - -;
#X obj 289 275 tgl 15 0 empty empty empty 17 7 0 10 -262144 -1 -1 0
1;
#X obj 289 295 t f f;
#X obj 311 326 sel 0;
#X obj 240 327 spigot;
#X obj 240 229 t f f f, f 17;
#X obj 311 348 f, f 8;
#X floatatom 311 370 5 0 0 0 - - -;
#X floatatom 311 411 5 0 0 0 - - -;
#X obj 311 430 * -1;
#X floatatom 311 474 5 0 0 0 - - -;
#X floatatom 240 522 5 0 0 0 - - -;
#X obj 289 252 < 1;
#X obj 311 389 - 1;
#X obj 311 452 + 1, f 8;
#X obj 88 35 loadbang;
#X floatatom 115 129 5 0 0 0 - - -;
#X floatatom 178 129 5 0 0 0 - - -;
#X obj 156 392 * -1;
#X obj 177 85 inlet;
#X obj 220 85 inlet;
#X obj 88 57 t b b, f 9;
#X obj 165 34 bng 15 250 50 0 empty empty empty 17 7 0 10 -262144 -1
-1;
#X msg 22 126 -1.03;
#X msg 32 148 1.03;
#X obj 88 83 f 0;
#X obj 139 85 f 1;
#X obj 115 148 s 511-ll;
#X obj 177 148 s 511-ul;
#X obj 51 204 r 511-feed-neg;
#X obj 240 180 r 511-neg-ok;
#X obj 250 202 r 511-feed-pos;
#X obj 356 389 r 511-ul;
#X obj 311 493 s 511-feed-pos;
#X obj 111 500 s 511-feed-neg;
#X obj 40 546 s 511-neg-ok;
#X obj 156 371 r 511-ll;
#X obj 124 252 r 511-ll;
#X obj 319 252 r 511-ul;
#X connect 0 0 7 0;
#X connect 1 0 2 0;
#X connect 2 0 6 1;
#X connect 2 1 5 0;
#X connect 4 0 1 0;
#X connect 5 0 8 0;
#X connect 6 0 15 0;
#X connect 7 0 6 0;
#X connect 7 1 4 0;
#X connect 7 2 8 1;
#X connect 8 0 9 0;
#X connect 9 0 10 0;
#X connect 10 0 11 0;
#X connect 11 0 12 0;
#X connect 12 0 13 0;
#X connect 13 0 14 0;
#X connect 14 0 49 0;
#X connect 15 0 50 0;
#X connect 16 0 17 0;
#X connect 17 0 19 1;
#X connect 17 1 18 0;
#X connect 18 0 21 0;
#X connect 19 0 26 0;
#X connect 20 0 19 0;
#X connect 20 1 27 0;
#X connect 20 2 21 1;
#X connect 21 0 22 0;
#X connect 22 0 28 0;
#X connect 23 0 24 0;
#X connect 24 0 29 0;
#X connect 25 0 48 0;
#X connect 26 0 3 0;
#X connect 27 0 16 0;
#X connect 28 0 23 0;
#X connect 29 0 25 0;
#X connect 30 0 36 0;
#X connect 31 0 42 0;
#X connect 32 0 43 0;
#X connect 33 0 10 1;
#X connect 33 0 13 1;
#X connect 34 0 31 0;
#X connect 35 0 32 0;
#X connect 36 0 40 0;
#X connect 36 1 41 0;
#X connect 37 0 36 0;
#X connect 38 0 7 0;
#X connect 39 0 7 0;
#X connect 40 0 31 0;
#X connect 41 0 32 0;
#X connect 44 0 7 0;
#X connect 45 0 20 0;
#X connect 46 0 20 0;
#X connect 47 0 28 1;
#X connect 47 0 29 1;
#X connect 51 0 33 0;
#X connect 52 0 4 1;
#X connect 53 0 27 1;
#X restore 725 425 pd mirror;
#N canvas 0 25 949 1027 mirror2 0;
#X obj 40 182 inlet;
#X obj 89 275 tgl 15 0 empty empty empty 17 7 0 10 -262144 -1 -1 0
1;
#X obj 89 295 t f f;
#X obj 240 546 outlet;
#X obj 89 252 > -1;
#X obj 111 326 sel 0;
#X obj 40 327 spigot;
#X obj 40 229 t f f f, f 17;
#X obj 111 348 f, f 8;
#X floatatom 111 370 5 0 0 0 - - -;
#X obj 111 389 + 1;
#X floatatom 111 411 5 0 0 0 - - -;
#X obj 111 430 * -1;
#X obj 111 459 - 1, f 8;
#X floatatom 111 481 5 0 0 0 - - -;
#X floatatom 40 527 5 0 0 0 - - -;
#X obj 289 275 tgl 15 0 empty empty empty 17 7 0 10 -262144 -1 -1 0
1;
#X obj 289 295 t f f;
#X obj 311 326 sel 0;
#X obj 240 327 spigot;
#X obj 240 229 t f f f, f 17;
#X obj 311 348 f, f 8;
#X floatatom 311 370 5 0 0 0 - - -;
#X floatatom 311 411 5 0 0 0 - - -;
#X obj 311 430 * -1;
#X floatatom 311 474 5 0 0 0 - - -;
#X floatatom 240 522 5 0 0 0 - - -;
#X obj 289 252 < 1;
#X obj 311 389 - 1;
#X obj 311 452 + 1, f 8;
#X obj 88 35 loadbang;
#X floatatom 115 129 5 0 0 0 - - -;
#X floatatom 178 129 5 0 0 0 - - -;
#X obj 156 392 * -1;
#X obj 177 85 inlet;
#X obj 220 85 inlet;
#X obj 88 57 t b b, f 9;
#X obj 165 34 bng 15 250 50 0 empty empty empty 17 7 0 10 -262144 -1
-1;
#X msg 22 126 -1.03;
#X msg 32 148 1.03;
#X obj 139 85 f 1;
#X obj 88 83 f -1;
#X obj 115 148 s 1112-ll;
#X obj 178 148 s 1112-ul;
#X obj 51 204 r 1112-feed-neg;
#X obj 124 252 r 1112-ll;
#X obj 156 371 r 1112-ll;
#X obj 109 501 s 1112-feed-neg;
#X obj 41 546 s 1112-neg-ok;
#X obj 311 493 s 1112-feed-pos;
#X obj 356 389 r 1112-ul;
#X obj 319 253 r 1112-ul;
#X obj 250 202 r 1112-feed-pos;
#X obj 241 179 r 1112-neg-ok;
#X connect 0 0 7 0;
#X connect 1 0 2 0;
#X connect 2 0 6 1;
#X connect 2 1 5 0;
#X connect 4 0 1 0;
#X connect 5 0 8 0;
#X connect 6 0 15 0;
#X connect 7 0 6 0;
#X connect 7 1 4 0;
#X connect 7 2 8 1;
#X connect 8 0 9 0;
#X connect 9 0 10 0;
#X connect 10 0 11 0;
#X connect 11 0 12 0;
#X connect 12 0 13 0;
#X connect 13 0 14 0;
#X connect 14 0 47 0;
#X connect 15 0 48 0;
#X connect 16 0 17 0;
#X connect 17 0 19 1;
#X connect 17 1 18 0;
#X connect 18 0 21 0;
#X connect 19 0 26 0;
#X connect 20 0 19 0;
#X connect 20 1 27 0;
#X connect 20 2 21 1;
#X connect 21 0 22 0;
#X connect 22 0 28 0;
#X connect 23 0 24 0;
#X connect 24 0 29 0;
#X connect 25 0 49 0;
#X connect 26 0 3 0;
#X connect 27 0 16 0;
#X connect 28 0 23 0;
#X connect 29 0 25 0;
#X connect 30 0 36 0;
#X connect 31 0 42 0;
#X connect 32 0 43 0;
#X connect 33 0 10 1;
#X connect 33 0 13 1;
#X connect 34 0 31 0;
#X connect 35 0 32 0;
#X connect 36 0 41 0;
#X connect 36 1 40 0;
#X connect 37 0 36 0;
#X connect 38 0 7 0;
#X connect 39 0 7 0;
#X connect 40 0 32 0;
#X connect 41 0 31 0;
#X connect 44 0 7 0;
#X connect 45 0 4 1;
#X connect 46 0 33 0;
#X connect 50 0 28 1;
#X connect 50 0 29 1;
#X connect 51 0 27 1;
#X connect 52 0 20 0;
#X connect 53 0 20 0;
#X restore 200 533 pd mirror2;
#X obj 25 76 r 123-redo;
#X obj 576 532 s 123-redo;
#X obj 344 698 throw~ outL1;
#X obj 51 528 tabwrite bank-audio3;
#X obj 342 509 tabwrite bank-times3;
#X obj 102 375 tabread bank-audio3;
#X obj 393 333 tabread bank-times3;
#X obj 345 677 *~;
#X obj 360 635 vline~;
#X obj 360 601 r 3ramp;
#X connect 0 0 65 0;
#X connect 0 1 48 0;
#X connect 1 0 65 1;
#X connect 2 0 8 0;
#X connect 3 0 77 0;
#X connect 3 1 77 1;
#X connect 4 0 2 0;
#X connect 5 0 15 0;
#X connect 6 0 7 1;
#X connect 7 0 50 0;
#X connect 8 0 3 0;
#X connect 8 1 64 0;
#X connect 8 1 79 0;
#X connect 9 0 55 1;
#X connect 11 0 0 0;
#X connect 12 0 13 0;
#X connect 13 0 11 0;
#X connect 13 1 14 0;
#X connect 14 0 17 0;
#X connect 15 0 7 0;
#X connect 15 1 16 0;
#X connect 16 0 29 0;
#X connect 17 0 66 0;
#X connect 17 1 51 0;
#X connect 18 0 66 1;
#X connect 19 0 24 0;
#X connect 20 0 78 0;
#X connect 20 1 78 1;
#X connect 21 0 19 0;
#X connect 22 0 61 0;
#X connect 23 0 72 0;
#X connect 24 0 20 0;
#X connect 24 1 80 0;
#X connect 26 0 29 1;
#X connect 27 0 23 1;
#X connect 28 0 31 1;
#X connect 29 0 32 0;
#X connect 30 0 31 0;
#X connect 31 0 27 0;
#X connect 32 0 37 0;
#X connect 33 0 12 0;
#X connect 34 0 33 1;
#X connect 34 0 37 1;
#X connect 35 0 36 0;
#X connect 36 0 33 0;
#X connect 36 1 34 0;
#X connect 37 0 81 0;
#X connect 38 0 9 0;
#X connect 39 0 70 0;
#X connect 40 0 71 0;
#X connect 41 0 9 0;
#X connect 42 0 28 0;
#X connect 43 0 44 0;
#X connect 44 0 72 1;
#X connect 45 0 28 0;
#X connect 46 0 75 0;
#X connect 47 0 71 0;
#X connect 48 0 53 0;
#X connect 49 0 48 0;
#X connect 50 0 73 0;
#X connect 51 0 52 0;
#X connect 52 0 30 0;
#X connect 53 0 54 0;
#X connect 54 0 55 0;
#X connect 55 0 6 0;
#X connect 56 0 57 0;
#X connect 57 0 72 2;
#X connect 58 0 59 0;
#X connect 59 0 62 1;
#X connect 60 0 26 0;
#X connect 60 1 46 0;
#X connect 61 0 23 0;
#X connect 61 1 62 0;
#X connect 62 0 60 0;
#X connect 63 0 21 1;
#X connect 63 0 65 1;
#X connect 64 0 63 0;
#X connect 65 0 1 0;
#X connect 65 0 4 0;
#X connect 66 0 18 0;
#X connect 66 0 21 0;
#X connect 67 0 44 0;
#X connect 68 0 57 0;
#X connect 69 0 59 0;
#X connect 70 0 40 0;
#X connect 70 1 41 0;
#X connect 70 2 45 0;
#X connect 70 3 67 0;
#X connect 70 4 68 0;
#X connect 70 5 69 0;
#X connect 71 0 4 1;
#X connect 71 0 21 1;
#X connect 72 0 20 1;
#X connect 73 0 3 1;
#X connect 74 0 33 0;
#X connect 79 0 5 0;
#X connect 80 0 22 0;
#X connect 81 0 76 0;
#X connect 82 0 81 1;
#X connect 83 0 82 0;
#X restore 81 611 pd A_and_t 12 0.009 0.052 1.01 1.113 0.46;
#X obj 213 279 t b b b;
#X obj 289 233 loadbang;
#X msg 301 351 20 24 52 975 1125 0.5;
#N canvas 0 25 450 278 (subpatch) 0;
#X array bank-audio3 32 float 3;
#A 0 -0.372437 0.769812 -0.654688 -0.64875 -0.925812 -0.222812 0.788937
0.30125 0.303063 -0.793312 0.84575 -0.351 0.9205 0.280063 -0.5555 0.653437
-0.830063 0.410875 -0.614313 -0.750062 0.901 0.67325 0.31 0.518687
0.53775 -0.729125 0.667313 -0.846125 0.0479375 -0.9945 -0.314812 -0.067875
;
#X coords 0 278 1 277 200 140 0;
#X restore 376 665 graph;
#X obj 159 671 / 10;
#X obj 159 692 pow -1;
#X obj 247 680 t b f;
#X obj 284 717 *;
#X obj 90 406 + 2;
#X obj 90 469 int;
#X obj 90 448 line 5;
#X obj 91 385 random 8;
#X obj 94 351 metro 4000;
#X msg 90 427 \$1 4000;
#X obj 281 475 r tmin;
#X obj 341 477 r tmax;
#X obj 189 464 r steps;
#X obj 226 484 * 2;
#X obj 109 285 / 6;
#X obj 109 264 r mdensity;
#X obj 178 303 tgl 15 0 empty empty empty 17 7 0 10 -262144 -1 -1 1
1;
#X obj 624 341 / 62.5;
#X obj 624 362 pow -1;
#X floatatom 624 396 5 0 0 0 - - -;
#X floatatom 626 319 5 0 0 0 - - -;
#X obj 621 223 mtof;
#X floatatom 631 140 5 0 0 0 - - -;
#X obj 626 201 + 1;
#X msg 627 262 \$1 22;
#X obj 627 283 line 1;
#X obj 695 177 + 100;
#X obj 632 93 t f b b, f 27;
#X obj 784 181 + 100;
#X obj 630 172 pipe;
#X obj 695 265 pack f f;
#X msg 695 286 0 \$1 \, 1 \$2 \$1;
#X obj 690 366 s 3ramp;
#X obj 695 156 random 900;
#X obj 784 160 random 900;
#X obj 632 72 r 3pit;
#X connect 2 0 19 0;
#X connect 3 0 1 0;
#X connect 4 0 19 1;
#X connect 4 0 24 0;
#X connect 5 0 6 0;
#X connect 6 0 13 0;
#X connect 7 0 8 0;
#X connect 8 0 12 0;
#X connect 9 0 10 0;
#X connect 10 0 11 0;
#X connect 11 0 19 2;
#X connect 12 0 19 3;
#X connect 13 0 19 4;
#X connect 14 0 15 0;
#X connect 15 0 16 0;
#X connect 16 0 19 5;
#X connect 17 0 27 0;
#X connect 18 0 4 0;
#X connect 18 1 9 0;
#X connect 18 2 7 0;
#X connect 18 3 5 0;
#X connect 18 4 14 0;
#X connect 18 5 17 0;
#X connect 20 0 40 0;
#X connect 20 1 22 0;
#X connect 20 2 3 0;
#X connect 21 0 20 0;
#X connect 22 0 18 0;
#X connect 24 0 25 0;
#X connect 25 0 26 0;
#X connect 26 0 27 0;
#X connect 26 1 27 1;
#X connect 27 0 19 6;
#X connect 28 0 33 0;
#X connect 29 0 4 0;
#X connect 30 0 29 0;
#X connect 31 0 28 0;
#X connect 32 0 31 0;
#X connect 33 0 30 0;
#X connect 34 0 5 0;
#X connect 35 0 14 0;
#X connect 36 0 37 0;
#X connect 36 0 9 0;
#X connect 37 0 7 0;
#X connect 38 0 31 1;
#X connect 39 0 38 0;
#X connect 40 0 32 0;
#X connect 41 0 42 0;
#X connect 42 0 43 0;
#X connect 43 0 17 0;
#X connect 44 0 41 0;
#X connect 45 0 48 0;
#X connect 46 0 53 0;
#X connect 47 0 45 0;
#X connect 48 0 49 0;
#X connect 49 0 44 0;
#X connect 50 0 53 1;
#X connect 50 0 54 0;
#X connect 51 0 46 0;
#X connect 51 1 57 0;
#X connect 51 2 58 0;
#X connect 52 0 54 1;
#X connect 53 0 47 0;
#X connect 54 0 55 0;
#X connect 55 0 56 0;
#X connect 57 0 50 0;
#X connect 58 0 52 0;
#X connect 59 0 51 0;
#X restore 414 134 pd 3sto;
#X obj 1403 634 r pit;
#X obj 1380 769 t b f, f 47;
#X obj 1405 962 pack f f, f 42;
#X msg 1375 867 1;
#X msg 1427 889 2;
#X msg 1486 908 3;
#X msg 1551 914 4;
#X obj 151 487 catch~ outL1;
#X obj 148 568 *~ 2.5;
#X obj 585 629 *~ 2.5;
#X obj 588 548 catch~ outR1;
#X msg 1405 994 \; \$1pit \$2;
#N canvas 88 23 801 1005 4sto 0;
#N canvas 0 22 450 278 (subpatch) 0;
#X array bank-times4 32 float 3;
#A 0 2.73084 2.30391 1.18594 1.93416 0.645656 2.87212 1.97634 0.29325
1.065 2.47144 0.555562 0.761344 1.65159 0.294375 0.685781 2.40356 0.630562
1.26159 1.21978 1.99828 1.104 0.7185 1.86825 0.530719 0.832969 1.101
0.247969 0.967687 2.36447 2.44444 0.555469 0.220312;
#X coords 0 278 1 277 200 140 0;
#X restore 379 689 graph;
#N canvas 183 124 408 270 load_initial_set 0;
#X obj 119 126 random 32000;
#X obj 119 147 / 16000;
#X floatatom 119 189 5 0 0 0 - - -;
#X obj 119 168 - 1;
#X obj 38 105 t b b, f 14;
#X obj 67 127 + 1;
#X floatatom 38 171 5 0 0 0 - - -;
#X obj 38 207 swap, f 14;
#X msg 38 62 32;
#X obj 38 149 % 32;
#X obj 38 127 f;
#X obj 38 84 until;
#X text 69 62 make departure set;
#X obj 38 43 bng 15 250 50 0 empty empty empty 17 7 0 10 -262144 -1
-1;
#X obj 212 104 t b b, f 14;
#X obj 241 126 + 1;
#X floatatom 212 170 5 0 0 0 - - -;
#X obj 212 225 swap, f 14;
#X msg 212 61 32;
#X obj 212 148 % 32;
#X obj 212 126 f;
#X obj 212 83 until;
#X text 243 61 make departure set;
#X obj 212 42 bng 15 250 50 0 empty empty empty 17 7 0 10 -262144 -1
-1;
#X obj 293 165 / 32000;
#X obj 293 186 * 3;
#X obj 293 125 random 31000;
#X floatatom 293 207 5 0 0 0 - - -;
#X floatatom 337 84 5 0 0 0 - - -;
#X obj 129 5 inlet;
#X obj 129 27 t b b;
#X obj 293 145 + 1000;
#X obj 38 229 tabwrite bank-audio4;
#X obj 212 246 tabwrite bank-times4;
#X connect 0 0 1 0;
#X connect 1 0 3 0;
#X connect 2 0 7 1;
#X connect 3 0 2 0;
#X connect 4 0 10 0;
#X connect 4 1 0 0;
#X connect 5 0 10 1;
#X connect 6 0 7 0;
#X connect 7 0 32 0;
#X connect 7 1 32 1;
#X connect 8 0 11 0;
#X connect 9 0 6 0;
#X connect 10 0 5 0;
#X connect 10 0 9 0;
#X connect 11 0 4 0;
#X connect 13 0 8 0;
#X connect 14 0 20 0;
#X connect 14 1 26 0;
#X connect 15 0 20 1;
#X connect 16 0 17 0;
#X connect 17 0 33 0;
#X connect 17 1 33 1;
#X connect 18 0 21 0;
#X connect 19 0 16 0;
#X connect 20 0 15 0;
#X connect 20 0 19 0;
#X connect 21 0 14 0;
#X connect 23 0 18 0;
#X connect 24 0 25 0;
#X connect 25 0 27 0;
#X connect 26 0 31 0;
#X connect 27 0 17 1;
#X connect 28 0 25 1;
#X connect 29 0 30 0;
#X connect 30 0 13 0;
#X connect 30 1 23 0;
#X connect 31 0 24 0;
#X restore 329 314 pd load_initial_set;
#X obj 81 535 tgl 15 0 f red empty 17 7 0 10 -262144 -1 -1 0 1;
#X obj 329 294 bng 15 250 50 0 empty empty empty 17 7 0 10 -262144
-1 -1;
#X floatatom 128 527 5 0 0 0 - - -;
#X floatatom 271 528 5 0 0 0 - - -;
#X obj 271 547 / 1000;
#X floatatom 223 527 5 0 0 0 - - -;
#X obj 223 546 / 1000;
#X floatatom 176 527 5 0 0 0 - - -;
#X obj 176 546 / 1000;
#X floatatom 176 568 5 0 0 0 - - -;
#X floatatom 223 568 5 0 0 0 - - -;
#X floatatom 271 569 5 0 0 0 - - -;
#X floatatom 318 528 5 0 0 0 - - -;
#X obj 318 547 / 1000;
#X floatatom 318 569 5 0 0 0 - - -;
#X floatatom 382 551 5 0 0 0 - - -;
#X obj 266 372 unpack f f f f f f, f 32;
#N canvas 330 228 940 683 A_and_t 0;
#X obj 51 234 t b b, f 22;
#X obj 80 257 + 1;
#X floatatom 51 301 5 0 0 0 - - -;
#X obj 51 506 swap, f 9;
#X obj 51 279 % 32;
#X floatatom 102 397 5 0 0 0 - - -;
#X floatatom 183 356 7 0 0 0 - - -;
#X obj 102 439 +, f 14;
#X obj 51 320 t f f, f 9;
#X floatatom 240 221 5 0 0 0 - - -;
#X text 237 204 step size;
#X obj 51 200 bng 15 250 50 0 empty empty empty 17 7 0 10 -262144 -1
-1;
#X obj 51 159 bng 15 250 50 0 empty empty empty 17 7 0 10 -262144 -1
-1;
#X obj 51 179 t b b, f 49;
#X obj 342 201 bng 15 250 50 0 empty empty empty 17 7 0 10 -262144
-1 -1;
#X obj 102 416 t f f, f 28;
#X floatatom 292 537 5 0 0 0 - - -;
#X obj 342 222 t b b, f 31;
#X obj 371 245 + 1;
#X floatatom 342 289 5 0 0 0 - - -;
#X obj 342 487 swap, f 9;
#X obj 342 267 % 32;
#X floatatom 393 354 5 0 0 0 - - -;
#X obj 393 431 +, f 14;
#X obj 342 308 t f f, f 9;
#X text 607 232 step size;
#X floatatom 537 507 5 0 0 0 - - -;
#X floatatom 524 336 5 0 0 0 - - -;
#X floatatom 611 250 5 0 0 0 - - -;
#X obj 292 556 pack f f, f 34;
#X obj 524 291 - 1;
#X obj 524 314 * 0.05, f 15;
#X obj 292 578 vline~;
#X obj 51 136 spigot;
#X obj 99 137 tgl 15 0 empty empty empty 17 7 0 10 -262144 -1 -1 0
1;
#X obj 90 76 inlet;
#X obj 90 98 t b f;
#X obj 292 600 *~, f 10;
#X obj 231 94 inlet;
#X obj 369 39 loadbang;
#X obj 337 116 f \$1;
#X obj 368 116 f \$2;
#X obj 567 93 inlet;
#X obj 712 99 inlet;
#X floatatom 704 286 5 0 0 0 - - -;
#X obj 401 116 f \$3;
#X obj 576 509 del;
#X obj 168 95 inlet;
#X obj 183 266 random 2;
#X obj 204 235 bng 15 250 50 0 empty empty empty 17 7 0 10 -262144
-1 -1;
#X floatatom 102 461 5 0 0 0 - - -;
#X obj 524 248 random 2;
#X obj 524 269 * 2;
#X obj 183 287 * 2;
#X obj 183 311 - 1, f 4;
#X obj 183 334 *, f 10;
#X obj 753 99 inlet;
#X floatatom 745 286 5 0 0 0 - - -;
#X obj 794 99 inlet;
#X floatatom 786 286 5 0 0 0 - - -;
#X obj 537 485 t f f, f 7;
#X obj 393 393 t f f, f 20;
#X obj 538 461 * 1;
#X msg 112 290 0;
#X obj 110 269 sel 2e+06;
#X obj 51 257 f;
#X obj 342 245 f;
#X obj 434 116 f \$4;
#X obj 465 116 f \$5;
#X obj 498 116 f \$6;
#X obj 369 61 t b b b b b b, f 19;
#X floatatom 168 117 48 0 0 0 - - -;
#N canvas 1030 72 949 1027 mirror 0;
#X obj 40 182 inlet;
#X obj 89 275 tgl 15 0 empty empty empty 17 7 0 10 -262144 -1 -1 0
1;
#X obj 89 295 t f f;
#X obj 240 546 outlet;
#X obj 89 252 > -1;
#X obj 111 326 sel 0;
#X obj 40 327 spigot;
#X obj 40 229 t f f f, f 17;
#X obj 111 348 f, f 8;
#X floatatom 111 370 5 0 0 0 - - -;
#X obj 111 389 + 1;
#X floatatom 111 411 5 0 0 0 - - -;
#X obj 111 430 * -1;
#X obj 111 459 - 1, f 8;
#X floatatom 111 481 5 0 0 0 - - -;
#X floatatom 40 527 5 0 0 0 - - -;
#X obj 289 275 tgl 15 0 empty empty empty 17 7 0 10 -262144 -1 -1 0
1;
#X obj 289 295 t f f;
#X obj 311 326 sel 0;
#X obj 240 327 spigot;
#X obj 240 229 t f f f, f 17;
#X obj 311 348 f, f 8;
#X floatatom 311 370 5 0 0 0 - - -;
#X floatatom 311 411 5 0 0 0 - - -;
#X obj 311 430 * -1;
#X floatatom 311 474 5 0 0 0 - - -;
#X floatatom 240 522 5 0 0 0 - - -;
#X obj 289 252 < 1;
#X obj 311 389 - 1;
#X obj 311 452 + 1, f 8;
#X obj 88 35 loadbang;
#X floatatom 115 129 5 0 0 0 - - -;
#X floatatom 178 129 5 0 0 0 - - -;
#X obj 156 392 * -1;
#X obj 177 85 inlet;
#X obj 220 85 inlet;
#X obj 88 57 t b b, f 9;
#X obj 165 34 bng 15 250 50 0 empty empty empty 17 7 0 10 -262144 -1
-1;
#X msg 22 126 -1.03;
#X msg 32 148 1.03;
#X obj 88 83 f 0;
#X obj 139 85 f 1;
#X obj 51 204 r 2211-feed-neg;
#X obj 240 180 r 2211-neg-ok;
#X obj 250 202 r 2211-feed-pos;
#X obj 111 500 s 2211-feed-neg;
#X obj 40 546 s 2211-neg-ok;
#X obj 311 493 s 2211-feed-pos;
#X obj 356 389 r 2211-ul;
#X obj 156 371 r 2211-ll;
#X obj 124 252 r 2211-ll;
#X obj 115 148 s 2211-ll;
#X obj 178 147 s 2211-ul;
#X obj 319 252 r 2211-ul;
#X connect 0 0 7 0;
#X connect 1 0 2 0;
#X connect 2 0 6 1;
#X connect 2 1 5 0;
#X connect 4 0 1 0;
#X connect 5 0 8 0;
#X connect 6 0 15 0;
#X connect 7 0 6 0;
#X connect 7 1 4 0;
#X connect 7 2 8 1;
#X connect 8 0 9 0;
#X connect 9 0 10 0;
#X connect 10 0 11 0;
#X connect 11 0 12 0;
#X connect 12 0 13 0;
#X connect 13 0 14 0;
#X connect 14 0 45 0;
#X connect 15 0 46 0;
#X connect 16 0 17 0;
#X connect 17 0 19 1;
#X connect 17 1 18 0;
#X connect 18 0 21 0;
#X connect 19 0 26 0;
#X connect 20 0 19 0;
#X connect 20 1 27 0;
#X connect 20 2 21 1;
#X connect 21 0 22 0;
#X connect 22 0 28 0;
#X connect 23 0 24 0;
#X connect 24 0 29 0;
#X connect 25 0 47 0;
#X connect 26 0 3 0;
#X connect 27 0 16 0;
#X connect 28 0 23 0;
#X connect 29 0 25 0;
#X connect 30 0 36 0;
#X connect 31 0 51 0;
#X connect 32 0 52 0;
#X connect 33 0 10 1;
#X connect 33 0 13 1;
#X connect 34 0 31 0;
#X connect 35 0 32 0;
#X connect 36 0 40 0;
#X connect 36 1 41 0;
#X connect 37 0 36 0;
#X connect 38 0 7 0;
#X connect 39 0 7 0;
#X connect 40 0 31 0;
#X connect 41 0 32 0;
#X connect 42 0 7 0;
#X connect 43 0 20 0;
#X connect 44 0 20 0;
#X connect 48 0 28 1;
#X connect 48 0 29 1;
#X connect 49 0 33 0;
#X connect 50 0 4 1;
#X connect 53 0 27 1;
#X restore 725 425 pd mirror;
#N canvas 0 25 949 1027 mirror2 0;
#X obj 40 182 inlet;
#X obj 89 275 tgl 15 0 empty empty empty 17 7 0 10 -262144 -1 -1 0
1;
#X obj 89 295 t f f;
#X obj 240 546 outlet;
#X obj 89 252 > -1;
#X obj 111 326 sel 0;
#X obj 40 327 spigot;
#X obj 40 229 t f f f, f 17;
#X obj 111 348 f, f 8;
#X floatatom 111 370 5 0 0 0 - - -;
#X obj 111 389 + 1;
#X floatatom 111 411 5 0 0 0 - - -;
#X obj 111 430 * -1;
#X obj 111 459 - 1, f 8;
#X floatatom 111 481 5 0 0 0 - - -;
#X floatatom 40 527 5 0 0 0 - - -;
#X obj 289 275 tgl 15 0 empty empty empty 17 7 0 10 -262144 -1 -1 0
1;
#X obj 289 295 t f f;
#X obj 311 326 sel 0;
#X obj 240 327 spigot;
#X obj 240 229 t f f f, f 17;
#X obj 311 348 f, f 8;
#X floatatom 311 370 5 0 0 0 - - -;
#X floatatom 311 411 5 0 0 0 - - -;
#X obj 311 430 * -1;
#X floatatom 311 474 5 0 0 0 - - -;
#X floatatom 240 522 5 0 0 0 - - -;
#X obj 289 252 < 1;
#X obj 311 389 - 1;
#X obj 311 452 + 1, f 8;
#X obj 88 35 loadbang;
#X floatatom 115 129 5 0 0 0 - - -;
#X floatatom 178 129 5 0 0 0 - - -;
#X obj 156 392 * -1;
#X obj 177 85 inlet;
#X obj 220 85 inlet;
#X obj 88 57 t b b, f 9;
#X obj 165 34 bng 15 250 50 0 empty empty empty 17 7 0 10 -262144 -1
-1;
#X msg 22 126 -1.03;
#X msg 32 148 1.03;
#X obj 139 85 f 1;
#X obj 88 83 f -1;
#X obj 51 204 r 61112-feed-neg;
#X obj 115 148 s 61112-ll;
#X obj 178 148 s 61112-ul;
#X obj 241 179 r 61112-neg-ok;
#X obj 250 202 r 61112-feed-pos;
#X obj 124 252 r 61112-ll;
#X obj 156 371 r 61112-ll;
#X obj 109 500 s 61112-feed-neg;
#X obj 41 546 s 61112-neg-ok;
#X obj 311 493 s 61112-feed-pos;
#X obj 356 390 r 61112-ul;
#X obj 319 253 r 61112-ul;
#X connect 0 0 7 0;
#X connect 1 0 2 0;
#X connect 2 0 6 1;
#X connect 2 1 5 0;
#X connect 4 0 1 0;
#X connect 5 0 8 0;
#X connect 6 0 15 0;
#X connect 7 0 6 0;
#X connect 7 1 4 0;
#X connect 7 2 8 1;
#X connect 8 0 9 0;
#X connect 9 0 10 0;
#X connect 10 0 11 0;
#X connect 11 0 12 0;
#X connect 12 0 13 0;
#X connect 13 0 14 0;
#X connect 14 0 49 0;
#X connect 15 0 50 0;
#X connect 16 0 17 0;
#X connect 17 0 19 1;
#X connect 17 1 18 0;
#X connect 18 0 21 0;
#X connect 19 0 26 0;
#X connect 20 0 19 0;
#X connect 20 1 27 0;
#X connect 20 2 21 1;
#X connect 21 0 22 0;
#X connect 22 0 28 0;
#X connect 23 0 24 0;
#X connect 24 0 29 0;
#X connect 25 0 51 0;
#X connect 26 0 3 0;
#X connect 27 0 16 0;
#X connect 28 0 23 0;
#X connect 29 0 25 0;
#X connect 30 0 36 0;
#X connect 31 0 43 0;
#X connect 32 0 44 0;
#X connect 33 0 10 1;
#X connect 33 0 13 1;
#X connect 34 0 31 0;
#X connect 35 0 32 0;
#X connect 36 0 41 0;
#X connect 36 1 40 0;
#X connect 37 0 36 0;
#X connect 38 0 7 0;
#X connect 39 0 7 0;
#X connect 40 0 32 0;
#X connect 41 0 31 0;
#X connect 42 0 7 0;
#X connect 45 0 20 0;
#X connect 46 0 20 0;
#X connect 47 0 4 1;
#X connect 48 0 33 0;
#X connect 52 0 28 1;
#X connect 52 0 29 1;
#X connect 53 0 27 1;
#X restore 200 533 pd mirror2;
#X obj 25 76 r 113-redo;
#X obj 576 532 s 113-redo;
#X obj 51 528 tabwrite bank-audio4;
#X obj 102 375 tabread bank-audio4;
#X obj 393 333 tabread bank-times4;
#X obj 342 509 tabwrite bank-times4;
#X obj 293 759 throw~ outR1;
#X obj 293 711 *~;
#X obj 308 669 vline~;
#X obj 308 635 r 4ramp;
#X connect 0 0 65 0;
#X connect 0 1 48 0;
#X connect 1 0 65 1;
#X connect 2 0 8 0;
#X connect 3 0 76 0;
#X connect 3 1 76 1;
#X connect 4 0 2 0;
#X connect 5 0 15 0;
#X connect 6 0 7 1;
#X connect 7 0 50 0;
#X connect 8 0 3 0;
#X connect 8 1 64 0;
#X connect 8 1 77 0;
#X connect 9 0 55 1;
#X connect 11 0 0 0;
#X connect 12 0 13 0;
#X connect 13 0 11 0;
#X connect 13 1 14 0;
#X connect 14 0 17 0;
#X connect 15 0 7 0;
#X connect 15 1 16 0;
#X connect 16 0 29 0;
#X connect 17 0 66 0;
#X connect 17 1 51 0;
#X connect 18 0 66 1;
#X connect 19 0 24 0;
#X connect 20 0 79 0;
#X connect 20 1 79 1;
#X connect 21 0 19 0;
#X connect 22 0 61 0;
#X connect 23 0 72 0;
#X connect 24 0 20 0;
#X connect 24 1 78 0;
#X connect 26 0 29 1;
#X connect 27 0 23 1;
#X connect 28 0 31 1;
#X connect 29 0 32 0;
#X connect 30 0 31 0;
#X connect 31 0 27 0;
#X connect 32 0 37 0;
#X connect 33 0 12 0;
#X connect 34 0 33 1;
#X connect 34 0 37 1;
#X connect 35 0 36 0;
#X connect 36 0 33 0;
#X connect 36 1 34 0;
#X connect 37 0 81 0;
#X connect 38 0 9 0;
#X connect 39 0 70 0;
#X connect 40 0 71 0;
#X connect 41 0 9 0;
#X connect 42 0 28 0;
#X connect 43 0 44 0;
#X connect 44 0 72 1;
#X connect 45 0 28 0;
#X connect 46 0 75 0;
#X connect 47 0 71 0;
#X connect 48 0 53 0;
#X connect 49 0 48 0;
#X connect 50 0 73 0;
#X connect 51 0 52 0;
#X connect 52 0 30 0;
#X connect 53 0 54 0;
#X connect 54 0 55 0;
#X connect 55 0 6 0;
#X connect 56 0 57 0;
#X connect 57 0 72 2;
#X connect 58 0 59 0;
#X connect 59 0 62 1;
#X connect 60 0 26 0;
#X connect 60 1 46 0;
#X connect 61 0 23 0;
#X connect 61 1 62 0;
#X connect 62 0 60 0;
#X connect 63 0 21 1;
#X connect 63 0 65 1;
#X connect 64 0 63 0;
#X connect 65 0 1 0;
#X connect 65 0 4 0;
#X connect 66 0 18 0;
#X connect 66 0 21 0;
#X connect 67 0 44 0;
#X connect 68 0 57 0;
#X connect 69 0 59 0;
#X connect 70 0 40 0;
#X connect 70 1 41 0;
#X connect 70 2 45 0;
#X connect 70 3 67 0;
#X connect 70 4 68 0;
#X connect 70 5 69 0;
#X connect 71 0 4 1;
#X connect 71 0 21 1;
#X connect 72 0 20 1;
#X connect 73 0 3 1;
#X connect 74 0 33 0;
#X connect 77 0 5 0;
#X connect 78 0 22 0;
#X connect 81 0 80 0;
#X connect 82 0 81 1;
#X connect 83 0 82 0;
#X restore 81 611 pd A_and_t 12 0.009 0.052 1.01 1.113 0.46;
#X obj 213 279 t b b b;
#X obj 289 233 loadbang;
#X msg 301 351 20 24 52 975 1125 0.5;
#N canvas 0 25 450 278 (subpatch) 0;
#X array bank-audio4 32 float 3;
#A 0 -0.05975 0.798125 -0.889188 -0.510437 0.633062 -0.2355 -0.786125
0.575125 0.992062 -0.74575 0.506 -0.501 -0.557 0.634812 0.169125 -0.838063
-0.958938 -0.417562 0.49875 -0.49175 0.9395 0.051375 -0.626812 0.494313
-0.141375 0.2425 0.72175 -0.942563 -0.44575 0.571813 0.994 0.0848125
;
#X coords 0 278 1 277 200 140 0;
#X restore 376 665 graph;
#X obj 159 671 / 10;
#X obj 159 692 pow -1;
#X obj 247 680 t b f;
#X obj 284 717 *;
#X obj 90 406 + 2;
#X obj 90 469 int;
#X obj 90 448 line 5;
#X obj 91 385 random 8;
#X msg 90 427 \$1 4000;
#X obj 281 475 r tmin;
#X obj 341 477 r tmax;
#X obj 189 464 r steps;
#X obj 226 484 * 2;
#X obj 109 285 / 6;
#X obj 109 264 r mdensity;
#X obj 178 303 tgl 15 0 empty empty empty 17 7 0 10 -262144 -1 -1 1
1;
#X obj 94 351 metro 3666;
#X obj 686 615 / 62.5;
#X obj 686 636 pow -1;
#X floatatom 686 670 5 0 0 0 - - -;
#X floatatom 688 593 5 0 0 0 - - -;
#X obj 683 497 mtof;
#X floatatom 693 414 5 0 0 0 - - -;
#X obj 688 475 + 1;
#X msg 689 536 \$1 22;
#X obj 689 557 line 1;
#X obj 757 451 + 100;
#X obj 694 367 t f b b, f 27;
#X obj 846 455 + 100;
#X obj 692 446 pipe;
#X obj 757 539 pack f f;
#X msg 757 560 0 \$1 \, 1 \$2 \$1;
#X obj 694 346 r 4pit;
#X obj 752 640 s 4ramp;
#X obj 757 430 random 900;
#X obj 846 434 random 900;
#X connect 2 0 19 0;
#X connect 3 0 1 0;
#X connect 4 0 19 1;
#X connect 4 0 24 0;
#X connect 5 0 6 0;
#X connect 6 0 13 0;
#X connect 7 0 8 0;
#X connect 8 0 12 0;
#X connect 9 0 10 0;
#X connect 10 0 11 0;
#X connect 11 0 19 2;
#X connect 12 0 19 3;
#X connect 13 0 19 4;
#X connect 14 0 15 0;
#X connect 15 0 16 0;
#X connect 16 0 19 5;
#X connect 17 0 27 0;
#X connect 18 0 4 0;
#X connect 18 1 9 0;
#X connect 18 2 7 0;
#X connect 18 3 5 0;
#X connect 18 4 14 0;
#X connect 18 5 17 0;
#X connect 20 0 39 0;
#X connect 20 1 22 0;
#X connect 20 2 3 0;
#X connect 21 0 20 0;
#X connect 22 0 18 0;
#X connect 24 0 25 0;
#X connect 25 0 26 0;
#X connect 26 0 27 0;
#X connect 26 1 27 1;
#X connect 27 0 19 6;
#X connect 28 0 32 0;
#X connect 29 0 4 0;
#X connect 30 0 29 0;
#X connect 31 0 28 0;
#X connect 32 0 30 0;
#X connect 33 0 5 0;
#X connect 34 0 14 0;
#X connect 35 0 36 0;
#X connect 35 0 9 0;
#X connect 36 0 7 0;
#X connect 37 0 31 1;
#X connect 38 0 37 0;
#X connect 39 0 40 0;
#X connect 40 0 31 0;
#X connect 41 0 42 0;
#X connect 42 0 43 0;
#X connect 43 0 17 0;
#X connect 44 0 41 0;
#X connect 45 0 48 0;
#X connect 46 0 53 0;
#X connect 47 0 45 0;
#X connect 48 0 49 0;
#X connect 49 0 44 0;
#X connect 50 0 53 1;
#X connect 50 0 54 0;
#X connect 51 0 46 0;
#X connect 51 1 58 0;
#X connect 51 2 59 0;
#X connect 52 0 54 1;
#X connect 53 0 47 0;
#X connect 54 0 55 0;
#X connect 55 0 57 0;
#X connect 56 0 51 0;
#X connect 58 0 50 0;
#X connect 59 0 52 0;
#X restore 410 188 pd 4sto;
#X obj 1380 790 random 19;
#X obj 1171 790 until;
#X obj 1203 650 sel 1;
#X msg 1203 681 19;
#X msg 1242 683 4;
#X msg 1174 746 10;
#X obj 1156 597 r mchordsize;
#X obj 1380 811 sel 0 1 2 3 8 9 10 11 12 13 14 15 16 17 18 4 5 6 7
;
#X msg 1441 655 61;
#X obj 1399 690 + 2.8;
#X obj 1418 716 - 12;
#X msg 422 382 9;
#X obj 895 214 - 997;
#X obj 896 180 * 0.6;
#X obj 939 217 + 1003;
#X obj 1290 539 + 0, f 4;
#X obj 1290 386 t f b;
#X obj 1318 413 random 1;
#X obj 1367 322 / 2;
#X obj 1318 444 sel 0;
#X obj 1365 299 r mpauses;
#X floatatom 1335 523 5 0 0 0 - - -;
#X msg 1378 499 0;
#X floatatom 1357 348 5 0 0 0 - - -;
#X obj 1317 492 + 5000;
#X obj 1318 467 random 15000;
#X obj 772 676 del;
#X msg 772 697 1 3400;
#X obj 764 754 line~;
#X obj 435 867 *~;
#X obj 338 854 *~;
#X obj 763 619 t f b;
#X msg 875 687 0 3400;
#X obj 768 786 pow~ 1.5;
#X obj 639 848 r volslide;
#X msg 639 869 \$1 20;
#X obj 639 890 line~;
#X obj 337 911 *~;
#X obj 417 932 *~;
#X obj 1153 71 r mainclick;
#X msg 1153 92 1;
#X obj 22 -258 r pge;
#X obj 21 -220 s pgo;
#X msg 10 -239 5;
#X obj 869 890 env~;
#X floatatom 869 911 5 0 0 0 - - -;
#X connect 0 0 7 0;
#X connect 0 0 3 0;
#X connect 0 0 4 0;
#X connect 1 0 0 1;
#X connect 3 0 90 0;
#X connect 4 0 89 0;
#X connect 5 0 6 0;
#X connect 6 0 3 1;
#X connect 6 0 4 1;
#X connect 7 0 3 0;
#X connect 7 0 4 0;
#X connect 8 0 7 1;
#X connect 9 0 10 0;
#X connect 10 0 27 0;
#X connect 11 0 8 0;
#X connect 13 0 0 0;
#X connect 13 0 3 0;
#X connect 14 0 4 0;
#X connect 14 0 0 0;
#X connect 14 0 104 0;
#X connect 15 0 11 0;
#X connect 15 0 1 0;
#X connect 15 0 71 0;
#X connect 16 0 17 0;
#X connect 17 0 21 0;
#X connect 18 0 22 0;
#X connect 19 0 20 0;
#X connect 20 0 73 0;
#X connect 23 0 26 0;
#X connect 24 0 19 0;
#X connect 25 0 9 0;
#X connect 26 0 25 0;
#X connect 28 0 38 0;
#X connect 29 0 28 0;
#X connect 31 0 30 0;
#X connect 31 1 65 0;
#X connect 32 0 31 0;
#X connect 33 0 34 0;
#X connect 34 0 35 0;
#X connect 34 0 39 0;
#X connect 34 1 39 1;
#X connect 35 0 37 1;
#X connect 35 0 42 0;
#X connect 36 0 37 0;
#X connect 37 0 76 0;
#X connect 38 0 32 0;
#X connect 38 1 36 0;
#X connect 39 0 40 0;
#X connect 40 0 43 0;
#X connect 43 0 36 1;
#X connect 43 0 41 0;
#X connect 47 0 69 0;
#X connect 48 0 60 0;
#X connect 48 1 49 1;
#X connect 49 0 58 0;
#X connect 50 0 49 0;
#X connect 51 0 49 0;
#X connect 52 0 49 0;
#X connect 53 0 49 0;
#X connect 54 0 7 0;
#X connect 54 0 55 0;
#X connect 55 0 3 0;
#X connect 56 0 7 0;
#X connect 56 0 4 0;
#X connect 57 0 56 0;
#X connect 60 0 67 0;
#X connect 61 0 30 0;
#X connect 62 0 63 0;
#X connect 62 1 64 0;
#X connect 63 0 60 1;
#X connect 64 0 60 1;
#X connect 65 0 61 0;
#X connect 66 0 32 1;
#X connect 66 0 62 0;
#X connect 67 0 50 0;
#X connect 67 1 51 0;
#X connect 67 2 52 0;
#X connect 67 3 53 0;
#X connect 67 4 50 0;
#X connect 67 4 51 0;
#X connect 67 5 50 0;
#X connect 67 5 52 0;
#X connect 67 6 50 0;
#X connect 67 6 53 0;
#X connect 67 7 51 0;
#X connect 67 7 52 0;
#X connect 67 8 51 0;
#X connect 67 8 53 0;
#X connect 67 9 52 0;
#X connect 67 9 53 0;
#X connect 67 10 50 0;
#X connect 67 10 51 0;
#X connect 67 10 52 0;
#X connect 67 11 50 0;
#X connect 67 11 51 0;
#X connect 67 11 53 0;
#X connect 67 12 50 0;
#X connect 67 12 52 0;
#X connect 67 12 53 0;
#X connect 67 13 51 0;
#X connect 67 13 52 0;
#X connect 67 13 53 0;
#X connect 67 14 53 0;
#X connect 67 14 52 0;
#X connect 67 14 51 0;
#X connect 67 14 50 0;
#X connect 67 15 50 0;
#X connect 67 16 51 0;
#X connect 67 17 52 0;
#X connect 67 18 53 0;
#X connect 68 0 69 0;
#X connect 69 0 70 0;
#X connect 70 0 48 0;
#X connect 71 0 5 0;
#X connect 72 0 16 0;
#X connect 73 0 72 0;
#X connect 73 0 74 0;
#X connect 74 0 18 0;
#X connect 75 0 28 1;
#X connect 76 0 75 0;
#X connect 76 1 77 0;
#X connect 77 0 79 0;
#X connect 78 0 77 1;
#X connect 78 0 83 0;
#X connect 79 0 85 0;
#X connect 79 1 82 0;
#X connect 80 0 78 0;
#X connect 82 0 75 1;
#X connect 84 0 75 1;
#X connect 84 0 81 0;
#X connect 84 0 91 0;
#X connect 85 0 84 0;
#X connect 86 0 87 0;
#X connect 87 0 88 0;
#X connect 88 0 90 1;
#X connect 88 0 93 0;
#X connect 89 0 98 0;
#X connect 90 0 97 0;
#X connect 91 0 86 0;
#X connect 91 1 92 0;
#X connect 92 0 88 0;
#X connect 93 0 89 1;
#X connect 93 0 90 1;
#X connect 94 0 95 0;
#X connect 95 0 96 0;
#X connect 96 0 98 1;
#X connect 96 0 97 1;
#X connect 97 0 12 0;
#X connect 98 0 12 1;
#X connect 99 0 100 0;
#X connect 100 0 29 0;
#X connect 101 0 103 0;
#X connect 103 0 102 0;
#X connect 104 0 105 0;
#X restore 342 172 pd g;
#X obj 1 1 cnv 15 300 150 placeh22 title anintertwining 70 12 0
18 -233017 -66577 0;
#X text 99 26 click to start;
#X obj 1 151 cnv 15 300 100 placeh35675543456758 line1 youarea:
12 12 0 14 -233017 -66577 0;
#X obj 1 176 cnv 15 300 100 placeh356756 line2 empty 12 12 0 14 -233017
-159808 0;
#X obj 26 247 hsl 250 20 0 2 0 1 volslide qweasfd volume -2 -8 0 10
-262144 -1 -1 13150 1;
#X obj 102 45 bng 99 250 50 0 mainclick lkjghxfzdxcbv empty 17 7 0
10 -262144 -1 -1;
#N canvas 648 25 786 758 c 1;
#N canvas 490 23 740 1005 title 1;
#X obj 39 692 text define label1;
#X obj 547 313 text set label1;
#X obj 488 686 text get label1;
#X obj 507 353 list length;
#X obj 505 282 t l l;
#X floatatom 507 377 5 0 0 0 - - -;
#X obj 508 447 t b f;
#X obj 52 111 r 2ndlabel;
#X msg 118 222 100;
#X obj 226 521 t b f;
#X obj 52 287 list length;
#X msg 226 557 0;
#X obj 84 267 text set label2;
#X obj 39 673 text define label2;
#X obj 242 700 text get label2;
#X msg 654 151 \; line1 label \$1;
#X msg 813 156 \; title label \$1;
#X msg 531 942 \; line2 label \$1;
#X msg 814 119 symbol anintertwining;
#X obj 531 898 makefilename;
#X obj 52 239 t l l;
#X obj 52 175 t l b b b;
#X obj 39 654 text define names;
#X msg 546 155 label \$1;
#X msg 546 116 symbol empty;
#X obj 546 185 send line2;
#X msg 1141 144 read creatures.txt;
#X obj 1141 172 text define -k creatures;
#A set fuschia crocus bluebell snowdrop daffodil forget-me-not poppy
\, hiveofbees colonyoftermites armyoffireants
lovelinessofladybugs swarmofwasps cloudoffruitflies
chorusofcicadas \, schoolofminnows schoolofsardines
schoolofrainbowfish schoolofgoldfish \, matsutake troopingfunnel
destroyingangel flyagaric puffball shiitake truffle chanterelle
\, sequoia elm beech birch oak willow gingko sycamore banyan larch
bristleconepine aspen \, aardvark alpaca armadillo capybara caracal
echidna marmot platypus \, oozeofamoebas galaxyofseastars
bloomofjellyfish;
#X obj 505 252 text get creatures;
#X obj 1141 93 r sublb;
#X obj 438 22 t b b b b b, f 22;
#X obj 411 49 s pge;
#X obj 396 72 r pgo;
#X obj 307 29 bng 15 250 50 0 empty empty empty 17 7 0 10 -262144 -1
-1;
#X obj 438 -2 r titler;
#X obj 53 324 t b b f;
#X obj 191 489 %;
#X obj 59 408 random 20;
#X obj 59 433 +;
#X msg 654 118 symbol youarea:;
#X obj 69 513 r textgo;
#X msg 538 811 set %s\$1;
#X floatatom 211 404 5 0 0 0 - - -;
#X floatatom 80 582 5 0 0 0 - - -;
#X msg 296 531 1;
#X obj 503 586 %;
#X obj 508 486 random 20;
#X obj 520 542 +;
#X obj 503 611 t b f;
#X msg 461 642 0;
#X obj 194 343 r creaturesel;
#X obj 646 500 r creaturesel;
#X obj 189 676 t f f;
#X obj 188 644 spigot 1;
#X symbolatom 174 830 0 0 0 0 - - -;
#X obj 174 795 makefilename %.1s;
#X obj 174 854 sel a e i o u;
#X msg 153 927 \; line1 label \$1;
#X msg 153 894 symbol youarean:;
#X connect 2 0 41 0;
#X connect 3 0 5 0;
#X connect 4 0 3 0;
#X connect 4 1 1 0;
#X connect 5 0 6 0;
#X connect 6 0 46 0;
#X connect 6 1 45 1;
#X connect 7 0 21 0;
#X connect 8 0 12 1;
#X connect 9 1 14 1;
#X connect 10 0 35 0;
#X connect 11 0 53 0;
#X connect 14 0 19 0;
#X connect 14 0 55 0;
#X connect 18 0 16 0;
#X connect 19 0 17 0;
#X connect 20 0 10 0;
#X connect 20 1 12 0;
#X connect 21 0 20 0;
#X connect 21 1 8 0;
#X connect 23 0 25 0;
#X connect 24 0 23 0;
#X connect 26 0 27 0;
#X connect 28 0 4 0;
#X connect 29 0 26 0;
#X connect 30 0 31 0;
#X connect 30 1 24 0;
#X connect 30 2 39 0;
#X connect 30 3 18 0;
#X connect 32 0 28 0;
#X connect 33 0 30 0;
#X connect 34 0 30 0;
#X connect 35 0 37 0;
#X connect 35 2 36 1;
#X connect 35 2 42 0;
#X connect 36 0 9 0;
#X connect 36 0 43 0;
#X connect 37 0 38 0;
#X connect 38 0 36 0;
#X connect 39 0 15 0;
#X connect 40 0 11 0;
#X connect 41 0 19 0;
#X connect 44 0 14 1;
#X connect 45 0 48 0;
#X connect 46 0 47 0;
#X connect 47 0 45 0;
#X connect 48 0 49 0;
#X connect 48 1 2 1;
#X connect 49 0 2 0;
#X connect 50 0 38 1;
#X connect 51 0 47 1;
#X connect 52 0 53 1;
#X connect 52 1 14 0;
#X connect 53 0 52 0;
#X connect 54 0 56 0;
#X connect 55 0 54 0;
#X connect 56 0 58 0;
#X connect 56 1 58 0;
#X connect 56 2 58 0;
#X connect 56 3 58 0;
#X connect 56 4 58 0;
#X connect 58 0 57 0;
#X restore 5 99 pd title;
#N canvas 626 211 450 300 counter 0;
#N canvas 1078 62 602 834 getter 0;
#X obj 237 162 moses, f 10;
#X obj 237 122 random 10, f 6;
#X obj 52 88 bng 15 250 50 0 empty empty empty 17 7 0 10 -262144 -1
-1;
#X obj 324 565 tabread pit1;
#X msg 465 525 set pit1;
#X msg 398 525 set pit2;
#X obj 163 94 t b b, f 11;
#X obj 282 608 sel 0;
#X floatatom 155 641 5 0 0 0 - - -;
#X obj 163 46 r getpit;
#X obj 314 637 s pit;
#X obj 304 128 r tensec;
#X obj 96 159 random 100;
#X obj 111 224 t f f;
#X obj 51 385 sel 0;
#X obj 137 389 sel 1;
#X obj 162 274 f;
#X msg 337 535 bang;
#X obj 111 286 % 3;
#X obj 381 198 r mode;
#X obj 381 222 sel a b c d e f;
#X msg 385 312 0;
#X msg 462 315 1;
#X msg 498 315 2;
#X msg 424 315 1;
#X obj 385 268 bng 15 250 50 0 empty empty empty 17 7 0 10 -262144
-1 -1;
#X obj 429 272 bng 15 250 50 0 empty empty empty 17 7 0 10 -262144
-1 -1;
#X obj 471 269 bng 15 250 50 0 empty empty empty 17 7 0 10 -262144
-1 -1;
#X connect 0 0 5 0;
#X connect 0 1 4 0;
#X connect 1 0 0 0;
#X connect 2 0 6 0;
#X connect 3 0 7 0;
#X connect 4 0 3 0;
#X connect 5 0 3 0;
#X connect 6 0 12 0;
#X connect 6 1 1 0;
#X connect 7 0 6 0;
#X connect 7 1 8 0;
#X connect 7 1 10 0;
#X connect 9 0 6 0;
#X connect 11 0 0 1;
#X connect 12 0 13 0;
#X connect 13 0 18 0;
#X connect 13 1 16 1;
#X connect 14 0 16 0;
#X connect 14 1 15 0;
#X connect 15 0 16 0;
#X connect 15 1 17 0;
#X connect 16 0 3 0;
#X connect 17 0 6 0;
#X connect 18 0 14 0;
#X connect 19 0 20 0;
#X connect 20 0 25 0;
#X connect 20 1 26 0;
#X connect 20 2 27 0;
#X connect 20 3 25 0;
#X connect 20 4 26 0;
#X connect 20 5 27 0;
#X connect 21 0 14 1;
#X connect 22 0 15 1;
#X connect 23 0 15 1;
#X connect 24 0 14 1;
#X connect 25 0 21 0;
#X connect 25 0 22 0;
#X connect 26 0 21 0;
#X connect 26 0 23 0;
#X connect 27 0 24 0;
#X connect 27 0 23 0;
#X restore 99 27 pd getter;
#N canvas 1007 146 1087 1005 shifter 0;
#X obj 194 253 metro 1000;
#X obj 195 300 f;
#X obj 228 301 + 1;
#X floatatom 26 353 5 0 0 0 - - -;
#X obj 194 223 tgl 15 0 empty empty empty 17 7 0 10 -262144 -1 -1 1
1;
#X floatatom 10 392 5 0 0 0 - - -;
#X floatatom 19 483 5 0 0 0 - - -;
#X obj 449 557 + 1;
#X obj 262 350 i, f 2;
#X obj 262 394 change;
#N canvas 0 22 450 278 (subpatch) 0;
#X array pit2 100 float 2;
#X coords 0 100 100 0 240 200 1 0 0;
#X restore 661 299 graph;
#N canvas 0 22 450 278 (subpatch) 0;
#X array pit1 100 float 2;
#X coords 0 100 100 0 240 200 1 0 0;
#X restore 661 79 graph;
#X obj 348 842 array set pit1;
#X obj 535 851 array set pit2;
#X obj 261 528 t f b;
#X msg 523 546 \; pit1 const 0 \; pit2 const 0;
#X obj 213 691 f, f 2;
#X obj 235 691 - 1;
#X obj 392 702 f, f 2;
#X obj 416 702 - 1;
#X obj 167 426 s tensec;
#X obj 262 758 route 0;
#X obj 449 755 route 0;
#X obj 5 767 print a;
#X obj 194 147 t b b, f 15;
#X msg 194 171 1;
#X msg 318 372 0;
#X obj 4 119 bng 15 250 50 0 empty empty empty 17 7 0 10 -262144 -1
-1;
#X obj 449 662 t f f;
#X obj 261 647 t f f;
#X obj 4 162 bng 15 250 50 0 empty empty empty 17 7 0 10 -262144 -1
-1;
#X floatatom 4 210 5 0 0 0 - - -;
#X obj 261 622 % 18, f 6;
#X obj 300 566 r mainlength;
#X obj 449 638 % 18, f 6;
#X obj 308 791 list split 1;
#X obj 495 794 list split 1;
#X obj 488 948 line;
#X msg 496 915 \$1 10000;
#X obj 448 988 s mainctrl;
#X obj 497 879 * 0.015;
#X obj 193 92 del 10;
#X obj 664 841 list length;
#X floatatom 649 892 5 0 0 0 - - -;
#X obj 669 867 s pit2length;
#X msg 52 245 10;
#X msg 98 240 20;
#X obj 195 376 % 6;
#X obj 262 327 / 6;
#X obj 441 18 r starttime;
#X floatatom 151 713 5 0 0 0 - - -;
#X obj 557 602 r textsetter;
#X msg 767 736 \; \$1 \$2;
#X obj 343 289 r cyclelength;
#X obj 767 712 text get inits;
#X obj 838 517 r sublb;
#X msg 885 593 read inits.txt;
#X obj 838 541 t b b;
#X obj 759 591 text size inits;
#X obj 759 615 until;
#X obj 759 639 f;
#X obj 792 638 + 1;
#X obj 852 749 print ini;
#X obj 300 591 text size;
#X obj 885 620 text define -k inits;
#A set cyclelength 6 \;;
#X obj 261 721 text get;
#X obj 450 729 text get;
#X obj 429 169 zexy;
#X obj 476 157 time, f 12;
#X obj 488 195 * 60;
#X obj 512 221 +;
#X floatatom 512 245 5 0 0 0 - - -;
#X obj 376 141 tgl 15 0 empty empty empty 17 7 0 10 -262144 -1 -1 1
1;
#X obj 441 86 sel 77;
#X obj 441 128 del 10;
#X obj 193 68 loadbang;
#X connect 0 0 1 0;
#X connect 1 0 2 0;
#X connect 1 0 3 0;
#X connect 1 0 47 0;
#X connect 1 0 48 0;
#X connect 2 0 1 1;
#X connect 4 0 0 0;
#X connect 7 0 34 0;
#X connect 8 0 9 0;
#X connect 9 0 14 0;
#X connect 9 0 6 0;
#X connect 14 0 7 0;
#X connect 14 0 32 0;
#X connect 14 1 15 0;
#X connect 16 0 17 0;
#X connect 17 0 16 1;
#X connect 17 0 50 0;
#X connect 17 0 65 0;
#X connect 18 0 19 0;
#X connect 19 0 18 1;
#X connect 19 0 66 0;
#X connect 21 0 16 0;
#X connect 21 1 35 0;
#X connect 22 0 18 0;
#X connect 22 1 36 0;
#X connect 24 0 25 0;
#X connect 24 1 26 0;
#X connect 25 0 4 0;
#X connect 26 0 14 0;
#X connect 27 0 24 0;
#X connect 28 0 66 0;
#X connect 28 1 18 1;
#X connect 29 0 65 0;
#X connect 29 1 16 1;
#X connect 32 0 29 0;
#X connect 33 0 63 0;
#X connect 34 0 28 0;
#X connect 35 1 12 0;
#X connect 36 0 40 0;
#X connect 36 1 13 0;
#X connect 36 1 42 0;
#X connect 37 0 39 0;
#X connect 38 0 37 0;
#X connect 40 0 38 0;
#X connect 41 0 24 0;
#X connect 42 0 43 0;
#X connect 42 0 44 0;
#X connect 45 0 1 0;
#X connect 46 0 1 0;
#X connect 47 0 20 0;
#X connect 47 0 5 0;
#X connect 48 0 8 0;
#X connect 49 0 1 1;
#X connect 49 0 73 0;
#X connect 51 0 63 1;
#X connect 51 0 65 3;
#X connect 51 0 66 3;
#X connect 53 0 48 1;
#X connect 53 0 47 1;
#X connect 54 0 52 0;
#X connect 54 0 62 0;
#X connect 55 0 57 0;
#X connect 56 0 64 0;
#X connect 57 0 58 0;
#X connect 57 1 56 0;
#X connect 58 0 59 0;
#X connect 59 0 60 0;
#X connect 60 0 61 0;
#X connect 60 0 54 0;
#X connect 61 0 60 1;
#X connect 63 0 32 1;
#X connect 63 0 34 1;
#X connect 65 0 21 0;
#X connect 65 0 23 0;
#X connect 66 0 22 0;
#X connect 66 0 23 0;
#X connect 68 1 69 0;
#X connect 68 2 70 1;
#X connect 69 0 70 0;
#X connect 70 0 71 0;
#X connect 71 0 1 1;
#X connect 73 0 72 0;
#X connect 73 0 74 0;
#X connect 74 0 68 0;
#X connect 75 0 41 0;
#X restore 99 46 pd shifter;
#N canvas 1441 123 793 1263 setter 0;
#X obj 383 46 r sublb;
#X obj 265 72 bng 15 250 50 0 empty empty empty 17 7 0 10 -262144 -1
-1;
#X obj 349 225 t b b b;
#X obj 101 742 s mainlength;
#X obj 290 593 sel 0 1 2 3 4;
#X obj 531 330 t b b;
#X obj 313 346 r isbass;
#X obj 313 370 sel 1;
#X msg 313 394 5;
#X msg 917 464 read one.txt;
#X msg 1046 474 read two.txt;
#X msg 1176 463 read three.txt;
#X msg 286 990 symbol one;
#X msg 373 990 symbol two;
#X msg 493 985 symbol three;
#X obj 916 517 text define -k one;
#A set 71 57 58 60 62 64 \, 71 58 60 62 \, 71 58 60 62 64 \, 84 60
62 64 65 \, 84 60 62 64 65 67 \, 84 62 64 65 67 69 \, 71 58 62 65 67
69 \, 61 55 58 62 65 69 \, 71 55 58 62 65 69 72 \, 84 55 58 62 65 69
72 76 \, 98 55 58 62 65 69 72 76 \, 84 55 58 62 65 69 72 \, 84 55 58
62 65 72 \, 84 55 58 62 65 72 75 \, 84 55 58 62 65 68 72 75 \, 84 65
68 72 75 77 79 80 \, 113 70 72 74 75 77 79 80 \, 39 70 72 74 75 77
79 80 \, 113 70 72 74 75 77 79 80 \, 39 70 72 74 75 77 79 80 \, 39
75 77 79 80 \, 61 77 80 \, 61 80 \, 71 78 80 \, 71 77 78 80 \, 84 75
77 78 80 \, 84 71 75 77 78 80 \, 98 70 71 75 77 78 80 \, 98 65 66 70
71 75 77 78 80 \, 84 59 61 65 66 70 71 75 77 78 80 \, 84 59 61 63 65
66 70 71 75 77 78 80 \, 71 59 61 63 65 66 70 71 75 \, 71 59 61 63 65
66 \, 71 59 61 63 \, 84 59 61 63 64 66 \, 98 59 61 63 64 66 68 71 \,
84 64 66 68 71 73 \, 71 68 71 73 \, 61 71 73 \, 61 71 73 \, 61 71 73
\, 61 69 71 \, 61 69 71 \, 39 67 69 71 72 \, 39 63 67 71 74 \, 39 65
67 71 72 \, 39 65 67 72 \, 39 62 65 67 \, 61 60 62 65 \, 61 58 60 62
\,;
#X obj 1046 517 text define -k two;
#A set 84 57 58 60 62 64 \, 84 57 58 60 62 64 \, 71 58 60 62 \, 71
57 58 60 62 \, 84 55 57 58 60 62 \, 84 53 55 57 58 60 \, 71 53 55 57
60 64 \, 61 53 57 60 64 67 \, 71 53 57 60 64 67 70 \, 84 53 57 60 64
67 70 74 \, 98 53 57 60 64 67 70 74 \, 84 53 57 60 67 70 74 \, 84 53
60 67 70 74 \, 84 53 60 63 67 70 74 \, 84 53 56 60 63 67 70 74 \, 83
48 50 51 53 56 60 63 \, 39 48 50 51 53 55 56 58 \, 113 48 50 51 53
55 56 58 \, 39 48 50 51 53 55 56 58 \, 113 48 50 51 53 55 56 58 \,
84 53 55 56 58 \, 61 56 58 \, 39 56 58 \, 39 56 58 \, 39 56 59 \, 39
59 61 \, 39 59 61 \, 39 59 61 63 \, 39 59 61 63 \, 39 59 61 63 \, 39
59 61 63 \, 39 59 61 63 \, 61 59 61 63 \, 71 59 61 63 \, 84 54 56 59
61 63 \, 98 51 52 54 56 59 61 63 \, 84 51 52 54 56 59 \, 71 51 52 54
\, 61 51 52 \, 61 51 52 \, 61 51 52 \, 61 51 55 \, 61 51 55 \, 39 50
51 55 57 \, 61 50 53 57 60 \, 71 51 53 57 60 \, 84 50 51 53 57 60 \,
98 50 53 55 57 60 \, 113 50 53 57 58 60 \, 98 53 57 58 60 62 \,;
#X obj 1176 517 text define -k three;
#A set 61 50 \, 61 45 \, 61 48 \, 61 43 \, 61 45 \, 71 38 \, 71 43
\, 71 41 \, 71 36 \, 71 38 \, 71 43 \, 71 36 \, 84 34 \, 84 41 \, 84
39 \, 84 36 \, 98 32 \, 98 34 \, 98 38 \, 84 39 \, 71 48 \, 20 41 \,
20 41 \, 20 41 \, 20 46 \, 20 46 \, 20 46 \, 20 37 \, 20 37 \, 20 37
\, 20 44 \, 20 44 \, 20 44 \, 20 33 \, 61 33 \, 71 33 \, 84 33 \, 98
33 \, 113 33 \, 98 33 \, 84 33 \, 71 33 \, 61 33 \, 39 29 \, 39 29
\, 39 29 \, 39 36 \, 39 36 \, 39 43 \, 39 43 \,;
#X obj 376 1090 s textsetter;
#X obj 289 533 t b f;
#X obj 289 463 % 4;
#X obj 205 334 t b f;
#X obj 205 359 random 20;
#X obj 205 384 +;
#X obj 205 309 r pitcsel;
#X obj 501 819 s bassgo;
#X connect 0 0 2 0;
#X connect 0 0 9 0;
#X connect 0 0 11 0;
#X connect 0 0 10 0;
#X connect 1 0 2 0;
#X connect 2 1 5 0;
#X connect 4 0 12 0;
#X connect 4 1 12 0;
#X connect 4 2 13 0;
#X connect 4 3 13 0;
#X connect 4 4 14 0;
#X connect 4 4 25 0;
#X connect 6 0 7 0;
#X connect 7 0 8 0;
#X connect 8 0 20 1;
#X connect 9 0 15 0;
#X connect 10 0 16 0;
#X connect 11 0 17 0;
#X connect 12 0 18 0;
#X connect 13 0 18 0;
#X connect 14 0 18 0;
#X connect 19 0 3 0;
#X connect 19 1 4 0;
#X connect 20 0 19 0;
#X connect 21 0 22 0;
#X connect 21 1 23 1;
#X connect 22 0 23 0;
#X connect 23 0 20 0;
#X connect 24 0 21 0;
#X restore 99 8 pd setter;
#X restore 5 117 pd counter;
#N canvas 0 23 1669 1005 mode 0;
#X obj 560 886 s mchordsize;
#X obj 486 886 s mdensity;
#X obj 433 886 s maggr;
#X obj 359 886 s mbreadth;
#X obj 295 883 s mroc;
#X obj 235 883 s mactiv;
#N canvas 132 25 642 779 a 0;
#X obj 80 681 outlet;
#X obj 79 414 random 100;
#X obj 79 467 + 0, f 5;
#X obj 80 491 pack f f;
#X obj 80 633 i;
#X obj 79 364 metro 1000, f 21;
#X obj 79 515 line;
#X obj 79 283 unpack f f f, f 21;
#X obj 133 317 -;
#X obj 146 342 * -1;
#X obj 79 320 t b f;
#X obj 79 241 r sactiv;
#X obj 106 551 r mainctrl;
#X obj 88 584 clip 0 100;
#X obj 88 568 * 1;
#X connect 1 0 2 0;
#X connect 2 0 3 0;
#X connect 3 0 6 0;
#X connect 4 0 0 0;
#X connect 5 0 1 0;
#X connect 6 0 14 0;
#X connect 7 0 10 0;
#X connect 7 0 8 0;
#X connect 7 1 8 1;
#X connect 7 2 5 1;
#X connect 7 2 3 1;
#X connect 8 0 9 0;
#X connect 9 0 1 1;
#X connect 10 0 5 0;
#X connect 10 1 2 1;
#X connect 11 0 7 0;
#X connect 12 0 14 1;
#X connect 13 0 4 0;
#X connect 14 0 13 0;
#X restore 234 729 pd a;
#N canvas 132 25 642 692 b 0;
#X obj 74 648 outlet;
#X obj 79 414 random 100;
#X obj 79 467 + 0, f 5;
#X obj 80 491 pack f f;
#X obj 79 364 metro 1000, f 21;
#X obj 79 515 line;
#X obj 79 283 unpack f f f, f 21;
#X obj 133 317 -;
#X obj 146 342 * -1;
#X obj 79 320 t b f;
#X obj 79 241 r sbreadth;
#X obj 106 551 r mainctrl;
#X obj 88 584 clip 0 100;
#X obj 88 568 * 1;
#X obj 102 617 i;
#X connect 1 0 2 0;
#X connect 2 0 3 0;
#X connect 3 0 5 0;
#X connect 4 0 1 0;
#X connect 5 0 13 0;
#X connect 6 0 9 0;
#X connect 6 0 7 0;
#X connect 6 1 7 1;
#X connect 6 2 4 1;
#X connect 6 2 3 1;
#X connect 7 0 8 0;
#X connect 8 0 1 1;
#X connect 9 0 4 0;
#X connect 9 1 2 1;
#X connect 10 0 6 0;
#X connect 11 0 13 1;
#X connect 12 0 14 0;
#X connect 13 0 12 0;
#X connect 14 0 0 0;
#X restore 363 732 pd b;
#N canvas 132 25 642 692 agg 0;
#X obj 79 644 outlet;
#X obj 79 414 random 100;
#X obj 79 467 + 0, f 5;
#X obj 80 491 pack f f;
#X obj 79 364 metro 1000, f 21;
#X obj 79 515 line;
#X obj 79 283 unpack f f f, f 21;
#X obj 133 317 -;
#X obj 146 342 * -1;
#X obj 79 320 t b f;
#X obj 79 241 r saggr;
#X obj 120 531 r mainctrl;
#X obj 89 584 clip 0 100;
#X obj 81 558 * 1;
#X obj 89 608 i;
#X floatatom 210 571 5 0 0 0 - - -;
#X floatatom 167 641 5 0 0 0 - - -;
#X floatatom 245 442 5 0 0 0 - - -;
#X floatatom 280 539 5 0 0 0 - - -;
#X connect 1 0 2 0;
#X connect 1 0 17 0;
#X connect 2 0 3 0;
#X connect 2 0 18 0;
#X connect 3 0 5 0;
#X connect 4 0 1 0;
#X connect 5 0 13 0;
#X connect 6 0 9 0;
#X connect 6 0 7 0;
#X connect 6 1 7 1;
#X connect 6 2 4 1;
#X connect 6 2 3 1;
#X connect 7 0 8 0;
#X connect 8 0 1 1;
#X connect 9 0 4 0;
#X connect 9 1 2 1;
#X connect 10 0 6 0;
#X connect 11 0 13 1;
#X connect 11 0 15 0;
#X connect 12 0 14 0;
#X connect 13 0 12 0;
#X connect 14 0 0 0;
#X connect 14 0 16 0;
#X restore 437 728 pd agg;
#N canvas 120 25 642 692 d 0;
#X obj 79 679 outlet;
#X obj 83 330 random 100;
#X obj 83 383 + 0, f 5;
#X obj 84 407 pack f f;
#X obj 82 641 i;
#X obj 83 280 metro 1000, f 21;
#X obj 83 431 line;
#X obj 83 199 unpack f f f, f 21;
#X obj 133 317 -;
#X obj 146 342 * -1;
#X obj 83 236 t b f;
#X obj 83 157 r sdensity;
#X obj 101 464 r cdensity;
#X obj 101 488 / 100;
#X obj 170 561 r mainctrl;
#X obj 152 594 clip 0 100;
#X obj 152 578 * 1;
#X obj 83 518 * 1;
#X connect 1 0 2 0;
#X connect 2 0 3 0;
#X connect 3 0 6 0;
#X connect 4 0 0 0;
#X connect 5 0 1 0;
#X connect 6 0 17 0;
#X connect 7 0 10 0;
#X connect 7 0 8 0;
#X connect 7 1 8 1;
#X connect 7 2 5 1;
#X connect 7 2 3 1;
#X connect 8 0 9 0;
#X connect 9 0 1 1;
#X connect 10 0 5 0;
#X connect 10 1 2 1;
#X connect 11 0 7 0;
#X connect 12 0 13 0;
#X connect 13 0 17 1;
#X connect 14 0 16 1;
#X connect 15 0 4 0;
#X connect 16 0 15 0;
#X connect 17 0 16 0;
#X restore 490 730 pd d;
#N canvas 132 25 642 692 c 0;
#X obj 81 678 outlet;
#X obj 79 414 random 100;
#X obj 79 467 + 0, f 5;
#X obj 80 491 pack f f;
#X obj 81 630 i;
#X obj 79 364 metro 1000, f 21;
#X obj 79 515 line;
#X obj 79 283 unpack f f f, f 21;
#X obj 133 317 -;
#X obj 146 342 * -1;
#X obj 79 320 t b f;
#X obj 79 241 r schordsize;
#X obj 106 551 r mainctrl;
#X obj 88 568 * 1;
#X obj 89 596 clip 1 100;
#X connect 1 0 2 0;
#X connect 2 0 3 0;
#X connect 3 0 6 0;
#X connect 4 0 0 0;
#X connect 5 0 1 0;
#X connect 6 0 13 0;
#X connect 7 0 10 0;
#X connect 7 0 8 0;
#X connect 7 1 8 1;
#X connect 7 2 5 1;
#X connect 7 2 3 1;
#X connect 8 0 9 0;
#X connect 9 0 1 1;
#X connect 10 0 5 0;
#X connect 10 1 2 1;
#X connect 11 0 7 0;
#X connect 12 0 13 1;
#X connect 13 0 14 0;
#X connect 14 0 4 0;
#X restore 564 735 pd c;
#X obj 296 731 r sroc;
#X obj 105 740 s getpit;
#X obj 108 789 r pit;
#X msg 239 913 /100 \, \, lo hi (s) \, \, /100 \, \, \, /100 /100 no.
;
#N canvas 120 25 642 692 p 0;
#X obj 79 679 outlet;
#X obj 83 330 random 100;
#X obj 83 383 + 0, f 5;
#X obj 84 407 pack f f;
#X obj 82 641 i;
#X obj 83 280 metro 1000, f 21;
#X obj 83 431 line;
#X obj 83 199 unpack f f f, f 21;
#X obj 133 317 -;
#X obj 146 342 * -1;
#X obj 83 236 t b f;
#X obj 101 464 r cdensity;
#X obj 101 488 / 100;
#X obj 170 561 r mainctrl;
#X obj 152 594 clip 0 100;
#X obj 152 578 * 1;
#X obj 83 518 * 1;
#X obj 83 157 r spauses;
#X connect 1 0 2 0;
#X connect 2 0 3 0;
#X connect 3 0 6 0;
#X connect 4 0 0 0;
#X connect 5 0 1 0;
#X connect 6 0 16 0;
#X connect 7 0 10 0;
#X connect 7 0 8 0;
#X connect 7 1 8 1;
#X connect 7 2 5 1;
#X connect 7 2 3 1;
#X connect 8 0 9 0;
#X connect 9 0 1 1;
#X connect 10 0 5 0;
#X connect 10 1 2 1;
#X connect 11 0 12 0;
#X connect 12 0 16 1;
#X connect 13 0 15 1;
#X connect 14 0 4 0;
#X connect 15 0 14 0;
#X connect 16 0 15 0;
#X connect 17 0 7 0;
#X restore 696 730 pd p;
#X obj 692 886 s mpauses;
#X obj 278 238 spigot 1;
#X msg 1241 431 read modes.txt;
#X obj 278 398 text get modes;
#X obj 936 333 text size modes;
#X obj 1244 485 text define -k modes;
#A set 40 60 1.5 4 80 100 80 100 0 20 1 2 50 80 \; 0 40 1 2 50 100
0 7 0 20 5 7 20 50 \; 80 99 0.1 1 60 70 77 99 88 99 1 1 5 15 \; 0 100
0.1 15 0 100 0 100 0 100 1 10 0 100 \; 70 100 2 4 0 25 40 60 90 100
2 3 20 80 \; 99 100 3 7 90 100 0 20 0 25 3 7 20 40 \;;
#X obj 1223 2 r starttime;
#X obj 1386 183 s pitcsel;
#X obj 277 190 + 0;
#X obj 620 161 r bassgo;
#X msg 626 210 0;
#X obj 282 295 % 8;
#X obj 236 351 t f f;
#X obj 131 402 text get moods;
#X msg 1471 384 read moods.txt;
#X obj 1474 438 text define -k moods;
#A set determined imperious domineering resolute adamant steadfast
\; languorous sedate luxurious dawdling leisurely unhurried relaxed
lazy gentle \; vibrant shocking effervescent energetic \; chaotic unpredictable
wild mercurial erratic \; thoughtful pensive reflective \; ?? ?? ??
\;;
#X obj 123 473 s 2ndlabel;
#X msg 289 505 \; sactiv \$1 \$2 10000 \; sroc \$3 \$4 \; sbreadth
\$5 \$6 1000 \; saggr \$7 \$8 1000 \; sdensity \$9 \$10 10000 \; schordsize
\$11 \$12 10000 \; spauses \$13 \$14 10000 \;, f 48;
#X obj 272 131 random 20;
#X obj 823 132 t b f b;
#X obj 1392 136 s titler;
#X obj 1397 99 s moodnumb;
#X obj 1511 163 s creaturesel;
#X obj 1499 72 s sublb;
#X obj 1182 30 t f b f b b f b;
#X floatatom 138 366 5 0 0 0 - - -;
#X obj 743 130 t b b;
#X obj 294 79 s textgo;
#X obj 909 39 r mainclick;
#X obj 1001 104 f;
#X connect 6 0 5 0;
#X connect 7 0 3 0;
#X connect 8 0 2 0;
#X connect 9 0 1 0;
#X connect 10 0 0 0;
#X connect 11 0 4 0;
#X connect 15 0 16 0;
#X connect 17 0 27 0;
#X connect 18 0 21 0;
#X connect 19 0 33 0;
#X connect 20 0 27 1;
#X connect 22 0 40 0;
#X connect 24 0 17 0;
#X connect 25 0 26 0;
#X connect 26 0 17 1;
#X connect 26 0 28 0;
#X connect 27 0 28 0;
#X connect 28 0 29 0;
#X connect 28 0 41 0;
#X connect 28 1 19 0;
#X connect 29 0 32 0;
#X connect 30 0 31 0;
#X connect 34 0 24 0;
#X connect 35 0 42 0;
#X connect 35 1 24 1;
#X connect 35 2 20 0;
#X connect 35 2 18 0;
#X connect 35 2 30 0;
#X connect 40 0 45 1;
#X connect 40 2 23 0;
#X connect 40 3 36 0;
#X connect 40 4 37 0;
#X connect 40 5 38 0;
#X connect 40 6 39 0;
#X connect 42 0 43 0;
#X connect 42 1 34 0;
#X connect 44 0 45 0;
#X connect 45 0 35 0;
#X restore 5 136 pd mode;
#N canvas 0 45 1680 983 output 0;
#X obj 30 22 r~ left;
#X obj 793 878 dac~;
#X obj 249 825 lop~ 2700;
#X obj 675 279 / 127;
#X obj 675 301 * 9;
#X obj 675 323 + 1;
#X obj 584 266 / 127;
#X obj 584 310 + 1;
#X obj 584 288 * 9;
#X obj 249 703 clip~ -1 1;
#X obj 1225 860 lop~ 2700;
#X obj 1608 107 hsl 128 15 0 127 0 1 \$0-compressor-threshold-s \$0-compressor-threshold-r
THRESHOLD 135 7 0 10 -262144 -1 -1 2200 1;
#X obj 1651 314 / 127;
#X obj 1651 336 * 9;
#X obj 1651 358 + 1;
#X obj 1498 131 hsl 128 15 0 127 0 1 \$0-compressor-limit-s \$0-compressor-limit-r
LIMIT 135 7 0 10 -262144 -1 -1 300 1;
#X obj 1549 268 / 127;
#X obj 1549 312 + 1;
#X obj 1549 290 * 9;
#X obj 1225 738 clip~ -1 1;
#X obj 1006 57 r~ right;
#X floatatom 602 61 5 0 0 0 - - -;
#X floatatom 344 62 5 0 0 0 - - -;
#X floatatom 391 63 5 0 0 0 - - -;
#X obj 344 -8 r sublb;
#X obj 344 40 unpack f f f;
#X msg 417 14 attack threshold limit;
#X msg 344 16 10 22 2;
#X obj 214 627 *~ 1;
#X obj 1225 692 *~ 1;
#X connect 0 0 28 0;
#X connect 2 0 1 0;
#X connect 3 0 4 0;
#X connect 4 0 5 0;
#X connect 6 0 8 0;
#X connect 8 0 7 0;
#X connect 9 0 2 0;
#X connect 10 0 1 1;
#X connect 11 0 12 0;
#X connect 12 0 13 0;
#X connect 13 0 14 0;
#X connect 15 0 16 0;
#X connect 16 0 18 0;
#X connect 18 0 17 0;
#X connect 19 0 10 0;
#X connect 20 0 29 0;
#X connect 21 0 6 0;
#X connect 21 0 16 0;
#X connect 23 0 12 0;
#X connect 23 0 3 0;
#X connect 24 0 27 0;
#X connect 25 0 22 0;
#X connect 25 1 23 0;
#X connect 25 2 21 0;
#X connect 27 0 25 0;
#X connect 28 0 9 0;
#X connect 29 0 19 0;
#X restore 5 155 pd output;
#X msg 254 284 \; starttime 77;
#X obj 109 53 sel 1 4 5 6;
#X msg 275 99 \; isbass 0;
#X msg 118 93 \; isbass 1;
#X obj 159 145 loadbang;
#X obj 126 373 s mainclick;
#X msg 448 237 100;
#X obj 448 262 osc~;
#X msg 525 239 0.1 \, 0 100;
#X obj 525 264 line~;
#X obj 448 297 *~;
#X obj 140 312 t b b b b;
#X obj 160 170 t b b b;
#X obj 140 262 del 2000;
#X obj 104 299 tgl 15 0 empty empty empty 17 7 0 10 -262144 -1 -1 0
1;
#X obj 446 329 dac~;
#X obj 109 9 r pgo;
#X obj 465 139 r mainclick;
#X obj 465 179 t b b;
#X connect 5 0 7 0;
#X connect 5 1 7 0;
#X connect 5 2 7 0;
#X connect 5 3 7 0;
#X connect 5 4 6 0;
#X connect 8 0 16 0;
#X connect 10 0 11 0;
#X connect 11 0 14 0;
#X connect 12 0 13 0;
#X connect 13 0 14 1;
#X connect 14 0 19 0;
#X connect 14 0 19 1;
#X connect 16 1 4 0;
#X connect 16 2 22 0;
#X connect 17 0 15 0;
#X connect 17 0 18 0;
#X connect 20 0 5 0;
#X connect 21 0 22 0;
#X connect 22 0 10 0;
#X connect 22 1 12 0;
#X restore 309 236 pd c;
